<svg xmlns="http://www.w3.org/2000/svg" xmlns:xlink="http://www.w3.org/1999/xlink" width="1200" zoomAndPan="magnify" viewBox="0 0 900 899.99999" height="1200" preserveAspectRatio="xMidYMid meet" version="1.0"><defs><clipPath id="9c65fda8be"><path d="M 900 450 C 900 698.519531 698.519531 900 449.988281 900 C 201.457031 900 -0.0117188 698.519531 -0.0117188 450 C -0.0117188 201.472656 201.457031 0 449.988281 0 C 698.519531 0 900 201.472656 900 450 Z M 900 450 " clip-rule="nonzero"/></clipPath><clipPath id="8fd529045e"><path d="M 333.78125 275 L 900 275 L 900 900 L 333.78125 900 Z M 333.78125 275 " clip-rule="nonzero"/></clipPath><clipPath id="a4f3e9ab71"><path d="M 900 450 C 900 698.519531 698.519531 900 449.988281 900 C 201.457031 900 -0.0117188 698.519531 -0.0117188 450 C -0.0117188 201.472656 201.457031 0 449.988281 0 C 698.519531 0 900 201.472656 900 450 Z M 900 450 " clip-rule="nonzero"/></clipPath><clipPath id="918aff8fb7"><path d="M 229 268.199219 L 323.578125 268.199219 L 323.578125 363 L 229 363 Z M 229 268.199219 " clip-rule="nonzero"/></clipPath><clipPath id="74dec74e85"><path d="M 900 450 C 900 698.519531 698.519531 900 449.988281 900 C 201.457031 900 -0.0117188 698.519531 -0.0117188 450 C -0.0117188 201.472656 201.457031 0 449.988281 0 C 698.519531 0 900 201.472656 900 450 Z M 900 450 " clip-rule="nonzero"/></clipPath><clipPath id="40ffed9567"><path d="M 440.578125 379.199219 L 675 379.199219 L 675 703.800781 L 440.578125 703.800781 Z M 440.578125 379.199219 " clip-rule="nonzero"/></clipPath><clipPath id="79aeecddbf"><path d="M 900 450 C 900 698.519531 698.519531 900 449.988281 900 C 201.457031 900 -0.0117188 698.519531 -0.0117188 450 C -0.0117188 201.472656 201.457031 0 449.988281 0 C 698.519531 0 900 201.472656 900 450 Z M 900 450 " clip-rule="nonzero"/></clipPath><clipPath id="e1645c34c8"><path d="M 225 379.199219 L 441 379.199219 L 441 703.800781 L 225 703.800781 Z M 225 379.199219 " clip-rule="nonzero"/></clipPath><clipPath id="2bb82d1515"><path d="M 900 450 C 900 698.519531 698.519531 900 449.988281 900 C 201.457031 900 -0.0117188 698.519531 -0.0117188 450 C -0.0117188 201.472656 201.457031 0 449.988281 0 C 698.519531 0 900 201.472656 900 450 Z M 900 450 " clip-rule="nonzero"/></clipPath><clipPath id="267fe7277d"><path d="M 576.179688 268.199219 L 670.980469 268.199219 L 670.980469 363 L 576.179688 363 Z M 576.179688 268.199219 " clip-rule="nonzero"/></clipPath><clipPath id="3e3146ca32"><path d="M 900 450 C 900 698.519531 698.519531 900 449.988281 900 C 201.457031 900 -0.0117188 698.519531 -0.0117188 450 C -0.0117188 201.472656 201.457031 0 449.988281 0 C 698.519531 0 900 201.472656 900 450 Z M 900 450 " clip-rule="nonzero"/></clipPath><clipPath id="4bc36ea91e"><path d="M 331 487 L 448.378906 487 L 448.378906 703.800781 L 331 703.800781 Z M 331 487 " clip-rule="nonzero"/></clipPath><clipPath id="c203fe92f9"><path d="M 900 450 C 900 698.519531 698.519531 900 449.988281 900 C 201.457031 900 -0.0117188 698.519531 -0.0117188 450 C -0.0117188 201.472656 201.457031 0 449.988281 0 C 698.519531 0 900 201.472656 900 450 Z M 900 450 " clip-rule="nonzero"/></clipPath><clipPath id="6a3b331dff"><path d="M 448 487 L 568.980469 487 L 568.980469 703.800781 L 448 703.800781 Z M 448 487 " clip-rule="nonzero"/></clipPath><clipPath id="3186693e3d"><path d="M 900 450 C 900 698.519531 698.519531 900 449.988281 900 C 201.457031 900 -0.0117188 698.519531 -0.0117188 450 C -0.0117188 201.472656 201.457031 0 449.988281 0 C 698.519531 0 900 201.472656 900 450 Z M 900 450 " clip-rule="nonzero"/></clipPath><clipPath id="939e532a6b"><path d="M 343.378906 196.199219 L 417.78125 196.199219 L 417.78125 308.398438 L 343.378906 308.398438 Z M 343.378906 196.199219 " clip-rule="nonzero"/></clipPath><clipPath id="52b62d853d"><path d="M 900 450 C 900 698.519531 698.519531 900 449.988281 900 C 201.457031 900 -0.0117188 698.519531 -0.0117188 450 C -0.0117188 201.472656 201.457031 0 449.988281 0 C 698.519531 0 900 201.472656 900 450 Z M 900 450 " clip-rule="nonzero"/></clipPath><clipPath id="29b62a9b8b"><path d="M 417.179688 196.199219 L 474.179688 196.199219 L 474.179688 278.398438 L 417.179688 278.398438 Z M 417.179688 196.199219 " clip-rule="nonzero"/></clipPath><clipPath id="0c9b1b3334"><path d="M 900 450 C 900 698.519531 698.519531 900 449.988281 900 C 201.457031 900 -0.0117188 698.519531 -0.0117188 450 C -0.0117188 201.472656 201.457031 0 449.988281 0 C 698.519531 0 900 201.472656 900 450 Z M 900 450 " clip-rule="nonzero"/></clipPath><clipPath id="7589e6ec71"><path d="M 425.578125 230 L 491.578125 230 L 491.578125 311.398438 L 425.578125 311.398438 Z M 425.578125 230 " clip-rule="nonzero"/></clipPath><clipPath id="53955afbba"><path d="M 900 450 C 900 698.519531 698.519531 900 449.988281 900 C 201.457031 900 -0.0117188 698.519531 -0.0117188 450 C -0.0117188 201.472656 201.457031 0 449.988281 0 C 698.519531 0 900 201.472656 900 450 Z M 900 450 " clip-rule="nonzero"/></clipPath><clipPath id="e2bd208992"><path d="M 491 230 L 556.980469 230 L 556.980469 342 L 491 342 Z M 491 230 " clip-rule="nonzero"/></clipPath><clipPath id="ddd5533cad"><path d="M 900 450 C 900 698.519531 698.519531 900 449.988281 900 C 201.457031 900 -0.0117188 698.519531 -0.0117188 450 C -0.0117188 201.472656 201.457031 0 449.988281 0 C 698.519531 0 900 201.472656 900 450 Z M 900 450 " clip-rule="nonzero"/></clipPath></defs><g clip-path="url(#9c65fda8be)"><path fill="#f4b32f" d="M 967.621094 -67.242188 L 967.261719 967.277344 L -67.261719 967.277344 L -67.253906 -67.242188 L 967.625 -67.222656 " fill-opacity="1" fill-rule="nonzero"/></g><g clip-path="url(#8fd529045e)"><g clip-path="url(#a4f3e9ab71)"><path fill="#cf8425" d="M 967.261719 466.738281 L 967.261719 967.261719 L 464.398438 967.261719 L 333.875 703.199219 L 448.039062 703.199219 L 448.871094 658.859375 L 449.988281 599.519531 L 448.039062 526.5 L 484.5 491.820312 L 491.160156 275.046875 L 661.859375 287.875 L 967.261719 466.738281 " fill-opacity="1" fill-rule="nonzero"/></g></g><g clip-path="url(#918aff8fb7)"><g clip-path="url(#74dec74e85)"><path fill="#e9f6ff" d="M 276.300781 362.585938 C 302.316406 362.585938 323.40625 341.496094 323.40625 315.480469 C 323.40625 289.464844 302.316406 268.375 276.300781 268.375 C 250.277344 268.375 229.1875 289.464844 229.1875 315.480469 C 229.1875 341.496094 250.277344 362.585938 276.300781 362.585938 " fill-opacity="1" fill-rule="nonzero"/></g></g><g clip-path="url(#40ffed9567)"><g clip-path="url(#79aeecddbf)"><path fill="#e9f6ff" d="M 635.21875 396.511719 C 613.320312 396.511719 595.558594 414.257812 595.558594 436.152344 L 595.558594 440.953125 C 570.359375 446.101562 516.179688 449.65625 460.679688 405.390625 C 461.640625 404.4375 462.539062 403.492188 463.441406 402.515625 C 468.71875 396.964844 468.421875 388.242188 462.898438 383.023438 C 457.320312 377.800781 448.609375 378.070312 443.394531 383.609375 C 442.492188 384.5625 441.59375 385.445312 440.695312 386.359375 L 440.695312 424.703125 C 486.121094 462.300781 531.238281 471.71875 564.898438 471.71875 C 576.71875 471.71875 587.039062 470.578125 595.558594 469.140625 L 595.558594 535.5 L 534.300781 535.5 C 518.21875 535.5 505.800781 549.601562 507.78125 565.558594 L 524.761719 703.199219 L 566.101562 703.199219 L 566.101562 597.539062 L 595.558594 597.539062 L 595.558594 597.601562 L 646.679688 597.601562 C 662.21875 597.601562 674.820312 585 674.820312 569.460938 L 674.820312 436.152344 C 674.820312 414.257812 657.121094 396.511719 635.21875 396.511719 " fill-opacity="1" fill-rule="nonzero"/></g></g><g clip-path="url(#e1645c34c8)"><g clip-path="url(#2bb82d1515)"><path fill="#e9f6ff" d="M 440.28125 386.773438 C 439.242188 385.710938 438.199219 384.714844 437.160156 383.609375 C 431.941406 378.070312 423.214844 377.800781 417.671875 383.023438 C 412.128906 388.242188 411.863281 396.964844 417.085938 402.515625 C 418.015625 403.507812 418.949219 404.449219 419.878906 405.414062 C 375.847656 440.707031 332.941406 445.8125 304.414062 443.773438 L 304.414062 436.152344 C 304.414062 414.257812 286.667969 396.511719 264.773438 396.511719 C 242.878906 396.511719 225.136719 414.257812 225.136719 436.152344 L 225.136719 569.460938 C 225.136719 585 237.738281 597.601562 253.285156 597.601562 L 304.414062 597.601562 L 304.414062 597.539062 L 333.875 597.539062 L 333.875 703.199219 L 375.238281 703.199219 L 392.214844 565.558594 C 394.183594 549.601562 381.730469 535.5 365.652344 535.5 L 304.414062 535.5 L 304.414062 471.359375 C 307.992188 471.601562 311.730469 471.71875 315.628906 471.71875 C 349.445312 471.71875 394.734375 462.300781 440.28125 424.375 C 440.417969 424.492188 440.554688 424.589844 440.695312 424.703125 L 440.695312 386.359375 L 440.28125 386.773438 " fill-opacity="1" fill-rule="nonzero"/></g></g><g clip-path="url(#267fe7277d)"><g clip-path="url(#3e3146ca32)"><path fill="#e9f6ff" d="M 623.699219 362.585938 C 649.679688 362.585938 670.800781 341.496094 670.800781 315.480469 C 670.800781 289.464844 649.679688 268.375 623.699219 268.375 C 597.660156 268.375 576.539062 289.464844 576.539062 315.480469 C 576.539062 341.496094 597.660156 362.585938 623.699219 362.585938 " fill-opacity="1" fill-rule="nonzero"/></g></g><g clip-path="url(#4bc36ea91e)"><g clip-path="url(#c203fe92f9)"><path fill="#264d55" d="M 346.578125 487.140625 C 338.011719 487.140625 331.066406 494.101562 331.066406 502.679688 C 331.066406 511.199219 338.011719 518.160156 346.578125 518.160156 L 434.472656 518.160156 L 434.472656 687.71875 L 405.664062 703.078125 L 434.472656 703.078125 L 434.472656 703.199219 L 448.03125 703.199219 L 448.03125 487.140625 L 346.578125 487.140625 " fill-opacity="1" fill-rule="nonzero"/></g></g><g clip-path="url(#6a3b331dff)"><g clip-path="url(#3186693e3d)"><path fill="#1e4046" d="M 465.480469 518.160156 L 553.378906 518.160156 C 561.960938 518.160156 568.921875 511.199219 568.921875 502.679688 C 568.921875 494.101562 561.960938 487.140625 553.378906 487.140625 L 448.03125 487.140625 L 448.03125 703.199219 L 465.480469 703.199219 L 465.480469 703.140625 L 494.339844 703.199219 L 465.480469 687.839844 L 465.480469 518.160156 " fill-opacity="1" fill-rule="nonzero"/></g></g><g clip-path="url(#939e532a6b)"><g clip-path="url(#52b62d853d)"><path fill="#e9f6ff" d="M 356.664062 244.578125 L 378.835938 244.578125 L 378.835938 249.796875 L 356.664062 249.796875 Z M 356.664062 233.0625 L 387.304688 233.0625 L 387.304688 238.277344 L 356.664062 238.277344 Z M 356.664062 221.542969 L 394.261719 221.542969 L 394.261719 226.765625 L 356.664062 226.765625 Z M 356.664062 210.03125 L 408.820312 210.03125 L 408.820312 215.242188 L 356.664062 215.242188 Z M 354.714844 278.003906 L 361.925781 278.003906 L 361.925781 308.292969 L 392.21875 278.003906 L 417.730469 278.003906 L 417.730469 196.78125 L 354.714844 196.78125 C 348.558594 196.78125 343.570312 201.769531 343.570312 207.917969 L 343.570312 266.863281 C 343.570312 273.019531 348.558594 278.003906 354.714844 278.003906 " fill-opacity="1" fill-rule="nonzero"/></g></g><g clip-path="url(#29b62a9b8b)"><g clip-path="url(#0c9b1b3334)"><path fill="#e9f6ff" d="M 420.085938 278.003906 L 420.085938 241.320312 C 420.085938 231.964844 427.691406 224.351562 437.046875 224.351562 L 474.058594 224.351562 L 474.058594 207.917969 C 474.058594 201.769531 469.078125 196.78125 462.898438 196.78125 L 417.730469 196.78125 L 417.730469 278.003906 L 420.085938 278.003906 " fill-opacity="1" fill-rule="nonzero"/></g></g><g clip-path="url(#7589e6ec71)"><g clip-path="url(#53955afbba)"><path fill="#264d55" d="M 455.398438 287.875 C 455.398438 297.589844 440.695312 297.574219 440.695312 287.875 C 440.695312 278.164062 455.398438 278.171875 455.398438 287.875 Z M 479.039062 287.875 C 479.039062 297.589844 464.398438 297.574219 464.398438 287.875 C 464.398438 278.164062 479.039062 278.171875 479.039062 287.875 Z M 425.902344 241.320312 L 425.902344 300.257812 C 425.902344 306.414062 430.894531 311.398438 437.046875 311.398438 L 491.160156 311.398438 L 491.160156 293.890625 C 489.359375 292.714844 488.101562 290.722656 488.101562 287.875 C 488.101562 285.019531 489.359375 283.03125 491.160156 281.855469 L 491.160156 230.179688 L 437.046875 230.179688 C 430.894531 230.179688 425.902344 235.164062 425.902344 241.320312 " fill-opacity="1" fill-rule="nonzero"/></g></g><g clip-path="url(#e2bd208992)"><g clip-path="url(#ddd5533cad)"><path fill="#1e4046" d="M 502.738281 287.875 C 502.738281 294.730469 495.480469 296.71875 491.160156 293.890625 L 491.160156 311.398438 L 507.78125 311.398438 L 538.019531 341.6875 L 538.019531 311.398438 L 545.28125 311.398438 C 551.398438 311.398438 556.378906 306.414062 556.378906 300.257812 L 556.378906 241.320312 C 556.378906 235.164062 551.398438 230.179688 545.28125 230.179688 L 491.160156 230.179688 L 491.160156 281.855469 C 495.480469 279.03125 502.738281 281.023438 502.738281 287.875 " fill-opacity="1" fill-rule="nonzero"/></g></g></svg>