<svg xmlns="http://www.w3.org/2000/svg" xmlns:xlink="http://www.w3.org/1999/xlink" width="2000" zoomAndPan="magnify" viewBox="0 0 1500 562.499983" height="750" preserveAspectRatio="xMidYMid meet" version="1.0"><defs><g/><clipPath id="d51676e6f3"><path d="M 466.203125 0 L 1443.335938 0 L 1443.335938 456.011719 L 466.203125 456.011719 Z M 466.203125 0 " clip-rule="nonzero"/></clipPath><clipPath id="855bc34610"><path d="M 62.117188 149.890625 L 308 149.890625 L 308 394 L 62.117188 394 Z M 62.117188 149.890625 " clip-rule="nonzero"/></clipPath><clipPath id="de7d3e434a"><path d="M 175.132812 392.773438 C 167.429688 391.90625 158.355469 390.125 157.902344 389.390625 C 157.625 388.945312 158.878906 388.296875 160.6875 387.945312 C 165.011719 387.109375 165.085938 387.109375 171.695312 387.914062 C 175.457031 388.375 177.625 388.230469 178.082031 387.496094 C 178.566406 386.710938 179.960938 386.855469 182.792969 387.988281 C 186.402344 389.429688 189.222656 389.496094 193.898438 388.253906 C 194.789062 388.019531 195.296875 388.425781 195.125 389.238281 C 194.917969 390.21875 195.371094 390.402344 196.648438 389.863281 C 197.648438 389.445312 199.835938 389.171875 201.507812 389.261719 L 204.550781 389.425781 L 199.660156 385.988281 L 201.984375 385.128906 C 203.464844 384.582031 204.816406 384.695312 205.71875 385.445312 C 207.535156 386.949219 220.015625 385.875 225.027344 383.785156 C 227.015625 382.957031 230.066406 382.261719 231.8125 382.242188 C 233.554688 382.222656 236.125 381.554688 237.519531 380.757812 C 240.339844 379.148438 242.59375 378.824219 242.59375 380.027344 C 242.59375 380.9375 232.648438 385.363281 223.824219 388.375 C 211.847656 392.464844 189.929688 394.445312 175.132812 392.773438 Z M 202.230469 376.515625 C 198.585938 375.019531 196.546875 371.40625 198.199219 369.359375 C 198.917969 368.464844 198.808594 368.089844 197.828125 368.078125 C 196.847656 368.066406 196.78125 367.839844 197.605469 367.316406 C 198.246094 366.910156 199.082031 364.292969 199.460938 361.507812 C 199.839844 358.722656 200.746094 354.390625 201.472656 351.882812 C 202.203125 349.375 202.789062 346.414062 202.78125 345.296875 C 202.765625 343.152344 203.65625 336.394531 204.691406 330.78125 C 205.523438 326.28125 203.519531 322.792969 198.703125 320.339844 C 196.5625 319.25 194.566406 317.582031 194.261719 316.632812 C 192.753906 311.914062 189.246094 304.847656 186.453125 300.898438 C 183.722656 297.046875 185.585938 288.8125 190.097656 284.789062 C 192.816406 282.363281 193.28125 281.300781 193.011719 278.140625 C 192.832031 276.074219 192.316406 274.152344 191.867188 273.875 C 191.417969 273.59375 191.007812 272.910156 190.953125 272.351562 C 190.898438 271.796875 190.285156 271.339844 189.585938 271.339844 C 188.890625 271.339844 188.429688 271.898438 188.5625 272.578125 C 188.882812 274.1875 182.800781 273.0625 180.898438 271.164062 C 180.15625 270.425781 179.128906 269.820312 178.609375 269.820312 C 178.09375 269.820312 177.667969 269.214844 177.667969 268.476562 C 177.667969 266.304688 173.382812 263.003906 169.550781 262.222656 C 167.601562 261.824219 165 260.578125 163.777344 259.457031 C 162.289062 258.09375 159.859375 257.328125 156.410156 257.144531 C 151.125 256.859375 145.691406 254.273438 146.753906 252.554688 C 147.085938 252.019531 145.988281 251.585938 144.3125 251.585938 C 140.511719 251.585938 139.339844 249.886719 141.808594 247.957031 C 142.839844 247.148438 143.1875 246.609375 142.578125 246.757812 C 141.660156 246.980469 137.757812 243.027344 134.851562 238.921875 C 134.460938 238.363281 132.75 236.3125 131.054688 234.359375 L 127.972656 230.816406 L 129.5625 234.109375 C 130.4375 235.917969 131.5625 237.402344 132.0625 237.402344 C 132.558594 237.402344 132.722656 238.039062 132.425781 238.816406 C 132.125 239.597656 132.367188 240.535156 132.964844 240.902344 C 133.558594 241.273438 134.046875 242.300781 134.046875 243.191406 C 134.046875 244.597656 133.785156 244.570312 132.019531 242.972656 C 130.902344 241.964844 129.988281 240.511719 129.988281 239.746094 C 129.988281 238.976562 129.292969 238.082031 128.4375 237.753906 C 127.488281 237.390625 127.109375 236.453125 127.464844 235.339844 C 127.78125 234.339844 127.566406 233.226562 126.988281 232.867188 C 126.40625 232.507812 125.933594 231.398438 125.933594 230.398438 C 125.933594 229.398438 124.832031 227.394531 123.488281 225.945312 C 119.757812 221.925781 118.734375 215.4375 120.960938 209.957031 C 123.003906 204.921875 123.402344 200.929688 121.855469 200.929688 C 121.269531 200.929688 121.085938 199.875 121.429688 198.507812 C 121.765625 197.171875 121.542969 195.777344 120.941406 195.40625 C 120.335938 195.03125 119.84375 195.433594 119.84375 196.308594 C 119.84375 197.179688 119.371094 197.890625 118.792969 197.890625 C 118.214844 197.890625 117.828125 196.863281 117.9375 195.609375 C 118.308594 191.285156 117.808594 189.785156 116 189.785156 C 113.699219 189.785156 106.542969 193.394531 105.496094 195.085938 C 105.058594 195.792969 104.34375 196.375 103.90625 196.382812 C 103.464844 196.386719 100.996094 197.851562 98.417969 199.632812 C 95.839844 201.417969 93.460938 202.605469 93.132812 202.28125 C 92.804688 201.953125 94 200.699219 95.785156 199.496094 C 97.574219 198.296875 99.191406 196.414062 99.382812 195.320312 C 99.574219 194.226562 101.402344 191.847656 103.445312 190.039062 C 105.492188 188.230469 106.304688 187.050781 105.25 187.414062 C 102.335938 188.429688 103.714844 185.496094 106.875 183.957031 C 108.308594 183.257812 109.753906 181.660156 110.089844 180.410156 C 110.890625 177.398438 117.898438 172.570312 121.527344 172.527344 C 123.113281 172.507812 127.148438 171.910156 130.496094 171.199219 C 133.84375 170.488281 138.265625 170.019531 140.320312 170.160156 C 143.390625 170.367188 144.03125 170.082031 143.917969 168.566406 C 143.804688 167.070312 143.441406 166.933594 142 167.832031 C 141.023438 168.441406 139.910156 168.625 139.527344 168.242188 C 138.558594 167.273438 141.070312 164.457031 142.902344 164.457031 C 143.785156 164.457031 144.179688 163.863281 143.855469 163.019531 C 143.492188 162.074219 144.582031 161.023438 147.042969 159.9375 C 149.101562 159.035156 149.871094 158.5 148.757812 158.753906 C 146.078125 159.363281 140.074219 161.464844 137.863281 162.566406 C 136.894531 163.046875 135.183594 163.441406 134.0625 163.441406 C 132.9375 163.441406 132.019531 163.84375 132.019531 164.335938 C 132.019531 165.214844 124.789062 168.113281 119.84375 169.214844 C 117.648438 169.703125 117.785156 169.453125 120.859375 167.34375 C 131.84375 159.800781 141.609375 155.648438 156.660156 152.121094 C 164.375 150.3125 169.179688 149.925781 184.261719 149.898438 C 202.457031 149.867188 216.109375 151.5 213.117188 153.347656 C 212.363281 153.8125 211.367188 153.953125 210.898438 153.667969 C 210.433594 153.378906 205.308594 153.003906 199.515625 152.835938 C 190.671875 152.582031 189.070312 152.765625 189.542969 153.992188 C 189.851562 154.796875 190.675781 155.234375 191.375 154.96875 C 193.117188 154.300781 201.308594 158.570312 206.609375 162.90625 C 209.011719 164.871094 211.363281 166.480469 211.832031 166.480469 C 212.300781 166.480469 213.277344 167.429688 214.003906 168.585938 C 215.15625 170.433594 215.074219 170.757812 213.332031 171.210938 C 210.722656 171.894531 210.007812 176.011719 211.683594 180.75 C 212.417969 182.832031 212.796875 184.753906 212.527344 185.023438 C 211.601562 185.953125 205.605469 182.308594 201.699219 178.445312 C 199.546875 176.316406 197.296875 174.875 196.699219 175.242188 C 196.101562 175.613281 195.90625 175.441406 196.269531 174.859375 C 196.625 174.277344 196.21875 173.222656 195.363281 172.511719 C 194.507812 171.804688 194.042969 170.613281 194.328125 169.867188 C 194.621094 169.101562 194.183594 168.507812 193.328125 168.507812 C 192.492188 168.507812 191.542969 167.824219 191.222656 166.988281 C 190.902344 166.152344 190.152344 165.46875 189.558594 165.46875 C 188.964844 165.46875 187.738281 164.800781 186.832031 163.980469 C 185.621094 162.882812 184.398438 162.730469 182.1875 163.386719 C 180.539062 163.878906 179.796875 164.320312 180.539062 164.367188 C 182.726562 164.511719 189.988281 172.449219 189.671875 174.355469 C 189.515625 175.320312 189.6875 176.585938 190.054688 177.167969 C 190.421875 177.753906 190.308594 178.890625 189.804688 179.703125 C 189.023438 180.953125 188.234375 180.832031 184.546875 178.890625 C 182.15625 177.636719 179.433594 176.609375 178.488281 176.609375 C 176.191406 176.613281 175.125 174.71875 177.019531 173.996094 C 177.847656 173.675781 178.785156 172.738281 179.105469 171.910156 C 179.539062 170.777344 179.179688 170.5625 177.664062 171.042969 C 176.171875 171.515625 175.640625 171.222656 175.640625 169.929688 C 175.640625 168.960938 175.339844 168.472656 174.972656 168.835938 C 174.605469 169.203125 173.804688 169.089844 173.195312 168.585938 C 172.433594 167.953125 172.09375 168.761719 172.101562 171.207031 C 172.109375 173.519531 172.730469 175.089844 173.898438 175.742188 C 174.878906 176.289062 175.46875 177.082031 175.207031 177.503906 C 174.945312 177.929688 175.964844 178.09375 177.46875 177.875 C 179.3125 177.609375 181.691406 178.480469 184.769531 180.558594 C 188.289062 182.933594 189.410156 183.296875 189.664062 182.152344 C 190.164062 179.886719 191.113281 180.3125 195.433594 184.730469 C 197.617188 186.964844 199.851562 188.648438 200.394531 188.464844 C 201.539062 188.085938 204.1875 190.550781 206.628906 194.277344 C 208.335938 196.878906 210.816406 197.992188 209.605469 195.609375 C 209.25 194.914062 209.910156 195.417969 211.066406 196.734375 C 212.226562 198.050781 213.167969 199.875 213.15625 200.789062 C 213.144531 202.230469 213.011719 202.25 212.160156 200.929688 C 211.285156 199.578125 211.164062 199.578125 211.078125 200.929688 C 211.015625 201.972656 210.824219 202.050781 210.472656 201.183594 C 209.65625 199.15625 205.257812 199.597656 205.425781 201.6875 C 205.511719 202.808594 204.726562 203.578125 203.28125 203.785156 C 202.027344 203.964844 201 204.59375 201 205.183594 C 201 205.855469 199.472656 206.054688 196.941406 205.71875 C 193.628906 205.273438 192.878906 205.480469 192.863281 206.851562 C 192.851562 207.773438 191.945312 209.667969 190.855469 211.058594 C 189.765625 212.453125 188.863281 214.21875 188.847656 214.984375 C 188.832031 216.160156 188.558594 216.160156 187.070312 214.984375 C 185.4375 213.691406 185.441406 213.796875 187.113281 216.40625 C 189.09375 219.507812 188.753906 220.53125 184.558594 224.054688 C 181.699219 226.460938 180.765625 230.609375 182.804688 231.867188 C 184.292969 232.789062 185.929688 237.359375 185.195312 238.546875 C 184.3125 239.96875 181.644531 237.453125 180.089844 233.738281 C 179.128906 231.441406 177.894531 230.40625 175.554688 229.9375 C 170.570312 228.941406 168.539062 229.167969 168.539062 230.722656 C 168.539062 231.636719 167.828125 231.960938 166.550781 231.625 C 164.253906 231.027344 158.082031 234.539062 155.855469 237.710938 C 153.902344 240.496094 153.929688 243.835938 155.9375 248.0625 C 157.804688 251.992188 159.316406 252.769531 163.488281 251.933594 C 165.578125 251.515625 166.726562 250.570312 167.140625 248.921875 C 167.472656 247.601562 168.265625 246.484375 168.902344 246.441406 C 169.539062 246.398438 170.855469 246.210938 171.832031 246.027344 C 174.476562 245.519531 174.902344 247.097656 173.070312 250.636719 C 172.167969 252.375 171.691406 254.058594 172.003906 254.371094 C 172.320312 254.6875 172.054688 255.574219 171.414062 256.34375 C 170.449219 257.503906 170.910156 257.671875 174.078125 257.324219 C 180.359375 256.632812 181.601562 257.355469 181.542969 261.664062 C 181.441406 268.933594 183.808594 271.960938 187.886719 269.78125 C 189.230469 269.0625 190.453125 269.0625 191.804688 269.785156 C 194.414062 271.179688 194.535156 271.15625 196.75 268.777344 C 197.804688 267.648438 199.535156 266.546875 200.59375 266.332031 C 201.65625 266.117188 203.394531 265.597656 204.464844 265.175781 C 205.824219 264.640625 206.1875 264.765625 205.671875 265.597656 C 205.269531 266.25 205.421875 266.78125 206.011719 266.78125 C 206.601562 266.78125 207.085938 266.351562 207.085938 265.828125 C 207.085938 265.304688 208.308594 265.507812 209.804688 266.285156 C 211.296875 267.058594 212.964844 267.414062 213.511719 267.078125 C 214.054688 266.742188 214.207031 266.941406 213.847656 267.523438 C 213.488281 268.101562 214.21875 268.851562 215.46875 269.183594 C 218.660156 270.039062 219.46875 269.964844 218.796875 268.878906 C 218.476562 268.359375 218.746094 267.605469 219.398438 267.203125 C 220.140625 266.742188 220.316406 266.90625 219.863281 267.636719 C 219.191406 268.726562 220.605469 269.207031 224.078125 269.078125 C 224.777344 269.054688 225.355469 269.78125 225.363281 270.695312 C 225.390625 273.019531 232.304688 278.472656 236.199219 279.242188 C 240.121094 280.015625 243.605469 282.808594 243.605469 285.183594 C 243.605469 286.140625 244.09375 287.222656 244.6875 287.589844 C 245.394531 288.027344 245.140625 289.011719 243.953125 290.4375 C 242.957031 291.636719 242.78125 292.050781 243.570312 291.363281 C 244.734375 290.34375 246.21875 290.773438 251.441406 293.640625 C 254.980469 295.585938 258.703125 297.175781 259.714844 297.175781 C 260.726562 297.175781 262.351562 298.054688 263.324219 299.132812 C 264.300781 300.210938 265.742188 300.84375 266.527344 300.542969 C 267.558594 300.148438 267.953125 300.847656 267.953125 303.0625 C 267.953125 305.222656 266.621094 307.6875 263.4375 311.410156 C 260.957031 314.3125 258.617188 318.113281 258.238281 319.851562 C 257.195312 324.644531 252.644531 330.429688 248.933594 331.679688 C 247.117188 332.292969 245.636719 333.429688 245.636719 334.210938 C 245.636719 334.988281 244.378906 336.433594 242.84375 337.417969 C 241.3125 338.402344 239.230469 340.226562 238.226562 341.46875 C 233.246094 347.625 227.816406 351.941406 225.558594 351.542969 C 223.804688 351.238281 223.308594 351.5625 223.527344 352.875 C 223.84375 354.738281 221.660156 357.960938 220.082031 357.960938 C 219.554688 357.960938 216.644531 360.101562 213.613281 362.714844 C 209.949219 365.871094 208.507812 367.71875 209.3125 368.21875 C 210.167969 368.742188 209.789062 369.589844 208.046875 371.0625 C 205.71875 373.027344 205.675781 373.246094 207.339844 374.535156 C 208.316406 375.296875 209.113281 376.152344 209.113281 376.445312 C 209.113281 377.730469 205.28125 377.769531 202.226562 376.515625 Z M 198.148438 202.261719 C 197.414062 201.96875 196.539062 202.003906 196.203125 202.34375 C 195.867188 202.679688 196.464844 202.917969 197.535156 202.875 C 198.714844 202.824219 198.957031 202.585938 198.148438 202.261719 Z M 205.023438 197.667969 C 205.042969 197.265625 204.375 197.203125 203.535156 197.523438 C 202.648438 197.863281 202.007812 197.535156 202 196.730469 C 201.988281 195.609375 201.816406 195.621094 201.078125 196.78125 C 200.53125 197.648438 200.609375 199.164062 201.285156 200.636719 L 202.390625 203.066406 L 203.6875 200.730469 C 204.402344 199.445312 205.003906 198.066406 205.023438 197.667969 Z M 172.597656 200.515625 C 172.597656 200.3125 171.550781 199.464844 170.277344 198.628906 C 168.199219 197.269531 167.742188 197.289062 165.863281 198.808594 C 163.828125 200.453125 163.890625 200.507812 168.183594 200.691406 C 170.609375 200.796875 172.597656 200.71875 172.597656 200.515625 Z M 170.15625 195.300781 C 168.316406 193.957031 168.3125 193.859375 170.058594 193.191406 C 171.066406 192.804688 173.605469 192.945312 175.699219 193.503906 C 178.929688 194.363281 179.417969 194.285156 178.921875 192.996094 C 178.542969 192.015625 178.753906 191.734375 179.515625 192.207031 C 180.164062 192.605469 181.5 192.464844 182.480469 191.894531 C 184.097656 190.953125 184.0625 190.855469 182.105469 190.828125 C 180.453125 190.804688 179.949219 190.164062 179.949219 188.089844 C 179.949219 186.601562 179.09375 184.757812 178.050781 183.992188 C 177.003906 183.230469 176.261719 182.398438 176.398438 182.140625 C 177.101562 180.859375 176.488281 179.652344 175.132812 179.652344 C 174.296875 179.652344 173.609375 179.160156 173.609375 178.554688 C 173.609375 177.953125 173.039062 177.660156 172.34375 177.910156 C 171.644531 178.160156 170.265625 177.949219 169.273438 177.441406 C 167.878906 176.722656 166.894531 177.207031 164.871094 179.605469 C 163.4375 181.304688 161.898438 182.472656 161.453125 182.195312 C 161.003906 181.917969 160.375 182.367188 160.058594 183.191406 C 159.742188 184.019531 159.808594 184.59375 160.207031 184.46875 C 160.605469 184.347656 162.207031 185.53125 163.765625 187.105469 C 165.539062 188.894531 167.207031 189.734375 168.21875 189.34375 C 170.3125 188.542969 173.816406 189.648438 173.058594 190.871094 C 172.738281 191.386719 171.792969 191.808594 170.953125 191.808594 C 170.0625 191.808594 169.734375 191.328125 170.15625 190.640625 C 170.609375 189.910156 170.433594 189.746094 169.691406 190.203125 C 169.039062 190.605469 168.769531 191.363281 169.089844 191.878906 C 169.410156 192.398438 169.1875 192.824219 168.597656 192.824219 C 168.007812 192.824219 167.523438 192.367188 167.523438 191.808594 C 167.523438 190.027344 163.722656 190.726562 163.230469 192.601562 C 162.671875 194.730469 165.035156 197.425781 166.039062 195.804688 C 166.488281 195.074219 167.082031 195.078125 167.960938 195.804688 C 168.660156 196.382812 169.53125 196.558594 169.898438 196.191406 C 170.265625 195.824219 170.566406 196.132812 170.566406 196.875 C 170.566406 197.617188 170.910156 197.886719 171.328125 197.46875 C 171.746094 197.050781 171.21875 196.078125 170.15625 195.300781 Z M 177.667969 189.84375 C 177.667969 189.320312 178.121094 188.613281 178.671875 188.269531 C 179.246094 187.917969 179.417969 188.324219 179.070312 189.226562 C 178.394531 190.980469 177.667969 191.300781 177.667969 189.84375 Z M 164.929688 187.285156 C 163.84375 186.464844 163.492188 185.78125 164.144531 185.761719 C 166.070312 185.710938 168.539062 186.890625 168.539062 187.867188 C 168.539062 189.195312 167.164062 188.972656 164.929688 187.285156 Z M 198.972656 197.164062 C 198.972656 197.046875 198.105469 196.484375 197.050781 195.917969 C 195.679688 195.1875 194.828125 195.25 194.09375 196.136719 C 193.3125 197.074219 193.789062 197.382812 196.015625 197.382812 C 197.640625 197.382812 198.972656 197.285156 198.972656 197.164062 Z M 183.753906 194.847656 C 183.753906 194.292969 183.042969 193.835938 182.171875 193.835938 C 181.304688 193.835938 180.875 194.292969 181.21875 194.847656 C 181.5625 195.40625 182.273438 195.863281 182.800781 195.863281 C 183.324219 195.863281 183.753906 195.40625 183.753906 194.847656 Z M 187.304688 194.847656 C 186.960938 194.292969 186.476562 193.835938 186.230469 193.835938 C 185.984375 193.835938 185.785156 194.292969 185.785156 194.847656 C 185.785156 195.40625 186.265625 195.863281 186.859375 195.863281 C 187.449219 195.863281 187.648438 195.40625 187.304688 194.847656 Z M 154.335938 189.75 C 153.050781 188.890625 153.246094 188.355469 155.605469 186.269531 C 157.140625 184.910156 158.394531 183.238281 158.394531 182.546875 C 158.394531 181.855469 157.746094 182.175781 156.957031 183.257812 C 156.164062 184.335938 155.175781 184.878906 154.757812 184.464844 C 154.339844 184.046875 154.53125 183.707031 155.183594 183.707031 C 155.832031 183.707031 156.367188 183.019531 156.367188 182.1875 C 156.367188 180.21875 154.445312 180.214844 153.691406 182.179688 C 153.371094 183.011719 152.691406 183.4375 152.183594 183.121094 C 151.675781 182.808594 151.523438 182.128906 151.84375 181.609375 C 152.164062 181.089844 151.972656 180.664062 151.414062 180.664062 C 150.855469 180.664062 150.113281 181.128906 149.761719 181.695312 C 149.410156 182.261719 148.648438 182.433594 148.070312 182.074219 C 147.394531 181.65625 147.507812 181.117188 148.394531 180.554688 C 149.515625 179.84375 149.488281 179.6875 148.25 179.703125 C 146.324219 179.730469 141.191406 182.609375 142.984375 182.65625 C 143.714844 182.675781 144.054688 183.105469 143.742188 183.609375 C 143.429688 184.117188 144.203125 184.316406 145.457031 184.054688 L 147.742188 183.578125 L 145.40625 184.972656 L 143.066406 186.367188 L 145.882812 187.652344 C 147.917969 188.578125 148.808594 188.617188 149.082031 187.796875 C 149.355469 186.976562 149.871094 187 150.933594 187.878906 C 152.117188 188.863281 152.148438 189.261719 151.085938 189.933594 C 150.230469 190.476562 150.832031 190.765625 152.816406 190.765625 C 155.183594 190.765625 155.519531 190.542969 154.335938 189.75 Z M 150.492188 186.132812 C 149.042969 184.566406 150.023438 184.265625 152.164062 185.621094 C 152.917969 186.097656 153.148438 186.726562 152.667969 187.019531 C 152.191406 187.308594 151.210938 186.910156 150.492188 186.132812 Z M 190.3125 185.882812 C 189.742188 185.28125 187.8125 186.804688 187.8125 187.859375 C 187.8125 188.402344 188.453125 188.261719 189.230469 187.542969 C 190.011719 186.824219 190.5 186.078125 190.3125 185.882812 Z M 161.4375 187.359375 C 161.4375 187.140625 160.730469 186.691406 159.863281 186.359375 C 158.960938 186.011719 158.554688 186.183594 158.910156 186.757812 C 159.503906 187.71875 161.4375 188.179688 161.4375 187.359375 Z M 146.003906 177.078125 C 146.878906 176.316406 146.378906 176.046875 144.1875 176.097656 C 142.519531 176.140625 140.355469 177.054688 139.378906 178.132812 C 137.636719 180.050781 137.644531 180.054688 139.78125 178.285156 C 142.050781 176.410156 143.898438 177.453125 142.65625 179.90625 C 142.300781 180.601562 142.636719 180.488281 143.402344 179.652344 C 144.167969 178.816406 145.335938 177.660156 146.003906 177.078125 Z M 154.335938 178.578125 C 154.335938 177.988281 153.878906 177.789062 153.324219 178.132812 C 152.765625 178.476562 152.308594 178.960938 152.308594 179.207031 C 152.308594 179.453125 152.765625 179.652344 153.324219 179.652344 C 153.878906 179.652344 154.335938 179.171875 154.335938 178.578125 Z M 148.992188 170.847656 C 148.003906 170.589844 146.636719 170.605469 145.949219 170.882812 C 145.261719 171.160156 146.070312 171.371094 147.742188 171.351562 C 149.417969 171.328125 149.976562 171.101562 148.992188 170.847656 Z M 156.898438 169.71875 C 156.585938 169.40625 155.769531 169.714844 155.082031 170.410156 C 154.085938 171.410156 154.203125 171.527344 155.648438 170.976562 C 156.648438 170.59375 157.210938 170.027344 156.898438 169.71875 Z M 168.539062 168.449219 C 168.539062 167.925781 168.160156 167.496094 167.695312 167.496094 C 167.230469 167.496094 166.847656 168.160156 166.847656 168.96875 C 166.847656 169.78125 167.230469 170.210938 167.695312 169.925781 C 168.160156 169.636719 168.539062 168.972656 168.539062 168.449219 Z M 164.46875 166.460938 C 163.867188 165.335938 163.710938 163.855469 164.121094 163.167969 C 164.59375 162.386719 164.226562 162.445312 163.128906 163.335938 C 161.496094 164.65625 161.492188 164.863281 163.089844 166.628906 C 165.3125 169.078125 165.839844 169.015625 164.46875 166.460938 Z M 159.324219 167.132812 C 159.09375 166.929688 157.53125 166.460938 155.859375 166.085938 C 153.636719 165.589844 153.226562 165.683594 154.335938 166.4375 C 155.707031 167.363281 160.34375 168.007812 159.324219 167.132812 Z M 150.277344 164.363281 C 151.632812 163.40625 151.632812 163.339844 150.277344 163.734375 C 149.441406 163.980469 147.84375 163.714844 146.726562 163.140625 C 144.914062 162.207031 144.847656 162.277344 146.09375 163.785156 C 147.714844 165.746094 148.222656 165.816406 150.277344 164.363281 Z M 155.351562 162.96875 C 155.351562 162.027344 154.761719 161.707031 153.746094 162.097656 C 152.449219 162.589844 152.402344 162.878906 153.492188 163.566406 C 155.292969 164.707031 155.351562 164.691406 155.351562 162.96875 Z M 182.132812 162.429688 C 186.117188 162.429688 182.039062 160.207031 177.640625 159.984375 C 174.992188 159.847656 172.875 159.113281 172.101562 158.058594 C 170.292969 155.589844 169.554688 155.949219 169.554688 159.296875 C 169.554688 161.710938 169.90625 162.148438 171.519531 161.726562 C 172.601562 161.445312 174.523438 161.9375 175.789062 162.824219 C 177.3125 163.890625 178.433594 164.097656 179.097656 163.433594 C 179.652344 162.882812 181.015625 162.429688 182.132812 162.429688 Z M 159.410156 162.429688 C 159.410156 161.871094 158.925781 161.417969 158.335938 161.417969 C 157.742188 161.417969 157.542969 161.871094 157.886719 162.429688 C 158.230469 162.988281 158.714844 163.441406 158.960938 163.441406 C 159.207031 163.441406 159.410156 162.988281 159.410156 162.429688 Z M 186.988281 152.621094 C 186.257812 152.328125 185.382812 152.363281 185.046875 152.699219 C 184.707031 153.035156 185.308594 153.277344 186.375 153.230469 C 187.558594 153.183594 187.796875 152.941406 186.988281 152.621094 Z M 213.878906 374.539062 C 212.796875 373.457031 214.179688 372.148438 216.402344 372.148438 C 218.148438 372.148438 218.285156 372.398438 217.230469 373.667969 C 215.867188 375.308594 214.898438 375.558594 213.878906 374.539062 Z M 105.136719 349.894531 C 102.347656 346.648438 99.882812 344.164062 99.65625 344.378906 C 99.433594 344.589844 98.164062 343.300781 96.84375 341.507812 C 94.382812 338.179688 90.960938 335.773438 88.59375 335.710938 C 87.863281 335.691406 87.535156 336.113281 87.867188 336.648438 C 88.226562 337.226562 87.242188 337.191406 85.421875 336.558594 C 83.046875 335.730469 81.675781 334.015625 79.183594 328.75 C 74.042969 317.894531 73.980469 317.625 76.335938 316.367188 C 77.519531 315.734375 78.175781 314.636719 77.859375 313.816406 C 77.554688 313.023438 77.746094 312.375 78.289062 312.375 C 78.828125 312.375 79.269531 311.660156 79.269531 310.789062 C 79.269531 309.730469 80.023438 309.3125 81.550781 309.523438 C 83.136719 309.742188 83.839844 309.320312 83.847656 308.140625 C 83.855469 307.203125 84.199219 306.101562 84.609375 305.691406 C 85.019531 305.28125 85.355469 305.4375 85.355469 306.046875 C 85.355469 306.652344 86.726562 307.445312 88.398438 307.8125 C 90.074219 308.179688 91.445312 309.054688 91.445312 309.757812 C 91.445312 310.460938 92.699219 311.664062 94.234375 312.429688 C 95.765625 313.199219 97.273438 313.964844 97.582031 314.132812 C 97.890625 314.296875 97.953125 312.832031 97.722656 310.871094 C 97.214844 306.503906 99.128906 306.078125 100.066406 310.347656 C 100.433594 312.019531 101.121094 313.386719 101.589844 313.386719 C 102.058594 313.386719 103.003906 315.097656 103.6875 317.1875 C 104.371094 319.273438 105.890625 321.96875 107.0625 323.167969 C 110.121094 326.296875 111.730469 328.390625 111.730469 329.21875 C 111.730469 329.617188 112.453125 330.738281 113.332031 331.707031 C 115.464844 334.0625 115.972656 341.660156 114.164062 344.234375 C 113.382812 345.347656 112.746094 347.058594 112.746094 348.039062 C 112.746094 349.105469 111.707031 350.082031 110.160156 350.46875 C 107.605469 351.109375 107.597656 351.132812 109.652344 352.570312 C 111.683594 353.992188 112.488281 356.007812 110.972656 355.867188 C 110.554688 355.832031 107.929688 353.140625 105.136719 349.894531 Z M 113.097656 334.113281 C 112.765625 333.25 112.277344 332.765625 112.011719 333.03125 C 111.746094 333.296875 111.828125 334 112.199219 334.59375 C 113.199219 336.210938 113.78125 335.898438 113.097656 334.113281 Z M 122.441406 354.003906 C 121.835938 353.027344 129.617188 348.855469 132.085938 348.832031 C 133.304688 348.816406 133.296875 348.65625 132.019531 347.832031 C 130.820312 347.058594 130.796875 346.847656 131.894531 346.835938 C 132.902344 346.824219 133.121094 345.976562 132.679688 343.78125 C 132.335938 342.066406 132.503906 340.742188 133.058594 340.742188 C 133.605469 340.742188 134.050781 341.195312 134.050781 341.753906 C 134.050781 342.3125 135.003906 343.71875 136.171875 344.886719 L 138.292969 347.003906 L 135.917969 348.679688 C 134.609375 349.597656 133.3125 350.355469 133.035156 350.359375 C 132.757812 350.363281 131.089844 351.394531 129.328125 352.648438 C 125.964844 355.042969 123.394531 355.546875 122.441406 354.003906 Z M 132.222656 329.394531 C 131.554688 328.726562 131.007812 327.8125 131.007812 327.367188 C 131.007812 325.875 132.535156 326.535156 133.8125 328.582031 C 135.199219 330.800781 134.164062 331.332031 132.222656 329.394531 Z M 291.789062 328.332031 C 292.195312 327.078125 292.945312 321.035156 293.453125 314.90625 C 294 308.308594 295.027344 302.605469 295.964844 300.921875 C 297.300781 298.53125 297.359375 297.296875 296.351562 293.101562 C 295.6875 290.328125 295.460938 286.304688 295.847656 284.035156 C 296.46875 280.351562 296.328125 279.953125 294.417969 279.953125 C 293.210938 279.953125 292.300781 279.300781 292.300781 278.433594 C 292.300781 276.519531 290.351562 276.535156 287.789062 278.472656 C 286.703125 279.292969 285.007812 279.707031 284.023438 279.394531 C 283.039062 279.082031 281.351562 279.300781 280.273438 279.875 C 277.730469 281.234375 273.359375 277.960938 271.371094 273.203125 C 270.59375 271.347656 269.394531 269.941406 268.703125 270.078125 C 267.804688 270.257812 267.445312 268.40625 267.445312 263.585938 C 267.445312 259.878906 267.804688 257.066406 268.246094 257.339844 C 268.683594 257.609375 268.949219 256.3125 268.832031 254.457031 C 268.714844 252.597656 269.488281 249.484375 270.558594 247.535156 C 271.625 245.582031 272.5 243.304688 272.507812 242.46875 C 272.515625 241.632812 272.976562 241.011719 273.535156 241.089844 C 274.929688 241.285156 280.378906 237.316406 279.675781 236.613281 C 279.363281 236.300781 279.863281 235.210938 280.789062 234.191406 C 281.714844 233.171875 282.117188 232.335938 281.683594 232.335938 C 281.25 232.335938 281.519531 231.539062 282.285156 230.5625 C 283.546875 228.957031 283.511719 228.921875 281.902344 230.179688 C 280.925781 230.945312 280.070312 231.289062 280 230.941406 C 279.929688 230.59375 279.804688 229.742188 279.722656 229.042969 C 279.640625 228.347656 278.71875 227.925781 277.675781 228.109375 C 275.996094 228.402344 275.863281 228 276.523438 224.5625 C 276.929688 222.429688 277.226562 219.613281 277.175781 218.304688 C 277.042969 214.59375 277.96875 213.980469 281.199219 215.648438 C 283.980469 217.085938 284.183594 217.0625 284.183594 215.335938 C 284.183594 214.316406 283.042969 211.9375 281.648438 210.046875 C 278.628906 205.960938 278.617188 205.902344 280.886719 206.617188 C 282.496094 207.121094 282.507812 207.046875 281.042969 205.824219 C 279.28125 204.363281 279.171875 204.082031 278.996094 200.675781 C 278.90625 198.960938 278.761719 198.835938 278.414062 200.167969 C 278.160156 201.144531 277.351562 201.941406 276.621094 201.941406 C 274.757812 201.941406 273.859375 197.894531 275.578125 197.238281 C 276.335938 196.945312 276.707031 196.058594 276.398438 195.261719 C 275.996094 194.210938 276.339844 194.003906 277.65625 194.507812 C 279.074219 195.054688 279.320312 194.824219 278.792969 193.453125 C 278.371094 192.351562 278.519531 191.949219 279.195312 192.367188 C 279.785156 192.730469 280.007812 193.699219 279.695312 194.515625 C 279.382812 195.332031 280.25 198.015625 281.628906 200.480469 C 283.003906 202.941406 283.902344 205.761719 283.621094 206.742188 C 283.328125 207.757812 283.613281 207.574219 284.277344 206.316406 C 285.246094 204.488281 285.054688 203.46875 283.179688 200.4375 C 281.933594 198.421875 281.109375 196.574219 281.347656 196.332031 C 281.945312 195.734375 287.863281 204.214844 288.710938 206.886719 C 289.085938 208.066406 289.726562 209.035156 290.132812 209.035156 C 291.6875 209.035156 302.445312 232.953125 302.445312 236.40625 C 302.445312 237.292969 301.710938 236.996094 300.378906 235.566406 C 298.519531 233.574219 296.359375 232.625 296.359375 233.796875 C 296.359375 234.496094 300.570312 241.453125 300.992188 241.453125 C 301.199219 241.453125 301.082031 240.707031 300.730469 239.792969 C 300.207031 238.429688 300.425781 238.320312 301.957031 239.175781 C 302.980469 239.746094 303.910156 241.066406 304.019531 242.101562 C 304.128906 243.136719 304.507812 245.355469 304.863281 247.027344 C 305.214844 248.699219 306.175781 254.730469 306.992188 260.429688 C 308.597656 271.636719 307.808594 286.085938 304.890625 298.902344 C 304.105469 302.363281 303.457031 306.691406 303.453125 308.527344 C 303.445312 314.117188 301.46875 319.644531 299.273438 320.21875 C 298.175781 320.503906 296.148438 322.960938 294.769531 325.675781 C 292.167969 330.804688 290.503906 332.285156 291.789062 328.328125 Z M 298.574219 231.105469 C 297.84375 230.378906 297.371094 230.316406 297.371094 230.953125 C 297.371094 232.304688 298.570312 233.503906 299.25 232.828125 C 299.539062 232.539062 299.234375 231.765625 298.574219 231.105469 Z M 295.902344 231.070312 C 295.050781 227.207031 291.582031 221.210938 290.1875 221.203125 C 288.332031 221.191406 285.765625 225.421875 286.425781 227.402344 C 286.671875 228.140625 287.753906 228.792969 288.828125 228.847656 C 294.097656 229.125 295.335938 229.359375 295.222656 230.058594 C 295.039062 231.230469 295.296875 232.335938 295.761719 232.335938 C 295.992188 232.335938 296.054688 231.765625 295.898438 231.070312 Z M 153.320312 323.941406 C 153.320312 323.058594 153.863281 322.519531 154.527344 322.738281 C 156.40625 323.367188 156.71875 325.546875 154.929688 325.546875 C 154.042969 325.546875 153.320312 324.824219 153.320312 323.941406 Z M 156.882812 322.523438 C 156.53125 321.957031 156.957031 321.492188 157.828125 321.492188 C 159.609375 321.492188 159.871094 322.101562 158.464844 322.96875 C 157.945312 323.289062 157.234375 323.089844 156.882812 322.523438 Z M 135.652344 319.828125 C 134.804688 317.617188 135.933594 316.589844 137.128906 318.484375 C 138.328125 320.378906 138.355469 321.492188 137.199219 321.492188 C 136.699219 321.492188 136.003906 320.746094 135.652344 319.828125 Z M 126.945312 309.367188 C 126.945312 308.828125 126.261719 308.648438 125.425781 308.96875 C 123.574219 309.679688 123.410156 307.96875 125.183594 306.496094 C 126.132812 305.710938 126.761719 306.074219 127.625 307.894531 C 128.261719 309.242188 128.371094 310.347656 127.867188 310.347656 C 127.359375 310.347656 126.945312 309.90625 126.945312 309.367188 Z M 107.144531 308.0625 C 106.039062 307.457031 104.539062 306.125 103.808594 305.109375 C 102.398438 303.136719 99.554688 302.578125 99.554688 304.269531 C 99.554688 304.828125 98.644531 305.285156 97.527344 305.285156 C 96.410156 305.285156 95.5 304.828125 95.5 304.269531 C 95.5 303.714844 94.585938 303.257812 93.46875 303.257812 C 92.355469 303.257812 91.441406 302.800781 91.441406 302.246094 C 91.441406 301.6875 91.902344 301.230469 92.464844 301.230469 C 94.46875 301.230469 91.066406 297.375 87.613281 295.730469 C 85.304688 294.632812 84.335938 293.582031 84.71875 292.589844 C 85.058594 291.703125 84.699219 291.101562 83.832031 291.101562 C 82.953125 291.101562 82.605469 291.703125 82.957031 292.621094 C 83.382812 293.726562 82.839844 294.140625 80.957031 294.140625 C 79.535156 294.140625 78.089844 293.683594 77.746094 293.125 C 77.402344 292.570312 78.058594 292.113281 79.207031 292.113281 C 80.355469 292.113281 81.355469 291.65625 81.421875 291.101562 C 81.492188 290.542969 81.605469 289.667969 81.675781 289.15625 C 81.882812 287.652344 83.324219 286.597656 83.324219 287.953125 C 83.324219 288.632812 83.730469 288.941406 84.226562 288.636719 C 84.71875 288.332031 85.6875 288.761719 86.378906 289.589844 C 87.066406 290.421875 87.257812 291.097656 86.796875 291.097656 C 86.339844 291.097656 86.492188 291.628906 87.136719 292.273438 C 88.027344 293.160156 88.671875 293.148438 89.796875 292.214844 C 90.988281 291.226562 92.261719 291.480469 96.242188 293.496094 C 98.972656 294.878906 101.804688 296.726562 102.535156 297.605469 C 103.265625 298.484375 105.121094 299.203125 106.65625 299.203125 C 109.480469 299.203125 112.273438 297.046875 111.042969 295.820312 C 110.675781 295.453125 110.882812 295.152344 111.5 295.152344 C 113.664062 295.152344 113.84375 297.171875 111.871094 299.289062 C 110.535156 300.71875 109.207031 301.210938 107.84375 300.78125 C 104.296875 299.65625 104.082031 302.375 107.480469 305.40625 C 110.796875 308.367188 110.597656 309.964844 107.144531 308.0625 Z M 119.222656 305.097656 C 118.75 304.335938 119.042969 304.136719 120.0625 304.527344 C 120.921875 304.855469 122.085938 304.664062 122.648438 304.101562 C 123.339844 303.414062 123.898438 303.441406 124.355469 304.183594 C 124.730469 304.789062 124.894531 305.316406 124.722656 305.359375 C 121.503906 306.132812 119.8125 306.050781 119.222656 305.097656 Z M 73.554688 302.089844 C 73.070312 301.3125 71.433594 299.890625 69.917969 298.925781 C 66.042969 296.464844 64.589844 293.523438 66.828125 292.667969 C 67.777344 292.304688 68.222656 292.335938 67.820312 292.738281 C 66.792969 293.761719 70.179688 297.273438 71.445312 296.492188 C 72.027344 296.132812 72.171875 296.351562 71.773438 296.992188 C 71.347656 297.683594 72.085938 298.386719 73.648438 298.777344 C 76.425781 299.476562 76.671875 299.96875 75.3125 302.113281 C 74.570312 303.285156 74.296875 303.28125 73.554688 302.089844 Z M 76.839844 301.816406 C 77.144531 301.023438 78.09375 300.105469 78.953125 299.777344 C 80.066406 299.351562 80.332031 299.640625 79.886719 300.796875 C 79.546875 301.683594 79.265625 302.601562 79.265625 302.832031 C 79.265625 303.066406 78.597656 303.257812 77.777344 303.257812 C 76.90625 303.257812 76.519531 302.660156 76.839844 301.816406 Z M 115.789062 301.230469 C 114.417969 298.679688 115.5625 298.679688 118.832031 301.230469 C 121.339844 303.191406 121.34375 303.210938 119.121094 303.234375 C 117.882812 303.246094 116.382812 302.34375 115.789062 301.230469 Z M 83.324219 300.785156 C 83.324219 300.539062 83.78125 300.054688 84.339844 299.710938 C 84.898438 299.367188 85.355469 299.566406 85.355469 300.15625 C 85.355469 300.75 84.898438 301.230469 84.339844 301.230469 C 83.78125 301.230469 83.324219 301.03125 83.324219 300.785156 Z M 86.960938 299.339844 C 86.523438 298.632812 86.4375 297.785156 86.773438 297.449219 C 87.683594 296.542969 88.671875 297.875 88.179688 299.34375 C 87.839844 300.375 87.597656 300.375 86.960938 299.339844 Z M 72.859375 295.503906 C 72.476562 295.125 72.113281 292.726562 72.046875 290.171875 C 71.945312 286.261719 71.824219 286 71.285156 288.507812 C 70.933594 290.148438 70.300781 291.402344 69.882812 291.296875 C 69.464844 291.1875 68.71875 291.101562 68.222656 291.101562 C 66.160156 291.101562 66.046875 284.179688 68.027344 279.304688 C 69.976562 274.511719 70.246094 274.589844 70.648438 280.058594 C 70.9375 283.945312 72.113281 285.269531 74.820312 284.75 C 76.410156 284.445312 77.238281 284.761719 77.238281 285.667969 C 77.238281 286.425781 76.210938 287.078125 74.957031 287.113281 L 72.671875 287.175781 L 74.957031 288.09375 C 76.210938 288.597656 77.230469 289.59375 77.222656 290.308594 C 77.210938 291.308594 77.007812 291.289062 76.335938 290.230469 C 75.855469 289.476562 75.207031 289.269531 74.894531 289.773438 C 74.585938 290.277344 74.75 291.351562 75.261719 292.160156 C 75.773438 292.972656 76.164062 294.316406 76.128906 295.152344 C 76.078125 296.34375 75.945312 296.371094 75.515625 295.292969 C 75.125 294.320312 74.753906 294.25 74.257812 295.054688 C 73.867188 295.683594 73.238281 295.886719 72.859375 295.503906 Z M 173.78125 292.113281 C 174.292969 290.582031 175.921875 290.425781 176.402344 291.859375 C 176.632812 292.554688 176.0625 293.125 175.132812 293.125 C 174.203125 293.125 173.59375 292.671875 173.78125 292.113281 Z M 88.480469 290.675781 C 88.4375 289.609375 88.675781 289.011719 89.011719 289.347656 C 89.351562 289.683594 89.386719 290.558594 89.09375 291.289062 C 88.769531 292.097656 88.527344 291.859375 88.480469 290.675781 Z M 63.476562 284.769531 C 62.316406 275.273438 62.300781 274.839844 63.078125 274.359375 C 63.472656 274.117188 64.109375 276.757812 64.496094 280.230469 C 64.878906 283.699219 65.441406 287.566406 65.746094 288.820312 C 66.054688 290.074219 65.839844 291.101562 65.277344 291.101562 C 64.714844 291.101562 63.902344 288.25 63.476562 284.769531 Z M 79.195312 290.847656 C 78.433594 288.28125 78.449219 285.527344 79.234375 284.179688 C 79.988281 282.886719 80.230469 283.503906 80.253906 286.792969 C 80.269531 289.164062 80.058594 291.101562 79.777344 291.101562 C 79.5 291.101562 79.238281 290.984375 79.195312 290.847656 Z M 124.921875 282.464844 C 124.921875 281.617188 123.777344 280.40625 122.382812 279.769531 C 120.175781 278.765625 118.871094 276.917969 120.367188 276.917969 C 121.304688 276.917969 125.410156 279.425781 126.171875 280.460938 C 127.253906 281.933594 127.113281 284.007812 125.933594 284.007812 C 125.378906 284.007812 124.921875 283.3125 124.921875 282.464844 Z M 74.199219 275.902344 C 73.460938 274.53125 73.449219 273.875 74.164062 273.875 C 74.742188 273.875 75.214844 273.167969 75.214844 272.296875 C 75.214844 271.429688 75.667969 271 76.226562 271.34375 C 77.527344 272.148438 77.558594 277.929688 76.261719 277.929688 C 75.726562 277.929688 74.796875 277.019531 74.199219 275.902344 Z M 69.140625 272.671875 C 69.152344 271.941406 69.601562 270.660156 70.140625 269.824219 C 70.941406 268.589844 71.128906 268.71875 71.140625 270.523438 C 71.148438 271.746094 70.699219 273.027344 70.140625 273.371094 C 69.582031 273.714844 69.132812 273.398438 69.140625 272.671875 Z M 62.910156 269.570312 C 62.507812 259.460938 66.09375 236.285156 68.175781 235.546875 C 68.699219 235.363281 69.125 234.1875 69.125 232.9375 C 69.125 230.191406 73.847656 218.1875 75.664062 216.304688 C 76.742188 215.1875 77.074219 215.242188 77.597656 216.609375 C 78.003906 217.660156 77.828125 218.011719 77.121094 217.574219 C 76.386719 217.121094 76.234375 217.589844 76.667969 218.960938 C 77.109375 220.351562 76.667969 221.652344 75.324219 222.902344 C 73.1875 224.886719 71.15625 229.371094 71.15625 232.089844 C 71.15625 233.46875 71.402344 233.414062 72.644531 231.773438 C 73.464844 230.691406 74.148438 228.550781 74.167969 227.019531 C 74.183594 225.488281 74.65625 224.234375 75.214844 224.234375 C 77.046875 224.234375 76.273438 231.175781 73.945312 235.601562 C 71.992188 239.316406 71.617188 239.609375 71.339844 237.65625 C 71.160156 236.402344 70.644531 235.378906 70.1875 235.378906 C 68.210938 235.378906 67.238281 247.890625 69.125 249.054688 C 70.8125 250.097656 70.367188 253.917969 68.636719 253.253906 C 66.398438 252.398438 65.359375 255.328125 65.273438 262.734375 C 65.15625 272.738281 65.140625 272.863281 64.054688 272.863281 C 63.496094 272.863281 62.980469 271.382812 62.910156 269.570312 Z M 72.398438 269.410156 C 72.710938 267.78125 72.460938 267.125 71.640625 267.4375 C 70.035156 268.054688 68.636719 259.777344 70.101562 258.3125 C 70.828125 257.585938 71.15625 258.167969 71.15625 260.195312 C 71.15625 261.988281 72.199219 264.21875 73.847656 265.933594 C 76.09375 268.277344 76.324219 268.996094 75.242188 270.292969 C 73.308594 272.621094 71.871094 272.171875 72.398438 269.410156 Z M 191.671875 252.398438 C 192.617188 251.453125 193.160156 251.453125 194.105469 252.398438 C 195.054688 253.34375 194.78125 253.613281 192.890625 253.613281 C 190.996094 253.613281 190.726562 253.34375 191.671875 252.398438 Z M 197.960938 252.542969 C 197.960938 251.898438 198.609375 251.617188 199.398438 251.921875 C 200.191406 252.226562 201.101562 251.789062 201.421875 250.953125 C 201.773438 250.03125 202.507812 249.746094 203.28125 250.226562 C 203.980469 250.660156 205.539062 250.890625 206.742188 250.738281 C 207.941406 250.582031 209.226562 250.9375 209.589844 251.527344 C 209.960938 252.125 209.445312 252.628906 208.417969 252.664062 C 207.410156 252.699219 204.644531 252.949219 202.273438 253.222656 C 199.398438 253.550781 197.960938 253.324219 197.960938 252.542969 Z M 211.960938 252.398438 C 212.90625 251.453125 213.449219 251.453125 214.394531 252.398438 C 215.34375 253.34375 215.070312 253.613281 213.179688 253.613281 C 211.285156 253.613281 211.015625 253.34375 211.960938 252.398438 Z M 188.554688 246.945312 C 187.007812 246.105469 185.222656 245.738281 184.59375 246.128906 C 183.890625 246.5625 183.726562 246.382812 184.171875 245.664062 C 184.628906 244.921875 184.109375 244.496094 182.746094 244.496094 C 181.5625 244.496094 180.820312 244.855469 181.089844 245.292969 C 181.359375 245.730469 180.703125 246.089844 179.628906 246.089844 C 176.929688 246.089844 177.179688 244.675781 180.113281 243.34375 C 182.085938 242.445312 183.75 242.691406 188.738281 244.625 C 194.8125 246.976562 196.640625 248.589844 193.144531 248.507812 C 192.167969 248.484375 190.101562 247.78125 188.554688 246.945312 Z M 279.121094 233.410156 C 279.121094 232.820312 279.574219 232.339844 280.132812 232.339844 C 280.691406 232.339844 281.148438 232.539062 281.148438 232.785156 C 281.148438 233.03125 280.691406 233.515625 280.132812 233.859375 C 279.574219 234.203125 279.121094 234 279.121094 233.410156 Z M 281.148438 214.667969 C 281.148438 214.421875 281.605469 213.941406 282.164062 213.597656 C 282.71875 213.25 283.175781 213.453125 283.175781 214.042969 C 283.175781 214.632812 282.71875 215.117188 282.164062 215.117188 C 281.605469 215.117188 281.148438 214.914062 281.148438 214.667969 Z M 80.289062 209.664062 C 80.289062 208.828125 80.746094 207.863281 81.304688 207.515625 C 81.859375 207.171875 82.316406 207.574219 82.316406 208.410156 C 82.316406 209.246094 81.859375 210.210938 81.304688 210.558594 C 80.746094 210.902344 80.289062 210.5 80.289062 209.664062 Z M 84.347656 209.601562 C 84.347656 209.359375 84.804688 208.875 85.359375 208.53125 C 85.917969 208.1875 86.375 208.386719 86.375 208.976562 C 86.375 209.566406 85.917969 210.050781 85.359375 210.050781 C 84.804688 210.050781 84.347656 209.847656 84.347656 209.601562 Z M 90.433594 204.03125 C 90.433594 203.441406 90.890625 202.957031 91.449219 202.957031 C 92.003906 202.957031 92.460938 203.160156 92.460938 203.40625 C 92.460938 203.652344 92.003906 204.132812 91.449219 204.476562 C 90.890625 204.820312 90.433594 204.621094 90.433594 204.03125 Z M 91.929688 194.816406 C 91.589844 194.261719 90.769531 194.128906 90.109375 194.523438 C 89.425781 194.933594 89.511719 194.503906 90.304688 193.527344 C 91.75 191.746094 95.015625 191.214844 95.886719 192.625 C 96.164062 193.070312 95.527344 193.972656 94.472656 194.628906 C 93.234375 195.402344 92.335938 195.46875 91.929688 194.816406 Z M 226.054688 180.554688 C 225.042969 179.96875 223.535156 179.746094 222.703125 180.066406 C 221.847656 180.394531 221.460938 180.210938 221.8125 179.644531 C 222.152344 179.09375 221.871094 178.644531 221.1875 178.644531 C 218.9375 178.644531 221.234375 177.300781 223.984375 177.007812 C 227.140625 176.671875 232.789062 179.308594 231.921875 180.710938 C 231.140625 181.976562 228.371094 181.898438 226.054688 180.554688 Z M 226.054688 180.554688 " clip-rule="nonzero"/></clipPath><radialGradient gradientTransform="matrix(1.003677, 0, 0, 0.996323, -153.020241, 32.752316)" gradientUnits="userSpaceOnUse" r="283.957227" cx="250.25829" id="69a77c62de" cy="168.038525" fx="250.25829" fy="168.038525"><stop stop-opacity="1" stop-color="rgb(9.526062%, 39.694214%, 65.965271%)" offset="0"/><stop stop-opacity="1" stop-color="rgb(9.780884%, 39.883423%, 66.098022%)" offset="0.00390625"/><stop stop-opacity="1" stop-color="rgb(10.03418%, 40.074158%, 66.2323%)" offset="0.0078125"/><stop stop-opacity="1" stop-color="rgb(10.289001%, 40.263367%, 66.365051%)" offset="0.0117188"/><stop stop-opacity="1" stop-color="rgb(10.543823%, 40.452576%, 66.497803%)" offset="0.015625"/><stop stop-opacity="1" stop-color="rgb(10.797119%, 40.643311%, 66.63208%)" offset="0.0195312"/><stop stop-opacity="1" stop-color="rgb(11.051941%, 40.83252%, 66.764832%)" offset="0.0234375"/><stop stop-opacity="1" stop-color="rgb(11.305237%, 41.023254%, 66.897583%)" offset="0.0273438"/><stop stop-opacity="1" stop-color="rgb(11.560059%, 41.212463%, 67.030334%)" offset="0.03125"/><stop stop-opacity="1" stop-color="rgb(11.81488%, 41.403198%, 67.164612%)" offset="0.0351562"/><stop stop-opacity="1" stop-color="rgb(12.068176%, 41.592407%, 67.297363%)" offset="0.0390625"/><stop stop-opacity="1" stop-color="rgb(12.322998%, 41.781616%, 67.430115%)" offset="0.0429688"/><stop stop-opacity="1" stop-color="rgb(12.57782%, 41.972351%, 67.564392%)" offset="0.046875"/><stop stop-opacity="1" stop-color="rgb(12.831116%, 42.16156%, 67.697144%)" offset="0.0507812"/><stop stop-opacity="1" stop-color="rgb(13.085938%, 42.352295%, 67.829895%)" offset="0.0546875"/><stop stop-opacity="1" stop-color="rgb(13.340759%, 42.541504%, 67.962646%)" offset="0.0585938"/><stop stop-opacity="1" stop-color="rgb(13.594055%, 42.730713%, 68.096924%)" offset="0.0625"/><stop stop-opacity="1" stop-color="rgb(13.848877%, 42.921448%, 68.229675%)" offset="0.0664062"/><stop stop-opacity="1" stop-color="rgb(14.103699%, 43.110657%, 68.362427%)" offset="0.0703125"/><stop stop-opacity="1" stop-color="rgb(14.356995%, 43.301392%, 68.496704%)" offset="0.0742188"/><stop stop-opacity="1" stop-color="rgb(14.611816%, 43.490601%, 68.629456%)" offset="0.078125"/><stop stop-opacity="1" stop-color="rgb(14.866638%, 43.67981%, 68.762207%)" offset="0.0820312"/><stop stop-opacity="1" stop-color="rgb(15.119934%, 43.870544%, 68.896484%)" offset="0.0859375"/><stop stop-opacity="1" stop-color="rgb(15.374756%, 44.059753%, 69.029236%)" offset="0.0898438"/><stop stop-opacity="1" stop-color="rgb(15.629578%, 44.250488%, 69.161987%)" offset="0.09375"/><stop stop-opacity="1" stop-color="rgb(15.882874%, 44.439697%, 69.294739%)" offset="0.0976562"/><stop stop-opacity="1" stop-color="rgb(16.137695%, 44.630432%, 69.429016%)" offset="0.101562"/><stop stop-opacity="1" stop-color="rgb(16.392517%, 44.819641%, 69.561768%)" offset="0.105469"/><stop stop-opacity="1" stop-color="rgb(16.645813%, 45.00885%, 69.694519%)" offset="0.109375"/><stop stop-opacity="1" stop-color="rgb(16.900635%, 45.199585%, 69.828796%)" offset="0.113281"/><stop stop-opacity="1" stop-color="rgb(17.155457%, 45.388794%, 69.961548%)" offset="0.117188"/><stop stop-opacity="1" stop-color="rgb(17.408752%, 45.579529%, 70.094299%)" offset="0.121094"/><stop stop-opacity="1" stop-color="rgb(17.663574%, 45.768738%, 70.227051%)" offset="0.125"/><stop stop-opacity="1" stop-color="rgb(17.918396%, 45.957947%, 70.361328%)" offset="0.128906"/><stop stop-opacity="1" stop-color="rgb(18.171692%, 46.148682%, 70.49408%)" offset="0.132812"/><stop stop-opacity="1" stop-color="rgb(18.426514%, 46.337891%, 70.626831%)" offset="0.136719"/><stop stop-opacity="1" stop-color="rgb(18.681335%, 46.528625%, 70.761108%)" offset="0.140625"/><stop stop-opacity="1" stop-color="rgb(18.934631%, 46.717834%, 70.89386%)" offset="0.144531"/><stop stop-opacity="1" stop-color="rgb(19.189453%, 46.908569%, 71.026611%)" offset="0.148438"/><stop stop-opacity="1" stop-color="rgb(19.442749%, 47.097778%, 71.160889%)" offset="0.152344"/><stop stop-opacity="1" stop-color="rgb(19.697571%, 47.286987%, 71.29364%)" offset="0.15625"/><stop stop-opacity="1" stop-color="rgb(19.952393%, 47.477722%, 71.426392%)" offset="0.160156"/><stop stop-opacity="1" stop-color="rgb(20.205688%, 47.666931%, 71.559143%)" offset="0.164062"/><stop stop-opacity="1" stop-color="rgb(20.46051%, 47.857666%, 71.69342%)" offset="0.167969"/><stop stop-opacity="1" stop-color="rgb(20.715332%, 48.046875%, 71.826172%)" offset="0.171875"/><stop stop-opacity="1" stop-color="rgb(20.968628%, 48.236084%, 71.958923%)" offset="0.175781"/><stop stop-opacity="1" stop-color="rgb(21.22345%, 48.426819%, 72.093201%)" offset="0.179688"/><stop stop-opacity="1" stop-color="rgb(21.478271%, 48.616028%, 72.225952%)" offset="0.183594"/><stop stop-opacity="1" stop-color="rgb(21.731567%, 48.806763%, 72.358704%)" offset="0.1875"/><stop stop-opacity="1" stop-color="rgb(21.986389%, 48.995972%, 72.492981%)" offset="0.191406"/><stop stop-opacity="1" stop-color="rgb(22.241211%, 49.186707%, 72.625732%)" offset="0.195312"/><stop stop-opacity="1" stop-color="rgb(22.494507%, 49.375916%, 72.758484%)" offset="0.199219"/><stop stop-opacity="1" stop-color="rgb(22.749329%, 49.565125%, 72.891235%)" offset="0.203125"/><stop stop-opacity="1" stop-color="rgb(23.00415%, 49.755859%, 73.025513%)" offset="0.207031"/><stop stop-opacity="1" stop-color="rgb(23.257446%, 49.945068%, 73.158264%)" offset="0.210938"/><stop stop-opacity="1" stop-color="rgb(23.512268%, 50.135803%, 73.291016%)" offset="0.214844"/><stop stop-opacity="1" stop-color="rgb(23.76709%, 50.325012%, 73.425293%)" offset="0.21875"/><stop stop-opacity="1" stop-color="rgb(24.020386%, 50.514221%, 73.558044%)" offset="0.222656"/><stop stop-opacity="1" stop-color="rgb(24.275208%, 50.704956%, 73.690796%)" offset="0.226562"/><stop stop-opacity="1" stop-color="rgb(24.530029%, 50.894165%, 73.823547%)" offset="0.230469"/><stop stop-opacity="1" stop-color="rgb(24.783325%, 51.0849%, 73.957825%)" offset="0.234375"/><stop stop-opacity="1" stop-color="rgb(25.038147%, 51.274109%, 74.090576%)" offset="0.238281"/><stop stop-opacity="1" stop-color="rgb(25.292969%, 51.464844%, 74.223328%)" offset="0.242188"/><stop stop-opacity="1" stop-color="rgb(25.546265%, 51.654053%, 74.357605%)" offset="0.246094"/><stop stop-opacity="1" stop-color="rgb(25.801086%, 51.843262%, 74.490356%)" offset="0.25"/><stop stop-opacity="1" stop-color="rgb(26.055908%, 52.033997%, 74.623108%)" offset="0.253906"/><stop stop-opacity="1" stop-color="rgb(26.309204%, 52.223206%, 74.757385%)" offset="0.257812"/><stop stop-opacity="1" stop-color="rgb(26.564026%, 52.41394%, 74.890137%)" offset="0.261719"/><stop stop-opacity="1" stop-color="rgb(26.817322%, 52.603149%, 75.022888%)" offset="0.265625"/><stop stop-opacity="1" stop-color="rgb(27.072144%, 52.792358%, 75.15564%)" offset="0.269531"/><stop stop-opacity="1" stop-color="rgb(27.326965%, 52.983093%, 75.289917%)" offset="0.273438"/><stop stop-opacity="1" stop-color="rgb(27.580261%, 53.172302%, 75.422668%)" offset="0.277344"/><stop stop-opacity="1" stop-color="rgb(27.835083%, 53.363037%, 75.55542%)" offset="0.28125"/><stop stop-opacity="1" stop-color="rgb(28.089905%, 53.552246%, 75.689697%)" offset="0.285156"/><stop stop-opacity="1" stop-color="rgb(28.343201%, 53.742981%, 75.822449%)" offset="0.289062"/><stop stop-opacity="1" stop-color="rgb(28.598022%, 53.93219%, 75.9552%)" offset="0.292969"/><stop stop-opacity="1" stop-color="rgb(28.852844%, 54.121399%, 76.089478%)" offset="0.296875"/><stop stop-opacity="1" stop-color="rgb(29.10614%, 54.312134%, 76.222229%)" offset="0.300781"/><stop stop-opacity="1" stop-color="rgb(29.360962%, 54.501343%, 76.35498%)" offset="0.304688"/><stop stop-opacity="1" stop-color="rgb(29.615784%, 54.692078%, 76.487732%)" offset="0.308594"/><stop stop-opacity="1" stop-color="rgb(29.86908%, 54.881287%, 76.622009%)" offset="0.3125"/><stop stop-opacity="1" stop-color="rgb(30.123901%, 55.070496%, 76.754761%)" offset="0.316406"/><stop stop-opacity="1" stop-color="rgb(30.378723%, 55.26123%, 76.887512%)" offset="0.320312"/><stop stop-opacity="1" stop-color="rgb(30.632019%, 55.450439%, 77.02179%)" offset="0.324219"/><stop stop-opacity="1" stop-color="rgb(30.886841%, 55.641174%, 77.154541%)" offset="0.328125"/><stop stop-opacity="1" stop-color="rgb(31.141663%, 55.830383%, 77.287292%)" offset="0.332031"/><stop stop-opacity="1" stop-color="rgb(31.394958%, 56.021118%, 77.420044%)" offset="0.335938"/><stop stop-opacity="1" stop-color="rgb(31.64978%, 56.210327%, 77.554321%)" offset="0.339844"/><stop stop-opacity="1" stop-color="rgb(31.904602%, 56.399536%, 77.687073%)" offset="0.34375"/><stop stop-opacity="1" stop-color="rgb(32.157898%, 56.590271%, 77.819824%)" offset="0.347656"/><stop stop-opacity="1" stop-color="rgb(32.41272%, 56.77948%, 77.954102%)" offset="0.351562"/><stop stop-opacity="1" stop-color="rgb(32.667542%, 56.970215%, 78.086853%)" offset="0.355469"/><stop stop-opacity="1" stop-color="rgb(32.920837%, 57.159424%, 78.219604%)" offset="0.359375"/><stop stop-opacity="1" stop-color="rgb(33.175659%, 57.348633%, 78.353882%)" offset="0.363281"/><stop stop-opacity="1" stop-color="rgb(33.430481%, 57.539368%, 78.486633%)" offset="0.367188"/><stop stop-opacity="1" stop-color="rgb(33.683777%, 57.728577%, 78.619385%)" offset="0.371094"/><stop stop-opacity="1" stop-color="rgb(33.938599%, 57.919312%, 78.752136%)" offset="0.375"/><stop stop-opacity="1" stop-color="rgb(34.19342%, 58.108521%, 78.886414%)" offset="0.378906"/><stop stop-opacity="1" stop-color="rgb(34.446716%, 58.299255%, 79.019165%)" offset="0.382812"/><stop stop-opacity="1" stop-color="rgb(34.701538%, 58.488464%, 79.151917%)" offset="0.386719"/><stop stop-opacity="1" stop-color="rgb(34.954834%, 58.677673%, 79.286194%)" offset="0.390625"/><stop stop-opacity="1" stop-color="rgb(35.209656%, 58.868408%, 79.418945%)" offset="0.394531"/><stop stop-opacity="1" stop-color="rgb(35.464478%, 59.057617%, 79.551697%)" offset="0.398438"/><stop stop-opacity="1" stop-color="rgb(35.717773%, 59.248352%, 79.685974%)" offset="0.402344"/><stop stop-opacity="1" stop-color="rgb(35.972595%, 59.437561%, 79.818726%)" offset="0.40625"/><stop stop-opacity="1" stop-color="rgb(36.227417%, 59.62677%, 79.951477%)" offset="0.410156"/><stop stop-opacity="1" stop-color="rgb(36.480713%, 59.817505%, 80.084229%)" offset="0.414062"/><stop stop-opacity="1" stop-color="rgb(36.735535%, 60.006714%, 80.218506%)" offset="0.417969"/><stop stop-opacity="1" stop-color="rgb(36.990356%, 60.197449%, 80.351257%)" offset="0.421875"/><stop stop-opacity="1" stop-color="rgb(37.243652%, 60.386658%, 80.484009%)" offset="0.425781"/><stop stop-opacity="1" stop-color="rgb(37.498474%, 60.577393%, 80.618286%)" offset="0.429688"/><stop stop-opacity="1" stop-color="rgb(37.753296%, 60.766602%, 80.751038%)" offset="0.433594"/><stop stop-opacity="1" stop-color="rgb(38.006592%, 60.955811%, 80.883789%)" offset="0.4375"/><stop stop-opacity="1" stop-color="rgb(38.261414%, 61.146545%, 81.016541%)" offset="0.441406"/><stop stop-opacity="1" stop-color="rgb(38.516235%, 61.335754%, 81.150818%)" offset="0.445312"/><stop stop-opacity="1" stop-color="rgb(38.769531%, 61.526489%, 81.283569%)" offset="0.449219"/><stop stop-opacity="1" stop-color="rgb(39.024353%, 61.715698%, 81.416321%)" offset="0.453125"/><stop stop-opacity="1" stop-color="rgb(39.279175%, 61.904907%, 81.550598%)" offset="0.457031"/><stop stop-opacity="1" stop-color="rgb(39.532471%, 62.095642%, 81.68335%)" offset="0.460938"/><stop stop-opacity="1" stop-color="rgb(39.787292%, 62.284851%, 81.816101%)" offset="0.464844"/><stop stop-opacity="1" stop-color="rgb(40.042114%, 62.475586%, 81.950378%)" offset="0.46875"/><stop stop-opacity="1" stop-color="rgb(40.29541%, 62.664795%, 82.08313%)" offset="0.472656"/><stop stop-opacity="1" stop-color="rgb(40.550232%, 62.85553%, 82.215881%)" offset="0.476562"/><stop stop-opacity="1" stop-color="rgb(40.805054%, 63.044739%, 82.348633%)" offset="0.480469"/><stop stop-opacity="1" stop-color="rgb(41.05835%, 63.233948%, 82.48291%)" offset="0.484375"/><stop stop-opacity="1" stop-color="rgb(41.313171%, 63.424683%, 82.615662%)" offset="0.488281"/><stop stop-opacity="1" stop-color="rgb(41.567993%, 63.613892%, 82.748413%)" offset="0.492188"/><stop stop-opacity="1" stop-color="rgb(41.821289%, 63.804626%, 82.88269%)" offset="0.496094"/><stop stop-opacity="1" stop-color="rgb(42.076111%, 63.993835%, 83.015442%)" offset="0.5"/><stop stop-opacity="1" stop-color="rgb(42.330933%, 64.183044%, 83.148193%)" offset="0.503906"/><stop stop-opacity="1" stop-color="rgb(42.584229%, 64.373779%, 83.282471%)" offset="0.507812"/><stop stop-opacity="1" stop-color="rgb(42.83905%, 64.562988%, 83.415222%)" offset="0.511719"/><stop stop-opacity="1" stop-color="rgb(43.092346%, 64.753723%, 83.547974%)" offset="0.515625"/><stop stop-opacity="1" stop-color="rgb(43.347168%, 64.942932%, 83.680725%)" offset="0.519531"/><stop stop-opacity="1" stop-color="rgb(43.60199%, 65.133667%, 83.815002%)" offset="0.523438"/><stop stop-opacity="1" stop-color="rgb(43.855286%, 65.322876%, 83.947754%)" offset="0.527344"/><stop stop-opacity="1" stop-color="rgb(44.110107%, 65.512085%, 84.080505%)" offset="0.53125"/><stop stop-opacity="1" stop-color="rgb(44.364929%, 65.70282%, 84.214783%)" offset="0.535156"/><stop stop-opacity="1" stop-color="rgb(44.618225%, 65.892029%, 84.347534%)" offset="0.539062"/><stop stop-opacity="1" stop-color="rgb(44.873047%, 66.082764%, 84.480286%)" offset="0.542969"/><stop stop-opacity="1" stop-color="rgb(45.127869%, 66.271973%, 84.613037%)" offset="0.546875"/><stop stop-opacity="1" stop-color="rgb(45.381165%, 66.461182%, 84.747314%)" offset="0.550781"/><stop stop-opacity="1" stop-color="rgb(45.635986%, 66.651917%, 84.880066%)" offset="0.554688"/><stop stop-opacity="1" stop-color="rgb(45.890808%, 66.841125%, 85.012817%)" offset="0.558594"/><stop stop-opacity="1" stop-color="rgb(46.144104%, 67.03186%, 85.147095%)" offset="0.5625"/><stop stop-opacity="1" stop-color="rgb(46.398926%, 67.221069%, 85.279846%)" offset="0.566406"/><stop stop-opacity="1" stop-color="rgb(46.653748%, 67.410278%, 85.412598%)" offset="0.570312"/><stop stop-opacity="1" stop-color="rgb(46.907043%, 67.601013%, 85.546875%)" offset="0.574219"/><stop stop-opacity="1" stop-color="rgb(47.161865%, 67.790222%, 85.679626%)" offset="0.578125"/><stop stop-opacity="1" stop-color="rgb(47.416687%, 67.980957%, 85.812378%)" offset="0.582031"/><stop stop-opacity="1" stop-color="rgb(47.669983%, 68.170166%, 85.945129%)" offset="0.585938"/><stop stop-opacity="1" stop-color="rgb(47.924805%, 68.360901%, 86.079407%)" offset="0.589844"/><stop stop-opacity="1" stop-color="rgb(48.179626%, 68.55011%, 86.212158%)" offset="0.59375"/><stop stop-opacity="1" stop-color="rgb(48.432922%, 68.739319%, 86.34491%)" offset="0.597656"/><stop stop-opacity="1" stop-color="rgb(48.687744%, 68.930054%, 86.479187%)" offset="0.601562"/><stop stop-opacity="1" stop-color="rgb(48.942566%, 69.119263%, 86.611938%)" offset="0.605469"/><stop stop-opacity="1" stop-color="rgb(49.195862%, 69.309998%, 86.74469%)" offset="0.609375"/><stop stop-opacity="1" stop-color="rgb(49.450684%, 69.499207%, 86.877441%)" offset="0.613281"/><stop stop-opacity="1" stop-color="rgb(49.705505%, 69.688416%, 87.011719%)" offset="0.617188"/><stop stop-opacity="1" stop-color="rgb(49.958801%, 69.87915%, 87.14447%)" offset="0.621094"/><stop stop-opacity="1" stop-color="rgb(50.213623%, 70.068359%, 87.277222%)" offset="0.625"/><stop stop-opacity="1" stop-color="rgb(50.468445%, 70.259094%, 87.411499%)" offset="0.628906"/><stop stop-opacity="1" stop-color="rgb(50.721741%, 70.448303%, 87.54425%)" offset="0.632812"/><stop stop-opacity="1" stop-color="rgb(50.976562%, 70.639038%, 87.677002%)" offset="0.636719"/><stop stop-opacity="1" stop-color="rgb(51.229858%, 70.828247%, 87.811279%)" offset="0.640625"/><stop stop-opacity="1" stop-color="rgb(51.48468%, 71.017456%, 87.944031%)" offset="0.644531"/><stop stop-opacity="1" stop-color="rgb(51.739502%, 71.208191%, 88.076782%)" offset="0.648438"/><stop stop-opacity="1" stop-color="rgb(51.992798%, 71.3974%, 88.209534%)" offset="0.652344"/><stop stop-opacity="1" stop-color="rgb(52.24762%, 71.588135%, 88.343811%)" offset="0.65625"/><stop stop-opacity="1" stop-color="rgb(52.502441%, 71.777344%, 88.476562%)" offset="0.660156"/><stop stop-opacity="1" stop-color="rgb(52.755737%, 71.966553%, 88.609314%)" offset="0.664062"/><stop stop-opacity="1" stop-color="rgb(53.010559%, 72.157288%, 88.743591%)" offset="0.667969"/><stop stop-opacity="1" stop-color="rgb(53.265381%, 72.346497%, 88.876343%)" offset="0.671875"/><stop stop-opacity="1" stop-color="rgb(53.518677%, 72.537231%, 89.009094%)" offset="0.675781"/><stop stop-opacity="1" stop-color="rgb(53.773499%, 72.72644%, 89.143372%)" offset="0.679688"/><stop stop-opacity="1" stop-color="rgb(54.02832%, 72.917175%, 89.276123%)" offset="0.683594"/><stop stop-opacity="1" stop-color="rgb(54.281616%, 73.106384%, 89.408875%)" offset="0.6875"/><stop stop-opacity="1" stop-color="rgb(54.536438%, 73.295593%, 89.541626%)" offset="0.691406"/><stop stop-opacity="1" stop-color="rgb(54.79126%, 73.486328%, 89.675903%)" offset="0.695312"/><stop stop-opacity="1" stop-color="rgb(55.044556%, 73.675537%, 89.808655%)" offset="0.699219"/><stop stop-opacity="1" stop-color="rgb(55.299377%, 73.866272%, 89.941406%)" offset="0.703125"/><stop stop-opacity="1" stop-color="rgb(55.554199%, 74.055481%, 90.075684%)" offset="0.707031"/><stop stop-opacity="1" stop-color="rgb(55.807495%, 74.24469%, 90.208435%)" offset="0.710938"/><stop stop-opacity="1" stop-color="rgb(56.062317%, 74.435425%, 90.341187%)" offset="0.714844"/><stop stop-opacity="1" stop-color="rgb(56.317139%, 74.624634%, 90.473938%)" offset="0.71875"/><stop stop-opacity="1" stop-color="rgb(56.570435%, 74.815369%, 90.608215%)" offset="0.722656"/><stop stop-opacity="1" stop-color="rgb(56.825256%, 75.004578%, 90.740967%)" offset="0.726562"/><stop stop-opacity="1" stop-color="rgb(57.080078%, 75.195312%, 90.873718%)" offset="0.730469"/><stop stop-opacity="1" stop-color="rgb(57.333374%, 75.384521%, 91.007996%)" offset="0.734375"/><stop stop-opacity="1" stop-color="rgb(57.588196%, 75.57373%, 91.140747%)" offset="0.738281"/><stop stop-opacity="1" stop-color="rgb(57.843018%, 75.764465%, 91.273499%)" offset="0.742188"/><stop stop-opacity="1" stop-color="rgb(58.096313%, 75.953674%, 91.407776%)" offset="0.746094"/><stop stop-opacity="1" stop-color="rgb(58.351135%, 76.144409%, 91.540527%)" offset="0.75"/><stop stop-opacity="1" stop-color="rgb(58.604431%, 76.333618%, 91.673279%)" offset="0.753906"/><stop stop-opacity="1" stop-color="rgb(58.859253%, 76.522827%, 91.80603%)" offset="0.757812"/><stop stop-opacity="1" stop-color="rgb(59.114075%, 76.713562%, 91.940308%)" offset="0.761719"/><stop stop-opacity="1" stop-color="rgb(59.367371%, 76.902771%, 92.073059%)" offset="0.765625"/><stop stop-opacity="1" stop-color="rgb(59.622192%, 77.093506%, 92.205811%)" offset="0.769531"/><stop stop-opacity="1" stop-color="rgb(59.877014%, 77.282715%, 92.340088%)" offset="0.773438"/><stop stop-opacity="1" stop-color="rgb(60.13031%, 77.47345%, 92.472839%)" offset="0.777344"/><stop stop-opacity="1" stop-color="rgb(60.385132%, 77.662659%, 92.605591%)" offset="0.78125"/><stop stop-opacity="1" stop-color="rgb(60.639954%, 77.851868%, 92.739868%)" offset="0.785156"/><stop stop-opacity="1" stop-color="rgb(60.89325%, 78.042603%, 92.87262%)" offset="0.789062"/><stop stop-opacity="1" stop-color="rgb(61.148071%, 78.231812%, 93.005371%)" offset="0.792969"/><stop stop-opacity="1" stop-color="rgb(61.402893%, 78.422546%, 93.138123%)" offset="0.796875"/><stop stop-opacity="1" stop-color="rgb(61.656189%, 78.611755%, 93.2724%)" offset="0.800781"/><stop stop-opacity="1" stop-color="rgb(61.911011%, 78.800964%, 93.405151%)" offset="0.804688"/><stop stop-opacity="1" stop-color="rgb(62.165833%, 78.991699%, 93.537903%)" offset="0.808594"/><stop stop-opacity="1" stop-color="rgb(62.419128%, 79.180908%, 93.67218%)" offset="0.8125"/><stop stop-opacity="1" stop-color="rgb(62.67395%, 79.371643%, 93.804932%)" offset="0.816406"/><stop stop-opacity="1" stop-color="rgb(62.928772%, 79.560852%, 93.937683%)" offset="0.820312"/><stop stop-opacity="1" stop-color="rgb(63.182068%, 79.751587%, 94.070435%)" offset="0.824219"/><stop stop-opacity="1" stop-color="rgb(63.43689%, 79.940796%, 94.204712%)" offset="0.828125"/><stop stop-opacity="1" stop-color="rgb(63.691711%, 80.130005%, 94.337463%)" offset="0.832031"/><stop stop-opacity="1" stop-color="rgb(63.945007%, 80.32074%, 94.470215%)" offset="0.835938"/><stop stop-opacity="1" stop-color="rgb(64.199829%, 80.509949%, 94.604492%)" offset="0.839844"/><stop stop-opacity="1" stop-color="rgb(64.454651%, 80.700684%, 94.737244%)" offset="0.84375"/><stop stop-opacity="1" stop-color="rgb(64.707947%, 80.889893%, 94.869995%)" offset="0.847656"/><stop stop-opacity="1" stop-color="rgb(64.962769%, 81.079102%, 95.004272%)" offset="0.851562"/><stop stop-opacity="1" stop-color="rgb(65.21759%, 81.269836%, 95.137024%)" offset="0.855469"/><stop stop-opacity="1" stop-color="rgb(65.470886%, 81.459045%, 95.269775%)" offset="0.859375"/><stop stop-opacity="1" stop-color="rgb(65.725708%, 81.64978%, 95.402527%)" offset="0.863281"/><stop stop-opacity="1" stop-color="rgb(65.98053%, 81.838989%, 95.536804%)" offset="0.867188"/><stop stop-opacity="1" stop-color="rgb(66.233826%, 82.029724%, 95.669556%)" offset="0.871094"/><stop stop-opacity="1" stop-color="rgb(66.488647%, 82.218933%, 95.802307%)" offset="0.875"/><stop stop-opacity="1" stop-color="rgb(66.741943%, 82.408142%, 95.936584%)" offset="0.878906"/><stop stop-opacity="1" stop-color="rgb(66.996765%, 82.598877%, 96.069336%)" offset="0.882812"/><stop stop-opacity="1" stop-color="rgb(67.251587%, 82.788086%, 96.202087%)" offset="0.886719"/><stop stop-opacity="1" stop-color="rgb(67.504883%, 82.978821%, 96.336365%)" offset="0.890625"/><stop stop-opacity="1" stop-color="rgb(67.759705%, 83.16803%, 96.469116%)" offset="0.894531"/><stop stop-opacity="1" stop-color="rgb(68.014526%, 83.357239%, 96.601868%)" offset="0.898438"/><stop stop-opacity="1" stop-color="rgb(68.267822%, 83.547974%, 96.734619%)" offset="0.902344"/><stop stop-opacity="1" stop-color="rgb(68.522644%, 83.737183%, 96.868896%)" offset="0.90625"/><stop stop-opacity="1" stop-color="rgb(68.777466%, 83.927917%, 97.001648%)" offset="0.910156"/><stop stop-opacity="1" stop-color="rgb(69.030762%, 84.117126%, 97.134399%)" offset="0.914062"/><stop stop-opacity="1" stop-color="rgb(69.285583%, 84.307861%, 97.268677%)" offset="0.917969"/><stop stop-opacity="1" stop-color="rgb(69.540405%, 84.49707%, 97.401428%)" offset="0.921875"/><stop stop-opacity="1" stop-color="rgb(69.793701%, 84.686279%, 97.53418%)" offset="0.925781"/><stop stop-opacity="1" stop-color="rgb(70.048523%, 84.877014%, 97.666931%)" offset="0.929688"/><stop stop-opacity="1" stop-color="rgb(70.303345%, 85.066223%, 97.801208%)" offset="0.933594"/><stop stop-opacity="1" stop-color="rgb(70.556641%, 85.256958%, 97.93396%)" offset="0.9375"/><stop stop-opacity="1" stop-color="rgb(70.811462%, 85.446167%, 98.066711%)" offset="0.941406"/><stop stop-opacity="1" stop-color="rgb(71.066284%, 85.635376%, 98.200989%)" offset="0.945312"/><stop stop-opacity="1" stop-color="rgb(71.31958%, 85.826111%, 98.33374%)" offset="0.949219"/><stop stop-opacity="1" stop-color="rgb(71.574402%, 86.01532%, 98.466492%)" offset="0.953125"/><stop stop-opacity="1" stop-color="rgb(71.829224%, 86.206055%, 98.600769%)" offset="0.957031"/><stop stop-opacity="1" stop-color="rgb(72.08252%, 86.395264%, 98.733521%)" offset="0.960938"/><stop stop-opacity="1" stop-color="rgb(72.337341%, 86.585999%, 98.866272%)" offset="0.964844"/><stop stop-opacity="1" stop-color="rgb(72.592163%, 86.775208%, 98.999023%)" offset="0.96875"/><stop stop-opacity="1" stop-color="rgb(72.845459%, 86.964417%, 99.133301%)" offset="0.972656"/><stop stop-opacity="1" stop-color="rgb(73.100281%, 87.155151%, 99.266052%)" offset="0.976562"/><stop stop-opacity="1" stop-color="rgb(73.355103%, 87.34436%, 99.398804%)" offset="0.980469"/><stop stop-opacity="1" stop-color="rgb(73.608398%, 87.535095%, 99.533081%)" offset="0.984375"/><stop stop-opacity="1" stop-color="rgb(73.86322%, 87.724304%, 99.665833%)" offset="0.988281"/><stop stop-opacity="1" stop-color="rgb(74.118042%, 87.913513%, 99.798584%)" offset="0.992188"/><stop stop-opacity="1" stop-color="rgb(74.371338%, 88.104248%, 99.932861%)" offset="0.996094"/><stop stop-opacity="1" stop-color="rgb(74.499512%, 88.198853%, 100%)" offset="1"/></radialGradient></defs><g clip-path="url(#d51676e6f3)"><path fill="#dbefff" d="M 492.433594 -44.542969 L 1417.101562 -44.542969 C 1431.589844 -44.542969 1443.335938 -32.808594 1443.335938 -18.332031 L 1443.335938 429.800781 C 1443.335938 444.273438 1431.589844 456.007812 1417.101562 456.007812 L 492.433594 456.007812 C 477.949219 456.007812 466.203125 444.273438 466.203125 429.800781 L 466.203125 -18.332031 C 466.203125 -32.808594 477.949219 -44.542969 492.433594 -44.542969 " fill-opacity="1" fill-rule="nonzero"/></g><g fill="#12558f" fill-opacity="1"><g transform="translate(519.52976, 252.447217)"><g><path d="M 88.304688 -51.753906 L 52.65625 -51.753906 L 52.65625 -40.894531 L 74.550781 -40.894531 L 74.550781 -13.210938 C 69.304688 -11.039062 62.972656 -9.769531 56.636719 -9.769531 C 35.105469 -9.769531 20.449219 -23.523438 20.449219 -47.410156 C 20.449219 -72.199219 34.925781 -87.039062 57.363281 -87.039062 C 68.761719 -87.039062 78.351562 -83.238281 85.953125 -78.535156 L 85.953125 -91.742188 C 79.078125 -95.722656 69.484375 -98.617188 57.363281 -98.617188 C 25.152344 -98.617188 5.789062 -77.808594 5.789062 -45.960938 C 5.789062 -16.828125 23.34375 1.992188 53.199219 1.992188 C 65.6875 1.992188 77.628906 -0.722656 88.304688 -5.789062 Z M 88.304688 -51.753906 "/></g></g></g><g fill="#12558f" fill-opacity="1"><g transform="translate(616.882041, 252.447217)"><g><path d="M 24.246094 -56.09375 L 23.34375 -68.039062 L 10.855469 -66.230469 L 10.855469 0 L 24.972656 0 L 24.972656 -50.125 C 30.941406 -55.191406 38.363281 -56.457031 46.144531 -57 L 46.144531 -69.125 C 40.894531 -68.941406 33.839844 -67.675781 29.855469 -65.6875 Z M 24.246094 -56.09375 "/></g></g></g><g fill="#12558f" fill-opacity="1"><g transform="translate(664.291516, 252.447217)"><g><path d="M 68.21875 -8.867188 C 64.78125 -8.867188 62.972656 -10.855469 62.972656 -14.65625 L 62.972656 -45.78125 C 62.972656 -61.886719 53.742188 -69.125 36.734375 -69.125 C 26.601562 -69.125 18.277344 -66.589844 13.933594 -64.601562 L 11.941406 -53.199219 C 17.550781 -55.914062 25.515625 -58.085938 33.296875 -58.085938 C 43.609375 -58.085938 49.21875 -54.105469 49.21875 -43.972656 L 49.21875 -37.277344 L 33.296875 -37.277344 C 13.210938 -37.277344 6.875 -26.960938 6.875 -17.191406 C 6.875 -5.246094 14.839844 1.992188 28.769531 1.992188 C 34.742188 1.992188 40.351562 0.542969 45.058594 -1.808594 L 50.304688 -9.410156 C 50.667969 -3.800781 54.105469 1.265625 62.429688 1.265625 C 65.6875 1.265625 68.582031 0.722656 70.570312 0 L 72.019531 -9.410156 C 72.019531 -9.410156 70.570312 -8.867188 68.21875 -8.867188 Z M 33.296875 -8.867188 C 24.246094 -8.867188 20.449219 -12.847656 20.449219 -18.636719 C 20.449219 -23.34375 23.523438 -27.867188 33.65625 -27.867188 L 49.21875 -27.867188 L 49.21875 -13.753906 C 44.875 -10.496094 39.449219 -8.867188 33.296875 -8.867188 Z M 33.296875 -8.867188 "/></g></g></g><g fill="#12558f" fill-opacity="1"><g transform="translate(739.567649, 252.447217)"><g><path d="M 38.179688 1.992188 C 46.6875 1.992188 53.742188 -0.363281 57.363281 -2.535156 L 59.351562 -13.933594 C 55.191406 -11.582031 48.675781 -9.589844 41.980469 -9.589844 C 27.867188 -9.589844 19.722656 -18.457031 19.722656 -32.933594 C 19.722656 -47.769531 28.046875 -57.90625 41.257812 -57.90625 C 47.769531 -57.90625 53.199219 -56.09375 58.085938 -52.65625 L 58.085938 -65.144531 C 53.742188 -67.675781 47.769531 -69.125 40.714844 -69.125 C 19.363281 -69.125 5.246094 -54.105469 5.246094 -31.484375 C 5.246094 -11.21875 17.007812 1.992188 38.179688 1.992188 Z M 38.179688 1.992188 "/></g></g></g><g fill="#12558f" fill-opacity="1"><g transform="translate(802.719973, 252.447217)"><g><path d="M 67.132812 -41.617188 C 67.132812 -58.085938 56.636719 -69.125 39.992188 -69.125 C 19.179688 -69.125 6.332031 -53.382812 6.332031 -31.667969 C 6.332031 -10.675781 18.277344 1.992188 40.894531 1.992188 C 50.847656 1.992188 58.628906 -0.542969 62.609375 -2.894531 L 64.417969 -14.113281 C 59.894531 -11.582031 52.65625 -9.230469 43.789062 -9.230469 C 28.046875 -9.230469 21.171875 -17.550781 20.449219 -31.304688 L 66.410156 -31.304688 C 66.953125 -34.5625 67.132812 -38.722656 67.132812 -41.617188 Z M 38.722656 -58.449219 C 48.675781 -58.449219 54.285156 -52.113281 54.285156 -40.894531 L 54.285156 -40.714844 L 20.992188 -40.714844 C 22.800781 -51.753906 29.3125 -58.449219 38.722656 -58.449219 Z M 38.722656 -58.449219 "/></g></g></g><g fill="#12558f" fill-opacity="1"><g transform="translate(877.091331, 252.447217)"><g/></g></g><g fill="#12558f" fill-opacity="1"><g transform="translate(909.843683, 252.447217)"><g><path d="M 35.828125 1.992188 C 57.363281 1.992188 70.027344 -8.6875 70.027344 -25.332031 C 70.027344 -39.085938 63.152344 -47.230469 47.589844 -53.019531 L 38 -56.820312 C 24.246094 -62.066406 20.992188 -66.953125 20.992188 -73.648438 C 20.992188 -81.789062 28.230469 -86.675781 40.535156 -86.675781 C 49.21875 -86.675781 57.363281 -84.324219 64.417969 -80.703125 L 64.417969 -93.914062 C 58.265625 -96.808594 50.304688 -98.4375 40.535156 -98.4375 C 20.265625 -98.4375 7.238281 -88.304688 7.238281 -72.019531 C 7.238281 -58.085938 14.839844 -50.304688 31.125 -44.152344 L 41.257812 -40.171875 C 53.019531 -35.648438 56.457031 -30.761719 56.457031 -23.703125 C 56.457031 -15.199219 49.582031 -9.769531 36.550781 -9.769531 C 24.972656 -9.769531 15.382812 -13.390625 8.324219 -18.636719 L 5.066406 -5.789062 C 14.113281 -0.179688 23.34375 1.992188 35.828125 1.992188 Z M 35.828125 1.992188 "/></g></g></g><g fill="#12558f" fill-opacity="1"><g transform="translate(985.662626, 252.447217)"><g><path d="M 38.179688 1.992188 C 46.6875 1.992188 53.742188 -0.363281 57.363281 -2.535156 L 59.351562 -13.933594 C 55.191406 -11.582031 48.675781 -9.589844 41.980469 -9.589844 C 27.867188 -9.589844 19.722656 -18.457031 19.722656 -32.933594 C 19.722656 -47.769531 28.046875 -57.90625 41.257812 -57.90625 C 47.769531 -57.90625 53.199219 -56.09375 58.085938 -52.65625 L 58.085938 -65.144531 C 53.742188 -67.675781 47.769531 -69.125 40.714844 -69.125 C 19.363281 -69.125 5.246094 -54.105469 5.246094 -31.484375 C 5.246094 -11.21875 17.007812 1.992188 38.179688 1.992188 Z M 38.179688 1.992188 "/></g></g></g><g fill="#12558f" fill-opacity="1"><g transform="translate(1048.814971, 252.447217)"><g><path d="M 40.351562 1.992188 C 60.800781 1.992188 74.191406 -12.484375 74.191406 -34.925781 C 74.191406 -56.09375 61.160156 -69.125 40.351562 -69.125 C 19.90625 -69.125 6.332031 -54.828125 6.332031 -32.390625 C 6.332031 -11.21875 19.542969 1.992188 40.351562 1.992188 Z M 40.351562 -9.230469 C 28.230469 -9.230469 20.628906 -18.820312 20.628906 -33.65625 C 20.628906 -48.3125 28.230469 -57.90625 40.351562 -57.90625 C 52.476562 -57.90625 59.894531 -48.3125 59.894531 -33.65625 C 59.894531 -18.820312 52.476562 -9.230469 40.351562 -9.230469 Z M 40.351562 -9.230469 "/></g></g></g><g fill="#12558f" fill-opacity="1"><g transform="translate(1129.15777, 252.447217)"><g><path d="M 50.667969 -67.3125 L 27.6875 -67.3125 L 27.6875 -86.132812 L 13.753906 -84.144531 L 13.753906 -67.3125 L 1.265625 -67.3125 L 1.265625 -56.277344 L 13.753906 -56.277344 L 13.753906 -18.09375 C 13.753906 -4.34375 20.449219 1.992188 33.476562 1.992188 C 39.085938 1.992188 44.695312 0.722656 48.496094 -1.085938 L 50.304688 -12.484375 C 47.046875 -10.855469 42.523438 -9.410156 37.820312 -9.410156 C 31.304688 -9.410156 27.6875 -12.304688 27.6875 -19.722656 L 27.6875 -56.277344 L 50.667969 -56.277344 Z M 50.667969 -67.3125 "/></g></g></g><g fill="#12558f" fill-opacity="1"><g transform="translate(1181.633889, 252.447217)"><g><path d="M 50.667969 -67.3125 L 27.6875 -67.3125 L 27.6875 -86.132812 L 13.753906 -84.144531 L 13.753906 -67.3125 L 1.265625 -67.3125 L 1.265625 -56.277344 L 13.753906 -56.277344 L 13.753906 -18.09375 C 13.753906 -4.34375 20.449219 1.992188 33.476562 1.992188 C 39.085938 1.992188 44.695312 0.722656 48.496094 -1.085938 L 50.304688 -12.484375 C 47.046875 -10.855469 42.523438 -9.410156 37.820312 -9.410156 C 31.304688 -9.410156 27.6875 -12.304688 27.6875 -19.722656 L 27.6875 -56.277344 L 50.667969 -56.277344 Z M 50.667969 -67.3125 "/></g></g></g><g fill="#12558f" fill-opacity="1"><g transform="translate(519.52976, 393.244008)"><g><path d="M 18.566406 -41.363281 L 55.371094 -41.363281 L 55.371094 -46.902344 L 18.566406 -46.902344 L 18.566406 -79.960938 L 58.789062 -79.960938 L 58.789062 -85.988281 L 11.886719 -85.988281 L 11.886719 0 L 60.417969 0 L 60.417969 -6.027344 L 18.566406 -6.027344 Z M 18.566406 -41.363281 "/></g></g></g><g fill="#12558f" fill-opacity="1"><g transform="translate(585.811581, 393.244008)"><g><path d="M 36.640625 -60.582031 C 27.359375 -60.582031 21.660156 -57.324219 20.84375 -56.835938 L 17.261719 -51.136719 L 16.773438 -59.441406 L 11.074219 -58.464844 L 11.074219 0 L 17.589844 0 L 17.589844 -48.695312 C 22.148438 -52.601562 27.523438 -54.71875 34.523438 -54.71875 C 45.761719 -54.71875 51.300781 -48.695312 51.300781 -38.433594 L 51.300781 0 L 57.8125 0 L 57.8125 -39.738281 C 57.8125 -53.90625 49.671875 -60.582031 36.640625 -60.582031 Z M 36.640625 -60.582031 "/></g></g></g><g fill="#12558f" fill-opacity="1"><g transform="translate(654.210516, 393.244008)"><g><path d="M 54.066406 -30.453125 C 54.394531 -32.40625 54.554688 -34.851562 54.554688 -37.132812 C 54.554688 -51.136719 46.089844 -60.582031 32.734375 -60.582031 C 15.796875 -60.582031 5.535156 -46.902344 5.535156 -27.683594 C 5.535156 -9.609375 15.144531 1.628906 33.386719 1.628906 C 41.691406 1.628906 48.53125 -0.8125 51.300781 -2.929688 L 52.277344 -8.792969 C 48.042969 -6.1875 41.527344 -4.070312 34.199219 -4.070312 C 19.378906 -4.070312 12.050781 -13.84375 12.050781 -28.5 L 12.050781 -30.453125 Z M 31.757812 -54.882812 C 42.667969 -54.882812 48.367188 -47.390625 48.367188 -36.480469 L 48.367188 -35.503906 L 12.539062 -35.503906 C 14.492188 -47.390625 21.660156 -54.882812 31.757812 -54.882812 Z M 31.757812 -54.882812 "/></g></g></g><g fill="#12558f" fill-opacity="1"><g transform="translate(714.792397, 393.244008)"><g><path d="M 17.261719 -50.160156 L 16.773438 -59.441406 L 11.074219 -58.464844 L 11.074219 0 L 17.589844 0 L 17.589844 -47.066406 C 22.800781 -52.765625 29.476562 -53.742188 36.804688 -54.394531 L 36.804688 -60.582031 C 31.917969 -60.417969 25.40625 -59.117188 21.824219 -57.324219 Z M 17.261719 -50.160156 "/></g></g></g><g fill="#12558f" fill-opacity="1"><g transform="translate(753.063233, 393.244008)"><g><path d="M 25.730469 -5.863281 C 19.378906 -5.863281 16.773438 -8.144531 16.773438 -12.050781 C 16.773438 -14.984375 18.402344 -17.75 21.007812 -20.195312 C 23.613281 -19.378906 26.707031 -18.890625 29.964844 -18.890625 C 42.34375 -18.890625 52.277344 -26.871094 52.277344 -40.386719 C 52.277344 -45.925781 50.484375 -50.648438 47.390625 -53.742188 L 59.769531 -55.046875 L 59.769531 -60.582031 L 40.875 -58.464844 C 37.78125 -59.769531 34.199219 -60.582031 29.964844 -60.582031 C 17.589844 -60.582031 7.492188 -52.4375 7.492188 -38.597656 C 7.492188 -31.105469 10.910156 -25.242188 16.9375 -21.824219 C 13.355469 -18.890625 10.585938 -15.144531 10.585938 -10.910156 C 10.585938 -7.492188 12.050781 -4.558594 14.65625 -2.605469 C 7.003906 0.976562 2.441406 6.515625 2.441406 13.515625 C 2.441406 24.753906 12.050781 32.570312 29.964844 32.570312 C 49.019531 32.570312 60.09375 24.101562 60.09375 10.421875 C 60.09375 1.140625 54.394531 -5.863281 41.039062 -5.863281 Z M 29.964844 -55.207031 C 39.574219 -55.207031 45.925781 -48.855469 45.925781 -39.738281 C 45.925781 -30.453125 39.410156 -24.265625 29.964844 -24.265625 C 20.355469 -24.265625 14.003906 -30.289062 14.003906 -39.246094 C 14.003906 -48.695312 20.519531 -55.207031 29.964844 -55.207031 Z M 30.289062 26.871094 C 16.121094 26.871094 8.957031 20.683594 8.957031 12.703125 C 8.957031 7.492188 12.539062 3.257812 19.054688 -0.324219 C 20.683594 0 22.472656 0.324219 24.589844 0.324219 L 39.738281 0.324219 C 48.367188 0.324219 53.578125 4.234375 53.578125 11.398438 C 53.578125 20.683594 44.949219 26.871094 30.289062 26.871094 Z M 30.289062 26.871094 "/></g></g></g><g fill="#12558f" fill-opacity="1"><g transform="translate(813.970837, 393.244008)"><g><path d="M 27.359375 -6.515625 L 7.328125 -59.441406 L 0.8125 -58.300781 L 23.125 0 L 25.078125 0 L 11.398438 30.78125 L 17.914062 32.570312 L 53.742188 -58.953125 L 47.226562 -58.953125 Z M 27.359375 -6.515625 "/></g></g></g><g fill="#12558f" fill-opacity="1"><g transform="translate(868.527084, 393.244008)"><g/></g></g><g fill="#12558f" fill-opacity="1"><g transform="translate(900.609433, 393.244008)"><g><path d="M 31.429688 1.628906 C 49.34375 1.628906 59.441406 -7.328125 59.441406 -20.84375 C 59.441406 -31.757812 54.230469 -38.433594 40.0625 -44.296875 L 30.453125 -48.203125 C 17.589844 -53.417969 14.003906 -58.628906 14.003906 -66.445312 C 14.003906 -75.726562 21.984375 -81.425781 34.035156 -81.425781 C 41.855469 -81.425781 48.855469 -79.308594 55.535156 -75.566406 L 55.535156 -82.566406 C 49.832031 -85.660156 42.667969 -87.453125 34.035156 -87.453125 C 18.078125 -87.453125 7.652344 -78.984375 7.652344 -65.628906 C 7.652344 -54.71875 12.703125 -48.042969 27.523438 -42.015625 L 37.457031 -38.109375 C 49.671875 -33.058594 52.929688 -27.523438 52.929688 -20.03125 C 52.929688 -10.421875 45.273438 -4.398438 32.082031 -4.398438 C 21.660156 -4.398438 13.515625 -7.003906 7.003906 -11.726562 L 4.886719 -5.375 C 13.027344 -0.164062 21.007812 1.628906 31.429688 1.628906 Z M 31.429688 1.628906 "/></g></g></g><g fill="#12558f" fill-opacity="1"><g transform="translate(965.751285, 393.244008)"><g><path d="M 33.222656 1.628906 C 49.832031 1.628906 60.746094 -10.75 60.746094 -30.289062 C 60.746094 -49.019531 49.996094 -60.582031 33.222656 -60.582031 C 16.609375 -60.582031 5.535156 -48.203125 5.535156 -28.664062 C 5.535156 -9.933594 16.449219 1.628906 33.222656 1.628906 Z M 33.222656 -4.070312 C 20.519531 -4.070312 12.050781 -14.003906 12.050781 -29.476562 C 12.050781 -44.949219 20.519531 -54.882812 33.222656 -54.882812 C 45.925781 -54.882812 54.230469 -44.949219 54.230469 -29.476562 C 54.230469 -14.003906 45.925781 -4.070312 33.222656 -4.070312 Z M 33.222656 -4.070312 "/></g></g></g><g fill="#12558f" fill-opacity="1"><g transform="translate(1032.033096, 393.244008)"><g><path d="M 17.589844 0 L 17.589844 -94.292969 L 11.074219 -93.152344 L 11.074219 0 Z M 17.589844 0 "/></g></g></g><g fill="#12558f" fill-opacity="1"><g transform="translate(1060.858372, 393.244008)"><g><path d="M 50.8125 -10.261719 C 46.25 -6.351562 40.875 -4.234375 33.875 -4.234375 C 22.472656 -4.234375 16.9375 -10.261719 16.9375 -20.519531 L 16.9375 -59.769531 L 10.421875 -58.628906 L 10.421875 -19.21875 C 10.421875 -5.046875 18.726562 1.628906 31.757812 1.628906 C 41.039062 1.628906 46.738281 -1.628906 47.554688 -2.117188 L 51.136719 -7.816406 L 51.460938 0 L 57.160156 0 L 57.160156 -59.929688 L 50.8125 -58.789062 Z M 50.8125 -10.261719 "/></g></g></g><g fill="#12558f" fill-opacity="1"><g transform="translate(1129.257297, 393.244008)"><g><path d="M 42.503906 -58.953125 L 19.867188 -58.953125 L 19.867188 -76.542969 L 13.515625 -75.402344 L 13.515625 -58.953125 L 0.8125 -58.953125 L 0.8125 -53.417969 L 13.515625 -53.417969 L 13.515625 -13.679688 C 13.515625 -3.257812 18.402344 1.628906 28.175781 1.628906 C 32.898438 1.628906 37.78125 0.488281 41.039062 -1.304688 L 42.015625 -7.164062 C 38.921875 -5.699219 34.199219 -4.234375 29.640625 -4.234375 C 23.289062 -4.234375 19.867188 -7.328125 19.867188 -14.65625 L 19.867188 -53.417969 L 42.503906 -53.417969 Z M 42.503906 -58.953125 "/></g></g></g><g fill="#12558f" fill-opacity="1"><g transform="translate(1173.06517, 393.244008)"><g><path d="M 14.492188 -74.914062 C 17.261719 -74.914062 19.542969 -77.03125 19.542969 -79.960938 C 19.542969 -82.730469 17.261719 -84.683594 14.492188 -84.683594 C 11.5625 -84.683594 9.28125 -82.730469 9.28125 -79.960938 C 9.28125 -77.03125 11.5625 -74.914062 14.492188 -74.914062 Z M 17.589844 0 L 17.589844 -59.441406 L 11.074219 -58.464844 L 11.074219 0 Z M 17.589844 0 "/></g></g></g><g fill="#12558f" fill-opacity="1"><g transform="translate(1201.890446, 393.244008)"><g><path d="M 33.222656 1.628906 C 49.832031 1.628906 60.746094 -10.75 60.746094 -30.289062 C 60.746094 -49.019531 49.996094 -60.582031 33.222656 -60.582031 C 16.609375 -60.582031 5.535156 -48.203125 5.535156 -28.664062 C 5.535156 -9.933594 16.449219 1.628906 33.222656 1.628906 Z M 33.222656 -4.070312 C 20.519531 -4.070312 12.050781 -14.003906 12.050781 -29.476562 C 12.050781 -44.949219 20.519531 -54.882812 33.222656 -54.882812 C 45.925781 -54.882812 54.230469 -44.949219 54.230469 -29.476562 C 54.230469 -14.003906 45.925781 -4.070312 33.222656 -4.070312 Z M 33.222656 -4.070312 "/></g></g></g><g fill="#12558f" fill-opacity="1"><g transform="translate(1268.172257, 393.244008)"><g><path d="M 36.640625 -60.582031 C 27.359375 -60.582031 21.660156 -57.324219 20.84375 -56.835938 L 17.261719 -51.136719 L 16.773438 -59.441406 L 11.074219 -58.464844 L 11.074219 0 L 17.589844 0 L 17.589844 -48.695312 C 22.148438 -52.601562 27.523438 -54.71875 34.523438 -54.71875 C 45.761719 -54.71875 51.300781 -48.695312 51.300781 -38.433594 L 51.300781 0 L 57.8125 0 L 57.8125 -39.738281 C 57.8125 -53.90625 49.671875 -60.582031 36.640625 -60.582031 Z M 36.640625 -60.582031 "/></g></g></g><g fill="#12558f" fill-opacity="1"><g transform="translate(1336.571182, 393.244008)"><g><path d="M 26.546875 1.464844 C 40.386719 1.464844 47.878906 -4.722656 47.878906 -14.332031 C 47.878906 -23.613281 42.992188 -27.683594 30.617188 -32.082031 L 26.058594 -33.546875 C 17.101562 -36.804688 13.84375 -40.0625 13.84375 -45.4375 C 13.84375 -50.648438 19.054688 -54.882812 28.664062 -54.882812 C 35.015625 -54.882812 40.386719 -53.417969 44.949219 -50.648438 L 44.949219 -57.488281 C 41.039062 -59.277344 35.503906 -60.582031 28.824219 -60.582031 C 15.796875 -60.582031 7.652344 -54.394531 7.652344 -44.785156 C 7.652344 -37.457031 11.074219 -32.40625 23.613281 -28.011719 L 28.011719 -26.546875 C 38.433594 -22.800781 41.691406 -19.707031 41.691406 -14.003906 C 41.691406 -8.304688 36.316406 -4.234375 27.035156 -4.234375 C 18.566406 -4.234375 12.539062 -6.675781 7.492188 -10.585938 L 5.699219 -4.558594 C 10.261719 -0.976562 16.773438 1.464844 26.546875 1.464844 Z M 26.546875 1.464844 "/></g></g></g><g clip-path="url(#855bc34610)"><g clip-path="url(#de7d3e434a)"><path fill="url(#69a77c62de)" d="M 62.300781 149.890625 L 62.300781 394.445312 L 308.597656 394.445312 L 308.597656 149.890625 Z M 62.300781 149.890625 " fill-rule="nonzero"/></g></g><g fill="#12558f" fill-opacity="1"><g transform="translate(0.666097, 428.474791)"><g><path d="M 183.703125 5.492188 C 284.820312 5.492188 340.871094 -72.0625 340.871094 -159.453125 L 182.101562 -159.453125 L 182.101562 -134.746094 L 312.503906 -134.746094 C 307.46875 -75.265625 263.085938 -19.675781 183.015625 -19.675781 C 107.980469 -19.675781 48.5 -77.324219 48.5 -155.792969 C 48.5 -234.035156 107.980469 -292.597656 183.015625 -292.597656 C 238.152344 -292.597656 283.675781 -264.460938 301.75 -216.875 L 329.203125 -216.875 C 311.128906 -280.246094 249.820312 -317.765625 183.703125 -317.765625 C 92.882812 -317.765625 21.503906 -246.386719 21.503906 -155.792969 C 21.503906 -65.886719 92.882812 5.492188 183.703125 5.492188 Z M 183.703125 5.492188 "/></g></g></g></svg>