<svg xmlns="http://www.w3.org/2000/svg" xmlns:xlink="http://www.w3.org/1999/xlink" width="2000" zoomAndPan="magnify" viewBox="0 0 1500 562.499983" height="750" preserveAspectRatio="xMidYMid meet" version="1.0"><defs><g/></defs><g fill="#ffffff" fill-opacity="1"><g transform="translate(0.666097, 238.300822)"><g><path d="M 132.027344 -77.375 L 78.730469 -77.375 L 78.730469 -61.144531 L 111.464844 -61.144531 L 111.464844 -19.75 C 103.621094 -16.503906 94.148438 -14.609375 84.679688 -14.609375 C 52.484375 -14.609375 30.570312 -35.171875 30.570312 -70.882812 C 30.570312 -107.949219 52.214844 -130.132812 85.761719 -130.132812 C 102.808594 -130.132812 117.148438 -124.453125 128.511719 -117.417969 L 128.511719 -137.167969 C 118.230469 -143.121094 103.890625 -147.449219 85.761719 -147.449219 C 37.605469 -147.449219 8.65625 -116.335938 8.65625 -68.71875 C 8.65625 -25.160156 34.902344 2.976562 79.539062 2.976562 C 98.207031 2.976562 116.066406 -1.082031 132.027344 -8.65625 Z M 132.027344 -77.375 "/></g></g></g><g fill="#ffffff" fill-opacity="1"><g transform="translate(146.22014, 238.300822)"><g><path d="M 36.253906 -83.871094 L 34.902344 -101.726562 L 16.234375 -99.019531 L 16.234375 0 L 37.335938 0 L 37.335938 -74.941406 C 46.261719 -82.515625 57.355469 -84.410156 68.988281 -85.222656 L 68.988281 -103.347656 C 61.144531 -103.078125 50.59375 -101.183594 44.640625 -98.207031 Z M 36.253906 -83.871094 "/></g></g></g><g fill="#ffffff" fill-opacity="1"><g transform="translate(217.103344, 238.300822)"><g><path d="M 101.996094 -13.257812 C 96.855469 -13.257812 94.148438 -16.234375 94.148438 -21.914062 L 94.148438 -68.449219 C 94.148438 -92.527344 80.351562 -103.347656 54.921875 -103.347656 C 39.769531 -103.347656 27.324219 -99.5625 20.832031 -96.585938 L 17.855469 -79.539062 C 26.242188 -83.597656 38.148438 -86.84375 49.78125 -86.84375 C 65.203125 -86.84375 73.589844 -80.894531 73.589844 -65.742188 L 73.589844 -55.734375 L 49.78125 -55.734375 C 19.75 -55.734375 10.28125 -40.3125 10.28125 -25.703125 C 10.28125 -7.847656 22.183594 2.976562 43.015625 2.976562 C 51.945312 2.976562 60.332031 0.8125 67.367188 -2.707031 L 75.210938 -14.070312 C 75.753906 -5.679688 80.894531 1.894531 93.339844 1.894531 C 98.207031 1.894531 102.539062 1.082031 105.511719 0 L 107.675781 -14.070312 C 107.675781 -14.070312 105.511719 -13.257812 101.996094 -13.257812 Z M 49.78125 -13.257812 C 36.253906 -13.257812 30.570312 -19.207031 30.570312 -27.867188 C 30.570312 -34.902344 35.171875 -41.664062 50.320312 -41.664062 L 73.589844 -41.664062 L 73.589844 -20.5625 C 67.09375 -15.691406 58.980469 -13.257812 49.78125 -13.257812 Z M 49.78125 -13.257812 "/></g></g></g><g fill="#ffffff" fill-opacity="1"><g transform="translate(329.650739, 238.300822)"><g><path d="M 57.085938 2.976562 C 69.800781 2.976562 80.351562 -0.542969 85.761719 -3.789062 L 88.738281 -20.832031 C 82.515625 -17.316406 72.777344 -14.339844 62.765625 -14.339844 C 41.664062 -14.339844 29.488281 -27.597656 29.488281 -49.238281 C 29.488281 -71.425781 41.933594 -86.574219 61.683594 -86.574219 C 71.425781 -86.574219 79.539062 -83.871094 86.84375 -78.730469 L 86.84375 -97.398438 C 80.351562 -101.183594 71.425781 -103.347656 60.875 -103.347656 C 28.949219 -103.347656 7.847656 -80.894531 7.847656 -47.074219 C 7.847656 -16.773438 25.429688 2.976562 57.085938 2.976562 Z M 57.085938 2.976562 "/></g></g></g><g fill="#ffffff" fill-opacity="1"><g transform="translate(424.071473, 238.300822)"><g><path d="M 100.371094 -62.226562 C 100.371094 -86.84375 84.679688 -103.347656 59.789062 -103.347656 C 28.679688 -103.347656 9.46875 -79.8125 9.46875 -47.347656 C 9.46875 -15.960938 27.324219 2.976562 61.144531 2.976562 C 76.023438 2.976562 87.65625 -0.8125 93.609375 -4.328125 L 96.316406 -21.101562 C 89.550781 -17.316406 78.730469 -13.796875 65.472656 -13.796875 C 41.933594 -13.796875 31.652344 -26.242188 30.570312 -46.804688 L 99.289062 -46.804688 C 100.101562 -51.675781 100.371094 -57.898438 100.371094 -62.226562 Z M 57.898438 -87.386719 C 72.777344 -87.386719 81.164062 -77.917969 81.164062 -61.144531 L 81.164062 -60.875 L 31.382812 -60.875 C 34.089844 -77.375 43.828125 -87.386719 57.898438 -87.386719 Z M 57.898438 -87.386719 "/></g></g></g><g fill="#ffffff" fill-opacity="1"><g transform="translate(535.266097, 238.300822)"><g/></g></g><g fill="#ffffff" fill-opacity="1"><g transform="translate(584.235047, 238.300822)"><g><path d="M 53.566406 2.976562 C 85.761719 2.976562 104.703125 -12.984375 104.703125 -37.875 C 104.703125 -58.4375 94.421875 -70.613281 71.152344 -79.269531 L 56.816406 -84.953125 C 36.253906 -92.796875 31.382812 -100.101562 31.382812 -110.113281 C 31.382812 -122.289062 42.207031 -129.59375 60.601562 -129.59375 C 73.589844 -129.59375 85.761719 -126.074219 96.316406 -120.664062 L 96.316406 -140.414062 C 87.117188 -144.742188 75.210938 -147.175781 60.601562 -147.175781 C 30.300781 -147.175781 10.820312 -132.027344 10.820312 -107.675781 C 10.820312 -86.84375 22.183594 -75.210938 46.535156 -66.011719 L 61.683594 -60.0625 C 79.269531 -53.296875 84.410156 -45.992188 84.410156 -35.441406 C 84.410156 -22.726562 74.128906 -14.609375 54.652344 -14.609375 C 37.335938 -14.609375 22.996094 -20.019531 12.445312 -27.867188 L 7.574219 -8.65625 C 21.101562 -0.269531 34.902344 2.976562 53.566406 2.976562 Z M 53.566406 2.976562 "/></g></g></g><g fill="#ffffff" fill-opacity="1"><g transform="translate(697.594023, 238.300822)"><g><path d="M 57.085938 2.976562 C 69.800781 2.976562 80.351562 -0.542969 85.761719 -3.789062 L 88.738281 -20.832031 C 82.515625 -17.316406 72.777344 -14.339844 62.765625 -14.339844 C 41.664062 -14.339844 29.488281 -27.597656 29.488281 -49.238281 C 29.488281 -71.425781 41.933594 -86.574219 61.683594 -86.574219 C 71.425781 -86.574219 79.539062 -83.871094 86.84375 -78.730469 L 86.84375 -97.398438 C 80.351562 -101.183594 71.425781 -103.347656 60.875 -103.347656 C 28.949219 -103.347656 7.847656 -80.894531 7.847656 -47.074219 C 7.847656 -16.773438 25.429688 2.976562 57.085938 2.976562 Z M 57.085938 2.976562 "/></g></g></g><g fill="#ffffff" fill-opacity="1"><g transform="translate(792.014802, 238.300822)"><g><path d="M 60.332031 2.976562 C 90.902344 2.976562 110.925781 -18.667969 110.925781 -52.214844 C 110.925781 -83.871094 91.445312 -103.347656 60.332031 -103.347656 C 29.761719 -103.347656 9.46875 -81.976562 9.46875 -48.429688 C 9.46875 -16.773438 29.21875 2.976562 60.332031 2.976562 Z M 60.332031 -13.796875 C 42.207031 -13.796875 30.84375 -28.136719 30.84375 -50.320312 C 30.84375 -72.234375 42.207031 -86.574219 60.332031 -86.574219 C 78.457031 -86.574219 89.550781 -72.234375 89.550781 -50.320312 C 89.550781 -28.136719 78.457031 -13.796875 60.332031 -13.796875 Z M 60.332031 -13.796875 "/></g></g></g><g fill="#ffffff" fill-opacity="1"><g transform="translate(912.137449, 238.300822)"><g><path d="M 75.753906 -100.644531 L 41.394531 -100.644531 L 41.394531 -128.78125 L 20.5625 -125.804688 L 20.5625 -100.644531 L 1.894531 -100.644531 L 1.894531 -84.140625 L 20.5625 -84.140625 L 20.5625 -27.054688 C 20.5625 -6.492188 30.570312 2.976562 50.050781 2.976562 C 58.4375 2.976562 66.824219 1.082031 72.507812 -1.625 L 75.210938 -18.667969 C 70.34375 -16.234375 63.578125 -14.070312 56.542969 -14.070312 C 46.804688 -14.070312 41.394531 -18.398438 41.394531 -29.488281 L 41.394531 -84.140625 L 75.753906 -84.140625 Z M 75.753906 -100.644531 "/></g></g></g><g fill="#ffffff" fill-opacity="1"><g transform="translate(990.595962, 238.300822)"><g><path d="M 75.753906 -100.644531 L 41.394531 -100.644531 L 41.394531 -128.78125 L 20.5625 -125.804688 L 20.5625 -100.644531 L 1.894531 -100.644531 L 1.894531 -84.140625 L 20.5625 -84.140625 L 20.5625 -27.054688 C 20.5625 -6.492188 30.570312 2.976562 50.050781 2.976562 C 58.4375 2.976562 66.824219 1.082031 72.507812 -1.625 L 75.210938 -18.667969 C 70.34375 -16.234375 63.578125 -14.070312 56.542969 -14.070312 C 46.804688 -14.070312 41.394531 -18.398438 41.394531 -29.488281 L 41.394531 -84.140625 L 75.753906 -84.140625 Z M 75.753906 -100.644531 "/></g></g></g><g fill="#ffffff" fill-opacity="1"><g transform="translate(0.666097, 448.940542)"><g><path d="M 27.757812 -61.847656 L 82.785156 -61.847656 L 82.785156 -70.125 L 27.757812 -70.125 L 27.757812 -119.554688 L 87.898438 -119.554688 L 87.898438 -128.5625 L 17.773438 -128.5625 L 17.773438 0 L 90.335938 0 L 90.335938 -9.007812 L 27.757812 -9.007812 Z M 27.757812 -61.847656 "/></g></g></g><g fill="#ffffff" fill-opacity="1"><g transform="translate(99.765776, 448.940542)"><g><path d="M 54.785156 -90.578125 C 40.90625 -90.578125 32.382812 -85.707031 31.167969 -84.976562 L 25.808594 -76.457031 L 25.078125 -88.875 L 16.558594 -87.414062 L 16.558594 0 L 26.296875 0 L 26.296875 -72.804688 C 33.113281 -78.648438 41.148438 -81.8125 51.621094 -81.8125 C 68.421875 -81.8125 76.699219 -72.804688 76.699219 -57.464844 L 76.699219 0 L 86.4375 0 L 86.4375 -59.410156 C 86.4375 -80.59375 74.265625 -90.578125 54.785156 -90.578125 Z M 54.785156 -90.578125 "/></g></g></g><g fill="#ffffff" fill-opacity="1"><g transform="translate(202.030823, 448.940542)"><g><path d="M 80.839844 -45.53125 C 81.324219 -48.453125 81.570312 -52.105469 81.570312 -55.515625 C 81.570312 -76.457031 68.90625 -90.578125 48.941406 -90.578125 C 23.617188 -90.578125 8.277344 -70.125 8.277344 -41.394531 C 8.277344 -14.367188 22.644531 2.433594 49.914062 2.433594 C 62.332031 2.433594 72.558594 -1.21875 76.699219 -4.382812 L 78.160156 -13.148438 C 71.828125 -9.253906 62.089844 -6.085938 51.132812 -6.085938 C 28.976562 -6.085938 18.019531 -20.695312 18.019531 -42.609375 L 18.019531 -45.53125 Z M 47.480469 -82.054688 C 63.792969 -82.054688 72.316406 -70.855469 72.316406 -54.542969 L 72.316406 -53.082031 L 18.75 -53.082031 C 21.671875 -70.855469 32.382812 -82.054688 47.480469 -82.054688 Z M 47.480469 -82.054688 "/></g></g></g><g fill="#ffffff" fill-opacity="1"><g transform="translate(292.608384, 448.940542)"><g><path d="M 25.808594 -74.996094 L 25.078125 -88.875 L 16.558594 -87.414062 L 16.558594 0 L 26.296875 0 L 26.296875 -70.367188 C 34.089844 -78.890625 44.070312 -80.351562 55.027344 -81.324219 L 55.027344 -90.578125 C 47.722656 -90.335938 37.984375 -88.386719 32.628906 -85.707031 Z M 25.808594 -74.996094 "/></g></g></g><g fill="#ffffff" fill-opacity="1"><g transform="translate(349.828102, 448.940542)"><g><path d="M 38.472656 -8.765625 C 28.976562 -8.765625 25.078125 -12.175781 25.078125 -18.019531 C 25.078125 -22.402344 27.515625 -26.539062 31.410156 -30.191406 C 35.304688 -28.976562 39.933594 -28.246094 44.800781 -28.246094 C 63.308594 -28.246094 78.160156 -40.175781 78.160156 -60.386719 C 78.160156 -68.664062 75.480469 -75.726562 70.855469 -80.351562 L 89.359375 -82.300781 L 89.359375 -90.578125 L 61.117188 -87.414062 C 56.488281 -89.359375 51.132812 -90.578125 44.800781 -90.578125 C 26.296875 -90.578125 11.199219 -78.402344 11.199219 -57.707031 C 11.199219 -46.507812 16.3125 -37.742188 25.324219 -32.628906 C 19.964844 -28.246094 15.828125 -22.644531 15.828125 -16.3125 C 15.828125 -11.199219 18.019531 -6.816406 21.914062 -3.894531 C 10.46875 1.460938 3.652344 9.738281 3.652344 20.210938 C 3.652344 37.011719 18.019531 48.699219 44.800781 48.699219 C 73.289062 48.699219 89.847656 36.035156 89.847656 15.582031 C 89.847656 1.703125 81.324219 -8.765625 61.359375 -8.765625 Z M 44.800781 -82.542969 C 59.167969 -82.542969 68.664062 -73.046875 68.664062 -59.410156 C 68.664062 -45.53125 58.925781 -36.28125 44.800781 -36.28125 C 30.4375 -36.28125 20.941406 -45.289062 20.941406 -58.679688 C 20.941406 -72.804688 30.679688 -82.542969 44.800781 -82.542969 Z M 45.289062 40.175781 C 24.105469 40.175781 13.390625 30.921875 13.390625 18.992188 C 13.390625 11.199219 18.75 4.871094 28.488281 -0.488281 C 30.921875 0 33.601562 0.488281 36.765625 0.488281 L 59.410156 0.488281 C 72.316406 0.488281 80.109375 6.332031 80.109375 17.042969 C 80.109375 30.921875 67.203125 40.175781 45.289062 40.175781 Z M 45.289062 40.175781 "/></g></g></g><g fill="#ffffff" fill-opacity="1"><g transform="translate(440.892657, 448.940542)"><g><path d="M 40.90625 -9.738281 L 10.957031 -88.875 L 1.21875 -87.167969 L 34.574219 0 L 37.496094 0 L 17.042969 46.019531 L 26.785156 48.699219 L 80.351562 -88.144531 L 70.613281 -88.144531 Z M 40.90625 -9.738281 "/></g></g></g><g fill="#ffffff" fill-opacity="1"><g transform="translate(522.461152, 448.940542)"><g/></g></g><g fill="#ffffff" fill-opacity="1"><g transform="translate(570.428308, 448.940542)"><g><path d="M 46.992188 2.433594 C 73.777344 2.433594 88.875 -10.957031 88.875 -31.167969 C 88.875 -47.480469 81.082031 -57.464844 59.898438 -66.230469 L 45.53125 -72.074219 C 26.296875 -79.863281 20.941406 -87.65625 20.941406 -99.34375 C 20.941406 -113.222656 32.871094 -121.746094 50.890625 -121.746094 C 62.578125 -121.746094 73.046875 -118.578125 83.03125 -112.980469 L 83.03125 -123.449219 C 74.507812 -128.074219 63.792969 -130.753906 50.890625 -130.753906 C 27.027344 -130.753906 11.445312 -118.09375 11.445312 -98.125 C 11.445312 -81.8125 18.992188 -71.828125 41.148438 -62.820312 L 56.003906 -56.976562 C 74.265625 -49.429688 79.132812 -41.148438 79.132812 -29.949219 C 79.132812 -15.582031 67.691406 -6.574219 47.96875 -6.574219 C 32.382812 -6.574219 20.210938 -10.46875 10.46875 -17.53125 L 7.304688 -8.035156 C 19.480469 -0.242188 31.410156 2.433594 46.992188 2.433594 Z M 46.992188 2.433594 "/></g></g></g><g fill="#ffffff" fill-opacity="1"><g transform="translate(667.8236, 448.940542)"><g><path d="M 49.671875 2.433594 C 74.507812 2.433594 90.820312 -16.070312 90.820312 -45.289062 C 90.820312 -73.289062 74.75 -90.578125 49.671875 -90.578125 C 24.835938 -90.578125 8.277344 -72.074219 8.277344 -42.855469 C 8.277344 -14.851562 24.59375 2.433594 49.671875 2.433594 Z M 49.671875 -6.085938 C 30.679688 -6.085938 18.019531 -20.941406 18.019531 -44.070312 C 18.019531 -67.203125 30.679688 -82.054688 49.671875 -82.054688 C 68.664062 -82.054688 81.082031 -67.203125 81.082031 -44.070312 C 81.082031 -20.941406 68.664062 -6.085938 49.671875 -6.085938 Z M 49.671875 -6.085938 "/></g></g></g><g fill="#ffffff" fill-opacity="1"><g transform="translate(766.923279, 448.940542)"><g><path d="M 26.296875 0 L 26.296875 -140.980469 L 16.558594 -139.277344 L 16.558594 0 Z M 26.296875 0 "/></g></g></g><g fill="#ffffff" fill-opacity="1"><g transform="translate(810.020678, 448.940542)"><g><path d="M 75.96875 -15.339844 C 69.152344 -9.496094 61.117188 -6.332031 50.644531 -6.332031 C 33.601562 -6.332031 25.324219 -15.339844 25.324219 -30.679688 L 25.324219 -89.359375 L 15.582031 -87.65625 L 15.582031 -28.730469 C 15.582031 -7.546875 28 2.433594 47.480469 2.433594 C 61.359375 2.433594 69.882812 -2.433594 71.097656 -3.164062 L 76.457031 -11.6875 L 76.941406 0 L 85.464844 0 L 85.464844 -89.605469 L 75.96875 -87.898438 Z M 75.96875 -15.339844 "/></g></g></g><g fill="#ffffff" fill-opacity="1"><g transform="translate(912.285725, 448.940542)"><g><path d="M 63.550781 -88.144531 L 29.707031 -88.144531 L 29.707031 -114.441406 L 20.210938 -112.734375 L 20.210938 -88.144531 L 1.21875 -88.144531 L 1.21875 -79.863281 L 20.210938 -79.863281 L 20.210938 -20.453125 C 20.210938 -4.871094 27.515625 2.433594 42.125 2.433594 C 49.183594 2.433594 56.488281 0.730469 61.359375 -1.949219 L 62.820312 -10.714844 C 58.195312 -8.523438 51.132812 -6.332031 44.316406 -6.332031 C 34.820312 -6.332031 29.707031 -10.957031 29.707031 -21.914062 L 29.707031 -79.863281 L 63.550781 -79.863281 Z M 63.550781 -88.144531 "/></g></g></g><g fill="#ffffff" fill-opacity="1"><g transform="translate(977.784018, 448.940542)"><g><path d="M 21.671875 -112.003906 C 25.808594 -112.003906 29.21875 -115.171875 29.21875 -119.554688 C 29.21875 -123.691406 25.808594 -126.613281 21.671875 -126.613281 C 17.289062 -126.613281 13.878906 -123.691406 13.878906 -119.554688 C 13.878906 -115.171875 17.289062 -112.003906 21.671875 -112.003906 Z M 26.296875 0 L 26.296875 -88.875 L 16.558594 -87.414062 L 16.558594 0 Z M 26.296875 0 "/></g></g></g><g fill="#ffffff" fill-opacity="1"><g transform="translate(1020.881418, 448.940542)"><g><path d="M 49.671875 2.433594 C 74.507812 2.433594 90.820312 -16.070312 90.820312 -45.289062 C 90.820312 -73.289062 74.75 -90.578125 49.671875 -90.578125 C 24.835938 -90.578125 8.277344 -72.074219 8.277344 -42.855469 C 8.277344 -14.851562 24.59375 2.433594 49.671875 2.433594 Z M 49.671875 -6.085938 C 30.679688 -6.085938 18.019531 -20.941406 18.019531 -44.070312 C 18.019531 -67.203125 30.679688 -82.054688 49.671875 -82.054688 C 68.664062 -82.054688 81.082031 -67.203125 81.082031 -44.070312 C 81.082031 -20.941406 68.664062 -6.085938 49.671875 -6.085938 Z M 49.671875 -6.085938 "/></g></g></g><g fill="#ffffff" fill-opacity="1"><g transform="translate(1119.981097, 448.940542)"><g><path d="M 54.785156 -90.578125 C 40.90625 -90.578125 32.382812 -85.707031 31.167969 -84.976562 L 25.808594 -76.457031 L 25.078125 -88.875 L 16.558594 -87.414062 L 16.558594 0 L 26.296875 0 L 26.296875 -72.804688 C 33.113281 -78.648438 41.148438 -81.8125 51.621094 -81.8125 C 68.421875 -81.8125 76.699219 -72.804688 76.699219 -57.464844 L 76.699219 0 L 86.4375 0 L 86.4375 -59.410156 C 86.4375 -80.59375 74.265625 -90.578125 54.785156 -90.578125 Z M 54.785156 -90.578125 "/></g></g></g><g fill="#ffffff" fill-opacity="1"><g transform="translate(1222.246144, 448.940542)"><g><path d="M 39.6875 2.191406 C 60.386719 2.191406 71.585938 -7.0625 71.585938 -21.425781 C 71.585938 -35.304688 64.28125 -41.394531 45.777344 -47.96875 L 38.957031 -50.160156 C 25.566406 -55.027344 20.695312 -59.898438 20.695312 -67.933594 C 20.695312 -75.726562 28.488281 -82.054688 42.855469 -82.054688 C 52.351562 -82.054688 60.386719 -79.863281 67.203125 -75.726562 L 67.203125 -85.953125 C 61.359375 -88.628906 53.082031 -90.578125 43.097656 -90.578125 C 23.617188 -90.578125 11.445312 -81.324219 11.445312 -66.960938 C 11.445312 -56.003906 16.558594 -48.453125 35.304688 -41.878906 L 41.878906 -39.6875 C 57.464844 -34.089844 62.332031 -29.460938 62.332031 -20.941406 C 62.332031 -12.417969 54.296875 -6.332031 40.417969 -6.332031 C 27.757812 -6.332031 18.75 -9.984375 11.199219 -15.828125 L 8.523438 -6.816406 C 15.339844 -1.460938 25.078125 2.191406 39.6875 2.191406 Z M 39.6875 2.191406 "/></g></g></g></svg>