<svg xmlns="http://www.w3.org/2000/svg" xmlns:xlink="http://www.w3.org/1999/xlink" width="1200" zoomAndPan="magnify" viewBox="0 0 900 899.99999" height="1200" preserveAspectRatio="xMidYMid meet" version="1.0"><path fill="#ffffff" d="M 449.773438 0 C 201.148438 0 0 201.375 0 450 C 0 698.625 201.148438 900 449.773438 900 C 698.398438 900 900 698.625 900 450 C 900 201.375 698.398438 0 449.773438 0 Z M 450 810 C 251.101562 810 90 648.898438 90 450 C 90 251.101562 251.101562 90 450 90 C 648.898438 90 810 251.101562 810 450 C 810 648.898438 648.898438 810 450 810 Z M 450 810 " fill-opacity="1" fill-rule="nonzero"/><path fill="#ffffff" d="M 472.5 225 L 405 225 L 405 495 L 641.023438 636.75 L 675 581.398438 L 472.5 461.25 Z M 472.5 225 " fill-opacity="1" fill-rule="nonzero"/></svg>