<svg xmlns="http://www.w3.org/2000/svg" xmlns:xlink="http://www.w3.org/1999/xlink" width="1200" zoomAndPan="magnify" viewBox="0 0 900 899.99999" height="1200" preserveAspectRatio="xMidYMid meet" version="1.0"><defs><clipPath id="1d7d944808"><path d="M 106.3125 5 L 794.0625 5 L 794.0625 891 L 106.3125 891 Z M 106.3125 5 " clip-rule="nonzero"/></clipPath></defs><g clip-path="url(#1d7d944808)"><path fill="#ffffff" d="M 450.421875 890.34375 C 448.226562 890.40625 446.050781 890.238281 443.890625 889.835938 C 441.734375 889.433594 439.640625 888.808594 437.617188 887.957031 C 435.59375 887.109375 433.683594 886.054688 431.882812 884.792969 C 430.085938 883.535156 428.441406 882.101562 426.949219 880.488281 C 414.742188 866.414062 106.3125 532.34375 106.3125 349.355469 C 106.3125 343.730469 106.453125 338.105469 106.734375 332.484375 C 107.011719 326.863281 107.425781 321.253906 107.980469 315.65625 C 108.535156 310.054688 109.226562 304.472656 110.054688 298.90625 C 110.878906 293.339844 111.84375 287.796875 112.945312 282.277344 C 114.042969 276.757812 115.28125 271.269531 116.648438 265.8125 C 118.019531 260.355469 119.523438 254.933594 121.15625 249.546875 C 122.792969 244.164062 124.5625 238.824219 126.460938 233.523438 C 128.355469 228.226562 130.382812 222.980469 132.539062 217.78125 C 134.695312 212.582031 136.980469 207.4375 139.386719 202.351562 C 141.796875 197.265625 144.328125 192.242188 146.984375 187.28125 C 149.636719 182.316406 152.414062 177.421875 155.308594 172.597656 C 158.207031 167.773438 161.21875 163.019531 164.347656 158.339844 C 167.476562 153.664062 170.71875 149.0625 174.074219 144.546875 C 177.425781 140.027344 180.890625 135.589844 184.464844 131.242188 C 188.035156 126.894531 191.714844 122.632812 195.496094 118.464844 C 199.277344 114.296875 203.160156 110.222656 207.140625 106.242188 C 211.125 102.265625 215.199219 98.386719 219.375 94.609375 C 223.546875 90.832031 227.808594 87.15625 232.160156 83.585938 C 236.515625 80.019531 240.953125 76.558594 245.476562 73.207031 C 249.996094 69.855469 254.601562 66.617188 259.28125 63.492188 C 263.964844 60.363281 268.71875 57.355469 273.550781 54.464844 C 278.378906 51.570312 283.277344 48.796875 288.242188 46.144531 C 293.207031 43.492188 298.238281 40.964844 303.328125 38.558594 C 308.417969 36.152344 313.5625 33.875 318.765625 31.722656 C 323.964844 29.570312 329.21875 27.542969 334.519531 25.648438 C 339.820312 23.753906 345.164062 21.988281 350.554688 20.355469 C 355.941406 18.722656 361.367188 17.222656 366.828125 15.855469 C 372.289062 14.488281 377.78125 13.257812 383.304688 12.160156 C 388.828125 11.0625 394.371094 10.101562 399.941406 9.273438 C 405.511719 8.449219 411.097656 7.761719 416.699219 7.210938 C 422.304688 6.65625 427.917969 6.242188 433.542969 5.96875 C 439.164062 5.691406 444.792969 5.554688 450.421875 5.554688 C 456.050781 5.554688 461.679688 5.691406 467.304688 5.96875 C 472.925781 6.242188 478.539062 6.65625 484.144531 7.210938 C 489.746094 7.761719 495.332031 8.449219 500.902344 9.273438 C 506.472656 10.101562 512.019531 11.0625 517.539062 12.160156 C 523.0625 13.257812 528.554688 14.488281 534.015625 15.855469 C 539.476562 17.222656 544.902344 18.722656 550.289062 20.355469 C 555.679688 21.988281 561.023438 23.753906 566.324219 25.648438 C 571.625 27.542969 576.878906 29.570312 582.078125 31.722656 C 587.28125 33.875 592.429688 36.152344 597.519531 38.558594 C 602.609375 40.964844 607.636719 43.492188 612.601562 46.144531 C 617.566406 48.796875 622.464844 51.570312 627.296875 54.464844 C 632.125 57.355469 636.878906 60.363281 641.5625 63.492188 C 646.246094 66.617188 650.847656 69.855469 655.371094 73.207031 C 659.890625 76.558594 664.332031 80.019531 668.683594 83.585938 C 673.035156 87.15625 677.296875 90.832031 681.472656 94.609375 C 685.644531 98.386719 689.71875 102.265625 693.703125 106.246094 C 697.683594 110.222656 701.566406 114.296875 705.347656 118.464844 C 709.128906 122.632812 712.808594 126.894531 716.378906 131.242188 C 719.953125 135.589844 723.417969 140.027344 726.773438 144.546875 C 730.125 149.0625 733.367188 153.664062 736.496094 158.339844 C 739.625 163.019531 742.640625 167.773438 745.535156 172.597656 C 748.429688 177.421875 751.207031 182.316406 753.863281 187.28125 C 756.515625 192.242188 759.046875 197.265625 761.457031 202.351562 C 763.867188 207.4375 766.148438 212.582031 768.304688 217.78125 C 770.460938 222.980469 772.488281 228.226562 774.386719 233.523438 C 776.285156 238.824219 778.050781 244.164062 779.6875 249.546875 C 781.324219 254.933594 782.824219 260.355469 784.195312 265.8125 C 785.566406 271.269531 786.800781 276.757812 787.898438 282.277344 C 789 287.796875 789.964844 293.339844 790.792969 298.90625 C 791.621094 304.472656 792.308594 310.054688 792.863281 315.65625 C 793.417969 321.253906 793.832031 326.863281 794.113281 332.484375 C 794.390625 338.105469 794.53125 343.730469 794.53125 349.355469 C 794.53125 532.34375 486.101562 865.476562 472.957031 880.488281 C 471.527344 882.050781 469.953125 883.449219 468.230469 884.683594 C 466.507812 885.917969 464.675781 886.957031 462.734375 887.804688 C 460.792969 888.652344 458.785156 889.292969 456.710938 889.71875 C 454.636719 890.148438 452.539062 890.355469 450.421875 890.34375 Z M 450.421875 66.898438 C 445.816406 66.917969 441.214844 67.050781 436.617188 67.292969 C 432.019531 67.539062 427.429688 67.894531 422.851562 68.359375 C 418.269531 68.828125 413.703125 69.40625 409.148438 70.097656 C 404.597656 70.789062 400.066406 71.589844 395.550781 72.503906 C 391.039062 73.414062 386.550781 74.433594 382.085938 75.566406 C 377.625 76.695312 373.191406 77.9375 368.789062 79.285156 C 364.382812 80.628906 360.015625 82.085938 355.683594 83.644531 C 351.355469 85.207031 347.0625 86.871094 342.8125 88.640625 C 338.5625 90.410156 334.355469 92.28125 330.199219 94.257812 C 326.039062 96.234375 321.929688 98.308594 317.875 100.484375 C 313.816406 102.660156 309.8125 104.933594 305.867188 107.304688 C 301.921875 109.675781 298.035156 112.140625 294.210938 114.703125 C 290.382812 117.261719 286.621094 119.914062 282.925781 122.660156 C 279.230469 125.402344 275.601562 128.238281 272.042969 131.160156 C 268.488281 134.078125 265.003906 137.085938 261.589844 140.175781 C 258.179688 143.269531 254.847656 146.441406 251.589844 149.695312 C 248.335938 152.949219 245.160156 156.28125 242.066406 159.691406 C 238.972656 163.101562 235.964844 166.582031 233.042969 170.136719 C 230.121094 173.695312 227.285156 177.320312 224.539062 181.015625 C 221.792969 184.707031 219.140625 188.46875 216.578125 192.289062 C 214.015625 196.113281 211.550781 200 209.175781 203.941406 C 206.804688 207.886719 204.53125 211.886719 202.351562 215.941406 C 200.175781 219.996094 198.097656 224.105469 196.125 228.261719 C 194.148438 232.417969 192.273438 236.621094 190.503906 240.867188 C 188.730469 245.117188 187.066406 249.402344 185.503906 253.734375 C 183.941406 258.0625 182.488281 262.429688 181.140625 266.828125 C 179.792969 271.230469 178.550781 275.660156 177.421875 280.121094 C 176.289062 284.582031 175.265625 289.066406 174.355469 293.578125 C 173.441406 298.089844 172.640625 302.621094 171.949219 307.167969 C 171.257812 311.71875 170.679688 316.285156 170.210938 320.863281 C 169.742188 325.441406 169.386719 330.027344 169.144531 334.621094 C 168.898438 339.21875 168.769531 343.816406 168.75 348.417969 C 168.75 469.941406 356.53125 705.007812 450.421875 812.691406 C 546.425781 705.007812 732.09375 469.941406 732.09375 348.417969 C 732.074219 343.816406 731.945312 339.21875 731.699219 334.621094 C 731.457031 330.027344 731.101562 325.441406 730.632812 320.863281 C 730.164062 316.285156 729.585938 311.71875 728.894531 307.167969 C 728.203125 302.621094 727.402344 298.089844 726.488281 293.578125 C 725.578125 289.066406 724.554688 284.582031 723.421875 280.121094 C 722.292969 275.660156 721.050781 271.230469 719.703125 266.828125 C 718.355469 262.429688 716.902344 258.0625 715.339844 253.734375 C 713.777344 249.402344 712.113281 245.117188 710.34375 240.867188 C 708.570312 236.621094 706.699219 232.417969 704.722656 228.261719 C 702.746094 224.105469 700.667969 219.996094 698.492188 215.941406 C 696.316406 211.886719 694.039062 207.886719 691.667969 203.941406 C 689.296875 200 686.828125 196.113281 684.265625 192.289062 C 681.703125 188.46875 679.050781 184.707031 676.304688 181.015625 C 673.558594 177.320312 670.722656 173.695312 667.800781 170.136719 C 664.878906 166.582031 661.871094 163.101562 658.777344 159.691406 C 655.683594 156.28125 652.507812 152.949219 649.253906 149.695312 C 645.996094 146.441406 642.664062 143.269531 639.253906 140.175781 C 635.84375 137.085938 632.359375 134.078125 628.800781 131.160156 C 625.242188 128.238281 621.613281 125.402344 617.917969 122.660156 C 614.222656 119.914062 610.460938 117.261719 606.636719 114.703125 C 602.808594 112.140625 598.921875 109.675781 594.976562 107.304688 C 591.03125 104.933594 587.027344 102.660156 582.972656 100.484375 C 578.914062 98.308594 574.804688 96.234375 570.644531 94.257812 C 566.488281 92.28125 562.28125 90.410156 558.03125 88.640625 C 553.78125 86.871094 549.492188 85.207031 545.160156 83.644531 C 540.828125 82.085938 536.460938 80.628906 532.058594 79.285156 C 527.652344 77.9375 523.222656 76.695312 518.757812 75.566406 C 514.292969 74.433594 509.804688 73.414062 505.292969 72.5 C 500.78125 71.589844 496.246094 70.789062 491.695312 70.097656 C 487.140625 69.40625 482.574219 68.828125 477.996094 68.359375 C 473.414062 67.894531 468.824219 67.539062 464.226562 67.292969 C 459.628906 67.050781 455.027344 66.917969 450.421875 66.898438 Z M 450.421875 66.898438 " fill-opacity="1" fill-rule="nonzero"/></g><path fill="#ffffff" d="M 450.421875 489.179688 C 447.886719 489.179688 445.351562 489.117188 442.820312 488.992188 C 440.289062 488.867188 437.761719 488.679688 435.238281 488.433594 C 432.714844 488.183594 430.199219 487.875 427.691406 487.503906 C 425.183594 487.128906 422.683594 486.695312 420.199219 486.203125 C 417.710938 485.707031 415.238281 485.152344 412.78125 484.539062 C 410.320312 483.921875 407.878906 483.246094 405.453125 482.511719 C 403.023438 481.773438 400.617188 480.980469 398.230469 480.125 C 395.84375 479.273438 393.480469 478.363281 391.136719 477.390625 C 388.792969 476.421875 386.476562 475.394531 384.183594 474.3125 C 381.894531 473.230469 379.628906 472.089844 377.394531 470.894531 C 375.15625 469.699219 372.953125 468.453125 370.777344 467.148438 C 368.601562 465.847656 366.460938 464.492188 364.351562 463.082031 C 362.246094 461.675781 360.171875 460.21875 358.136719 458.707031 C 356.101562 457.199219 354.101562 455.640625 352.140625 454.03125 C 350.183594 452.425781 348.261719 450.769531 346.382812 449.066406 C 344.503906 447.367188 342.671875 445.621094 340.878906 443.828125 C 339.085938 442.035156 337.335938 440.203125 335.632812 438.324219 C 333.929688 436.445312 332.277344 434.527344 330.667969 432.570312 C 329.058594 430.609375 327.5 428.613281 325.988281 426.578125 C 324.480469 424.542969 323.019531 422.472656 321.609375 420.363281 C 320.203125 418.257812 318.847656 416.117188 317.542969 413.945312 C 316.238281 411.769531 314.992188 409.566406 313.796875 407.332031 C 312.601562 405.097656 311.460938 402.835938 310.375 400.542969 C 309.292969 398.253906 308.265625 395.9375 307.296875 393.59375 C 306.324219 391.253906 305.414062 388.890625 304.558594 386.503906 C 303.703125 384.121094 302.910156 381.714844 302.171875 379.289062 C 301.4375 376.863281 300.761719 374.421875 300.144531 371.964844 C 299.527344 369.507812 298.972656 367.035156 298.480469 364.550781 C 297.984375 362.0625 297.550781 359.566406 297.179688 357.0625 C 296.808594 354.554688 296.496094 352.039062 296.25 349.519531 C 296 346.996094 295.8125 344.472656 295.6875 341.941406 C 295.566406 339.410156 295.503906 336.875 295.503906 334.34375 C 295.503906 331.808594 295.566406 329.277344 295.6875 326.746094 C 295.8125 324.214844 296 321.6875 296.25 319.167969 C 296.496094 316.644531 296.808594 314.128906 297.179688 311.625 C 297.550781 309.117188 297.984375 306.621094 298.480469 304.136719 C 298.972656 301.652344 299.527344 299.179688 300.144531 296.722656 C 300.761719 294.261719 301.4375 291.820312 302.171875 289.394531 C 302.910156 286.972656 303.703125 284.566406 304.558594 282.179688 C 305.414062 279.792969 306.324219 277.429688 307.296875 275.089844 C 308.265625 272.75 309.292969 270.433594 310.375 268.140625 C 311.460938 265.851562 312.601562 263.589844 313.796875 261.355469 C 314.992188 259.117188 316.238281 256.914062 317.542969 254.742188 C 318.847656 252.566406 320.203125 250.425781 321.609375 248.320312 C 323.019531 246.214844 324.480469 244.144531 325.988281 242.105469 C 327.5 240.070312 329.058594 238.074219 330.667969 236.117188 C 332.277344 234.15625 333.929688 232.238281 335.632812 230.363281 C 337.335938 228.484375 339.085938 226.648438 340.878906 224.859375 C 342.671875 223.066406 344.503906 221.320312 346.382812 219.617188 C 348.261719 217.914062 350.183594 216.261719 352.140625 214.652344 C 354.101562 213.046875 356.101562 211.488281 358.136719 209.976562 C 360.171875 208.46875 362.246094 207.007812 364.351562 205.601562 C 366.460938 204.195312 368.601562 202.839844 370.777344 201.535156 C 372.953125 200.234375 375.15625 198.984375 377.394531 197.789062 C 379.628906 196.59375 381.894531 195.457031 384.183594 194.375 C 386.476562 193.289062 388.792969 192.261719 391.136719 191.292969 C 393.480469 190.324219 395.84375 189.410156 398.230469 188.558594 C 400.617188 187.703125 403.023438 186.910156 405.453125 186.175781 C 407.878906 185.4375 410.320312 184.761719 412.78125 184.148438 C 415.238281 183.53125 417.710938 182.976562 420.199219 182.484375 C 422.683594 181.988281 425.183594 181.554688 427.691406 181.183594 C 430.199219 180.8125 432.714844 180.5 435.238281 180.253906 C 437.761719 180.003906 440.289062 179.816406 442.820312 179.695312 C 445.351562 179.570312 447.886719 179.507812 450.421875 179.507812 C 452.957031 179.507812 455.492188 179.570312 458.023438 179.695312 C 460.554688 179.816406 463.082031 180.003906 465.605469 180.253906 C 468.128906 180.5 470.644531 180.8125 473.152344 181.183594 C 475.660156 181.554688 478.160156 181.988281 480.644531 182.484375 C 483.132812 182.976562 485.605469 183.53125 488.066406 184.148438 C 490.523438 184.761719 492.96875 185.4375 495.394531 186.175781 C 497.820312 186.910156 500.226562 187.703125 502.613281 188.558594 C 505 189.410156 507.363281 190.324219 509.707031 191.292969 C 512.050781 192.261719 514.367188 193.289062 516.660156 194.375 C 518.949219 195.457031 521.214844 196.59375 523.449219 197.789062 C 525.6875 198.984375 527.890625 200.234375 530.066406 201.535156 C 532.242188 202.839844 534.382812 204.195312 536.492188 205.601562 C 538.597656 207.007812 540.671875 208.46875 542.707031 209.976562 C 544.746094 211.488281 546.742188 213.046875 548.703125 214.652344 C 550.664062 216.261719 552.582031 217.914062 554.460938 219.617188 C 556.339844 221.320312 558.175781 223.066406 559.96875 224.859375 C 561.761719 226.648438 563.507812 228.484375 565.210938 230.363281 C 566.914062 232.238281 568.570312 234.15625 570.175781 236.117188 C 571.785156 238.074219 573.34375 240.070312 574.855469 242.105469 C 576.367188 244.144531 577.824219 246.214844 579.234375 248.320312 C 580.640625 250.425781 581.996094 252.566406 583.300781 254.742188 C 584.605469 256.914062 585.855469 259.117188 587.050781 261.355469 C 588.246094 263.589844 589.382812 265.851562 590.46875 268.140625 C 591.550781 270.433594 592.578125 272.75 593.550781 275.089844 C 594.519531 277.429688 595.433594 279.792969 596.285156 282.179688 C 597.140625 284.566406 597.933594 286.972656 598.671875 289.394531 C 599.40625 291.820312 600.082031 294.261719 600.699219 296.722656 C 601.316406 299.179688 601.871094 301.652344 602.363281 304.136719 C 602.859375 306.621094 603.292969 309.117188 603.664062 311.625 C 604.039062 314.128906 604.347656 316.644531 604.597656 319.167969 C 604.84375 321.6875 605.03125 324.214844 605.15625 326.746094 C 605.28125 329.277344 605.34375 331.808594 605.34375 334.34375 C 605.339844 336.875 605.273438 339.40625 605.144531 341.9375 C 605.015625 344.464844 604.828125 346.992188 604.574219 349.511719 C 604.324219 352.03125 604.007812 354.546875 603.632812 357.050781 C 603.261719 359.554688 602.824219 362.050781 602.328125 364.535156 C 601.828125 367.015625 601.269531 369.488281 600.652344 371.945312 C 600.035156 374.398438 599.355469 376.839844 598.617188 379.261719 C 597.878906 381.6875 597.082031 384.089844 596.226562 386.472656 C 595.371094 388.859375 594.457031 391.21875 593.488281 393.558594 C 592.515625 395.898438 591.488281 398.214844 590.402344 400.503906 C 589.316406 402.789062 588.175781 405.050781 586.980469 407.285156 C 585.785156 409.519531 584.535156 411.722656 583.230469 413.894531 C 581.925781 416.066406 580.570312 418.203125 579.160156 420.308594 C 577.753906 422.414062 576.292969 424.484375 574.78125 426.519531 C 573.273438 428.550781 571.714844 430.546875 570.105469 432.507812 C 568.496094 434.464844 566.84375 436.382812 565.140625 438.257812 C 563.4375 440.132812 561.691406 441.96875 559.898438 443.757812 C 558.105469 445.550781 556.273438 447.296875 554.394531 448.996094 C 552.515625 450.699219 550.597656 452.351562 548.640625 453.960938 C 546.679688 455.566406 544.683594 457.125 542.648438 458.636719 C 540.613281 460.144531 538.542969 461.605469 536.4375 463.011719 C 534.328125 464.417969 532.1875 465.773438 530.015625 467.078125 C 527.84375 468.382812 525.640625 469.632812 523.40625 470.828125 C 521.171875 472.023438 518.90625 473.160156 516.617188 474.246094 C 514.328125 475.332031 512.011719 476.359375 509.671875 477.328125 C 507.332031 478.300781 504.96875 479.214844 502.582031 480.070312 C 500.195312 480.925781 497.792969 481.722656 495.367188 482.457031 C 492.941406 483.195312 490.5 483.875 488.042969 484.492188 C 485.585938 485.109375 483.113281 485.667969 480.628906 486.164062 C 478.144531 486.660156 475.648438 487.097656 473.140625 487.472656 C 470.636719 487.847656 468.121094 488.160156 465.601562 488.410156 C 463.078125 488.664062 460.550781 488.851562 458.019531 488.980469 C 455.488281 489.109375 452.957031 489.175781 450.421875 489.179688 Z M 450.421875 240.972656 C 448.886719 240.972656 447.351562 241.011719 445.816406 241.085938 C 444.28125 241.160156 442.75 241.273438 441.21875 241.425781 C 439.691406 241.574219 438.164062 241.761719 436.644531 241.988281 C 435.125 242.214844 433.613281 242.476562 432.105469 242.777344 C 430.597656 243.074219 429.097656 243.410156 427.609375 243.785156 C 426.117188 244.15625 424.636719 244.566406 423.167969 245.011719 C 421.695312 245.457031 420.238281 245.941406 418.792969 246.457031 C 417.34375 246.976562 415.910156 247.527344 414.492188 248.117188 C 413.070312 248.703125 411.667969 249.324219 410.277344 249.980469 C 408.890625 250.636719 407.515625 251.328125 406.164062 252.054688 C 404.808594 252.777344 403.46875 253.535156 402.152344 254.324219 C 400.835938 255.113281 399.535156 255.933594 398.257812 256.789062 C 396.980469 257.640625 395.726562 258.523438 394.492188 259.4375 C 393.257812 260.355469 392.046875 261.296875 390.859375 262.273438 C 389.671875 263.246094 388.507812 264.25 387.367188 265.28125 C 386.230469 266.3125 385.117188 267.371094 384.03125 268.457031 C 382.945312 269.542969 381.886719 270.65625 380.855469 271.792969 C 379.820312 272.929688 378.820312 274.09375 377.84375 275.28125 C 376.867188 276.46875 375.921875 277.679688 375.007812 278.910156 C 374.09375 280.144531 373.207031 281.402344 372.355469 282.675781 C 371.5 283.953125 370.679688 285.25 369.890625 286.570312 C 369.097656 287.886719 368.34375 289.222656 367.617188 290.578125 C 366.894531 291.929688 366.203125 293.300781 365.546875 294.691406 C 364.890625 296.078125 364.265625 297.480469 363.679688 298.902344 C 363.089844 300.320312 362.539062 301.753906 362.019531 303.199219 C 361.503906 304.644531 361.019531 306.101562 360.574219 307.570312 C 360.128906 309.042969 359.71875 310.519531 359.34375 312.011719 C 358.972656 313.5 358.636719 315 358.335938 316.503906 C 358.035156 318.011719 357.773438 319.523438 357.546875 321.042969 C 357.320312 322.5625 357.132812 324.085938 356.984375 325.613281 C 356.832031 327.140625 356.71875 328.671875 356.644531 330.207031 C 356.570312 331.742188 356.53125 333.277344 356.53125 334.8125 C 356.53125 336.347656 356.570312 337.882812 356.644531 339.417969 C 356.71875 340.949219 356.832031 342.480469 356.984375 344.011719 C 357.132812 345.539062 357.320312 347.0625 357.546875 348.582031 C 357.773438 350.101562 358.035156 351.613281 358.335938 353.117188 C 358.636719 354.625 358.972656 356.125 359.34375 357.613281 C 359.71875 359.101562 360.128906 360.582031 360.574219 362.050781 C 361.019531 363.523438 361.503906 364.980469 362.019531 366.425781 C 362.539062 367.871094 363.089844 369.304688 363.679688 370.722656 C 364.265625 372.140625 364.890625 373.546875 365.546875 374.933594 C 366.203125 376.320312 366.894531 377.691406 367.617188 379.046875 C 368.34375 380.402344 369.097656 381.738281 369.890625 383.054688 C 370.679688 384.371094 371.5 385.667969 372.355469 386.945312 C 373.207031 388.222656 374.09375 389.480469 375.007812 390.710938 C 375.921875 391.945312 376.867188 393.15625 377.84375 394.34375 C 378.820312 395.53125 379.820312 396.691406 380.855469 397.832031 C 381.886719 398.96875 382.945312 400.082031 384.03125 401.167969 C 385.117188 402.253906 386.230469 403.3125 387.367188 404.34375 C 388.507812 405.375 389.671875 406.375 390.859375 407.351562 C 392.046875 408.324219 393.257812 409.269531 394.492188 410.183594 C 395.726562 411.097656 396.980469 411.984375 398.257812 412.835938 C 399.535156 413.691406 400.835938 414.511719 402.152344 415.300781 C 403.46875 416.089844 404.808594 416.847656 406.164062 417.570312 C 407.515625 418.296875 408.890625 418.984375 410.277344 419.640625 C 411.667969 420.296875 413.070312 420.921875 414.492188 421.507812 C 415.910156 422.097656 417.34375 422.648438 418.792969 423.164062 C 420.238281 423.683594 421.695312 424.164062 423.167969 424.609375 C 424.636719 425.054688 426.117188 425.464844 427.609375 425.839844 C 429.097656 426.210938 430.597656 426.546875 432.105469 426.847656 C 433.613281 427.148438 435.125 427.410156 436.644531 427.636719 C 438.164062 427.859375 439.691406 428.050781 441.21875 428.199219 C 442.75 428.351562 444.28125 428.464844 445.816406 428.539062 C 447.351562 428.613281 448.886719 428.652344 450.421875 428.652344 C 451.957031 428.652344 453.496094 428.613281 455.027344 428.539062 C 456.5625 428.464844 458.097656 428.351562 459.625 428.199219 C 461.15625 428.050781 462.679688 427.859375 464.199219 427.636719 C 465.71875 427.410156 467.230469 427.148438 468.738281 426.847656 C 470.246094 426.546875 471.746094 426.210938 473.234375 425.839844 C 474.726562 425.464844 476.207031 425.054688 477.675781 424.609375 C 479.148438 424.164062 480.605469 423.683594 482.054688 423.164062 C 483.5 422.648438 484.933594 422.097656 486.351562 421.507812 C 487.773438 420.921875 489.175781 420.296875 490.566406 419.640625 C 491.953125 418.984375 493.328125 418.296875 494.683594 417.570312 C 496.039062 416.847656 497.375 416.089844 498.691406 415.300781 C 500.007812 414.511719 501.308594 413.691406 502.585938 412.835938 C 503.863281 411.984375 505.117188 411.097656 506.351562 410.183594 C 507.585938 409.269531 508.796875 408.324219 509.984375 407.351562 C 511.171875 406.375 512.335938 405.375 513.476562 404.34375 C 514.613281 403.3125 515.726562 402.253906 516.8125 401.167969 C 517.898438 400.082031 518.957031 398.96875 519.992188 397.832031 C 521.023438 396.691406 522.027344 395.53125 523 394.34375 C 523.976562 393.15625 524.921875 391.945312 525.835938 390.710938 C 526.75 389.480469 527.636719 388.222656 528.488281 386.945312 C 529.34375 385.667969 530.164062 384.371094 530.953125 383.054688 C 531.746094 381.738281 532.503906 380.402344 533.226562 379.046875 C 533.949219 377.691406 534.640625 376.320312 535.296875 374.933594 C 535.957031 373.546875 536.578125 372.140625 537.164062 370.722656 C 537.753906 369.304688 538.308594 367.871094 538.824219 366.425781 C 539.34375 364.980469 539.824219 363.523438 540.269531 362.050781 C 540.714844 360.582031 541.125 359.101562 541.5 357.613281 C 541.871094 356.125 542.210938 354.625 542.507812 353.117188 C 542.808594 351.613281 543.070312 350.101562 543.296875 348.582031 C 543.523438 347.0625 543.710938 345.539062 543.859375 344.011719 C 544.011719 342.480469 544.125 340.949219 544.199219 339.417969 C 544.273438 337.882812 544.3125 336.347656 544.3125 334.8125 C 544.328125 333.265625 544.304688 331.722656 544.246094 330.175781 C 544.183594 328.632812 544.085938 327.089844 543.949219 325.550781 C 543.8125 324.011719 543.636719 322.476562 543.421875 320.945312 C 543.210938 319.414062 542.960938 317.890625 542.671875 316.371094 C 542.382812 314.855469 542.058594 313.34375 541.695312 311.839844 C 541.332031 310.339844 540.929688 308.847656 540.496094 307.363281 C 540.058594 305.882812 539.585938 304.410156 539.074219 302.953125 C 538.566406 301.492188 538.019531 300.046875 537.4375 298.613281 C 536.859375 297.183594 536.242188 295.765625 535.589844 294.363281 C 534.9375 292.960938 534.253906 291.578125 533.535156 290.207031 C 532.816406 288.839844 532.0625 287.492188 531.277344 286.160156 C 530.488281 284.828125 529.671875 283.519531 528.820312 282.226562 C 527.96875 280.9375 527.085938 279.667969 526.171875 278.421875 C 525.257812 277.175781 524.3125 275.953125 523.339844 274.75 C 522.367188 273.550781 521.363281 272.375 520.328125 271.226562 C 519.296875 270.074219 518.238281 268.949219 517.148438 267.851562 C 516.0625 266.753906 514.945312 265.683594 513.804688 264.640625 C 512.664062 263.597656 511.5 262.582031 510.308594 261.597656 C 509.117188 260.609375 507.902344 259.65625 506.664062 258.730469 C 505.425781 257.804688 504.164062 256.910156 502.882812 256.046875 C 501.597656 255.179688 500.296875 254.351562 498.972656 253.550781 C 497.648438 252.75 496.304688 251.984375 494.945312 251.253906 C 493.582031 250.519531 492.203125 249.820312 490.808594 249.15625 C 489.410156 248.492188 488 247.863281 486.570312 247.265625 C 485.144531 246.671875 483.703125 246.113281 482.25 245.589844 C 480.792969 245.066406 479.328125 244.578125 477.847656 244.125 C 476.367188 243.675781 474.878906 243.261719 473.378906 242.882812 C 471.878906 242.503906 470.371094 242.164062 468.855469 241.859375 C 467.339844 241.554688 465.816406 241.289062 464.285156 241.0625 C 462.757812 240.835938 461.222656 240.644531 459.683594 240.492188 C 458.144531 240.339844 456.601562 240.226562 455.058594 240.148438 C 453.515625 240.070312 451.96875 240.035156 450.421875 240.035156 Z M 450.421875 240.972656 " fill-opacity="1" fill-rule="nonzero"/></svg>