<svg xmlns="http://www.w3.org/2000/svg" xmlns:xlink="http://www.w3.org/1999/xlink" width="1200" zoomAndPan="magnify" viewBox="0 0 900 899.99999" height="1200" preserveAspectRatio="xMidYMid meet" version="1.0"><defs><g/></defs><g fill="#ffffff" fill-opacity="1"><g transform="translate(0.89063, 562.907086)"><g><path d="M 347.0625 -10.078125 C 347.0625 -6.992188 345.734375 -3.769531 343.078125 -0.40625 C 340.421875 2.945312 337.691406 4.625 334.890625 4.625 C 331.671875 4.625 326.804688 4.023438 320.296875 2.828125 C 313.785156 1.640625 308.851562 1.046875 305.5 1.046875 C 302.28125 1.046875 297.414062 1.640625 290.90625 2.828125 C 284.394531 4.023438 279.53125 4.625 276.3125 4.625 C 262.59375 4.625 255.734375 1.050781 255.734375 -6.09375 C 255.734375 -10.988281 260.734375 -16.898438 270.734375 -23.828125 C 280.742188 -30.753906 285.75 -39.816406 285.75 -51.015625 C 285.75 -51.859375 286.378906 -63.195312 287.640625 -85.03125 C 288.347656 -98.613281 288.703125 -108.691406 288.703125 -115.265625 C 288.703125 -122.960938 288.421875 -132.972656 287.859375 -145.296875 C 287.160156 -160.691406 286.8125 -170.695312 286.8125 -175.3125 C 286.53125 -185.8125 283.238281 -191.0625 276.9375 -191.0625 C 274.414062 -191.0625 268.75 -182.664062 259.9375 -165.875 C 255.59375 -157.75 246.351562 -138.921875 232.21875 -109.390625 C 220.457031 -84.890625 210.445312 -65.289062 202.1875 -50.59375 C 200.09375 -46.820312 195.265625 -36.1875 187.703125 -18.6875 C 182.390625 -6.644531 178.75 -0.625 176.78125 -0.625 C 172.445312 -0.625 168.179688 -6.4375 163.984375 -18.0625 C 162.722656 -21.132812 158.171875 -34.988281 150.328125 -59.625 L 125.5625 -110.4375 C 100.363281 -161.945312 85.734375 -187.703125 81.671875 -187.703125 C 77.753906 -187.703125 74.816406 -180.070312 72.859375 -164.8125 C 71.597656 -154.738281 70.96875 -145.363281 70.96875 -136.6875 C 70.96875 -116.945312 71.390625 -86.289062 72.234375 -44.71875 C 72.367188 -40.238281 77.367188 -34.320312 87.234375 -26.96875 C 97.109375 -19.625 102.046875 -13.785156 102.046875 -9.453125 C 102.046875 -1.609375 98.613281 2.3125 91.75 2.3125 C 91.1875 2.3125 85.378906 1.539062 74.328125 0 C 68.722656 -0.695312 64.171875 -1.046875 60.671875 -1.046875 C 57.597656 -1.046875 51.300781 -0.554688 41.78125 0.421875 C 36.1875 0.984375 32.335938 1.265625 30.234375 1.265625 C 24.640625 1.265625 21.84375 -3.144531 21.84375 -11.96875 C 21.84375 -13.363281 24.359375 -16.09375 29.390625 -20.15625 C 35.691406 -25.332031 40.382812 -30.019531 43.46875 -34.21875 C 48.5 -41.363281 51.015625 -49.484375 51.015625 -58.578125 C 52.835938 -75.234375 53.75 -97.835938 53.75 -126.390625 C 53.75 -136.890625 53.398438 -150.539062 52.703125 -167.34375 C 52.003906 -188.613281 51.582031 -202.257812 51.4375 -208.28125 C 51.15625 -221.71875 48.078125 -232.492188 42.203125 -240.609375 C 42.203125 -240.609375 35.414062 -249.21875 21.84375 -266.4375 C 21.84375 -273.15625 25.410156 -276.515625 32.546875 -276.515625 C 33.523438 -276.515625 37.375 -275.394531 44.09375 -273.15625 L 57.734375 -268.75 C 64.734375 -267.632812 74.601562 -265.1875 87.34375 -261.40625 C 91.539062 -259.582031 94.898438 -255.734375 97.421875 -249.859375 C 98.398438 -247.472656 100.082031 -241.734375 102.46875 -232.640625 C 103.300781 -229.421875 106.519531 -222.070312 112.125 -210.59375 C 116.601562 -202.050781 123.109375 -189.238281 131.640625 -172.15625 C 140.179688 -155.082031 147.390625 -139.96875 153.265625 -126.8125 C 161.523438 -108.476562 167.828125 -95.253906 172.171875 -87.140625 C 178.191406 -75.660156 182.53125 -69.921875 185.1875 -69.921875 C 189.382812 -69.921875 194.632812 -74.816406 200.9375 -84.609375 C 205.832031 -92.453125 212.128906 -104.628906 219.828125 -121.140625 L 243.5625 -172.171875 C 252.789062 -191.898438 260.273438 -208.90625 266.015625 -223.1875 C 267.140625 -225.84375 269.734375 -234.875 273.796875 -250.28125 C 275.328125 -255.738281 276.65625 -259.164062 277.78125 -260.5625 C 280.300781 -263.363281 288.695312 -266.863281 302.96875 -271.0625 C 316.550781 -274.976562 325.863281 -276.9375 330.90625 -276.9375 C 336.21875 -276.9375 338.875 -274.554688 338.875 -269.796875 C 338.875 -267.703125 335.164062 -262.769531 327.75 -255 C 320.332031 -247.226562 316.625 -241.453125 316.625 -237.671875 C 316.625 -218.359375 316.484375 -197.222656 316.203125 -174.265625 C 315.503906 -133.253906 315.15625 -112.816406 315.15625 -112.953125 L 317.046875 -49.765625 C 317.460938 -37.585938 322.566406 -28.90625 332.359375 -23.71875 C 342.160156 -18.539062 347.0625 -13.992188 347.0625 -10.078125 Z M 347.0625 -10.078125 "/></g></g><g transform="translate(364.750814, 562.907086)"><g><path d="M 135.640625 -143.1875 C 135.640625 -128.914062 127.800781 -116.25 112.125 -105.1875 C 97.84375 -95.113281 83.285156 -90.078125 68.453125 -90.078125 C 66.066406 -90.078125 62.632812 -90.492188 58.15625 -91.328125 C 53.675781 -92.171875 50.25 -92.59375 47.875 -92.59375 C 34.007812 -92.59375 27.078125 -81.816406 27.078125 -60.265625 C 27.078125 -39.265625 37.085938 -28.765625 57.109375 -28.765625 C 68.585938 -28.765625 80.695312 -33.59375 93.4375 -43.25 C 106.175781 -52.90625 112.125 -57.734375 111.28125 -57.734375 C 119.820312 -57.734375 124.09375 -55.566406 124.09375 -51.234375 C 124.09375 -49.691406 123.320312 -47.453125 121.78125 -44.515625 C 114.78125 -31.210938 104.910156 -20.46875 92.171875 -12.28125 C 79.429688 -4.09375 65.710938 0 51.015625 0 C 33.242188 0 19.878906 -6.925781 10.921875 -20.78125 C 3.503906 -32.40625 -0.203125 -47.59375 -0.203125 -66.34375 C -0.203125 -95.457031 8.191406 -121.285156 24.984375 -143.828125 C 43.316406 -168.460938 66.550781 -180.78125 94.6875 -180.78125 C 105.332031 -180.78125 114.816406 -177.140625 123.140625 -169.859375 C 131.472656 -162.578125 135.640625 -153.6875 135.640625 -143.1875 Z M 106.03125 -133.953125 C 106.03125 -139.835938 103.820312 -144.878906 99.40625 -149.078125 C 95 -153.273438 89.859375 -155.375 83.984375 -155.375 C 76.421875 -155.375 68.929688 -151.28125 61.515625 -143.09375 C 54.097656 -134.90625 50.390625 -127.03125 50.390625 -119.46875 C 50.390625 -116.101562 52.347656 -113.09375 56.265625 -110.4375 C 59.765625 -108.195312 63.335938 -107.078125 66.984375 -107.078125 C 74.679688 -107.078125 82.867188 -109.597656 91.546875 -114.640625 C 101.203125 -120.378906 106.03125 -126.816406 106.03125 -133.953125 Z M 106.03125 -133.953125 "/></g></g><g transform="translate(505.213864, 562.907086)"><g><path d="M 130.390625 -174.890625 C 130.390625 -163.421875 122.203125 -157.6875 105.828125 -157.6875 C 103.304688 -157.6875 99.5625 -157.894531 94.59375 -158.3125 C 89.625 -158.726562 85.878906 -158.9375 83.359375 -158.9375 C 75.660156 -158.9375 70.128906 -155.71875 66.765625 -149.28125 C 65.785156 -147.320312 63.828125 -140.8125 60.890625 -129.75 L 38.84375 -46.40625 C 38.5625 -45.28125 38.421875 -44.019531 38.421875 -42.625 C 38.421875 -34.363281 42.269531 -30.234375 49.96875 -30.234375 C 56.6875 -30.234375 63.507812 -35.585938 70.4375 -46.296875 C 77.363281 -57.003906 82.929688 -62.359375 87.140625 -62.359375 C 93.710938 -62.359375 97 -59.421875 97 -53.546875 C 97 -46.828125 92.726562 -37.238281 84.1875 -24.78125 C 72.851562 -8.257812 57.039062 0 36.75 0 C 29.320312 0 22.601562 -2.304688 16.59375 -6.921875 C 9.875 -11.828125 6.515625 -17.847656 6.515625 -24.984375 C 6.515625 -37.304688 15.398438 -72.71875 33.171875 -131.21875 C 36.671875 -142.695312 38.421875 -149.628906 38.421875 -152.015625 C 38.421875 -155.234375 35.410156 -157.050781 29.390625 -157.46875 C 33.734375 -157.1875 29.601562 -157.046875 17 -157.046875 C 11.269531 -157.046875 8.40625 -159.21875 8.40625 -163.5625 C 8.40625 -171.539062 11.765625 -176.578125 18.484375 -178.671875 C 21.835938 -179.796875 28.554688 -180.359375 38.640625 -180.359375 C 46.191406 -180.359375 51.859375 -185.957031 55.640625 -197.15625 C 59.984375 -210.175781 63.132812 -217.3125 65.09375 -218.5625 C 67.882812 -220.382812 72.570312 -221.296875 79.15625 -221.296875 C 85.457031 -221.296875 88.609375 -219.335938 88.609375 -215.421875 C 88.609375 -212.335938 87.347656 -207.992188 84.828125 -202.390625 C 82.304688 -196.796875 81.046875 -192.460938 81.046875 -189.390625 C 81.046875 -182.523438 84.960938 -179.09375 92.796875 -179.09375 C 96.441406 -179.09375 101.898438 -179.375 109.171875 -179.9375 C 116.453125 -180.5 121.914062 -180.78125 125.5625 -180.78125 C 128.78125 -180.78125 130.390625 -178.816406 130.390625 -174.890625 Z M 130.390625 -174.890625 "/></g></g><g transform="translate(644.837073, 562.907086)"><g><path d="M 99.734375 -225.28125 C 99.734375 -218.5625 97.597656 -213.171875 93.328125 -209.109375 C 89.054688 -205.054688 83.5625 -203.03125 76.84375 -203.03125 C 62.84375 -203.03125 55.84375 -209.75 55.84375 -223.1875 C 55.84375 -229.90625 58.046875 -235.46875 62.453125 -239.875 C 66.867188 -244.289062 72.4375 -246.5 79.15625 -246.5 C 92.875 -246.5 99.734375 -239.425781 99.734375 -225.28125 Z M 89.4375 -171.75 C 89.4375 -167.269531 86.921875 -160.832031 81.890625 -152.4375 C 77.960938 -146.269531 74.113281 -140.039062 70.34375 -133.75 C 64.738281 -122.125 59.066406 -107.707031 53.328125 -90.5 C 46.609375 -70.0625 43.25 -55.289062 43.25 -46.1875 C 43.25 -39.46875 48.007812 -36.109375 57.53125 -36.109375 C 59.625 -36.109375 62.347656 -37.125 65.703125 -39.15625 C 69.066406 -41.1875 71.734375 -42.203125 73.703125 -42.203125 C 77.472656 -42.203125 79.359375 -40.3125 79.359375 -36.53125 C 79.359375 -29.394531 72.222656 -21.347656 57.953125 -12.390625 C 44.515625 -4.128906 33.875 0 26.03125 0 C 13.289062 0 6.921875 -8.535156 6.921875 -25.609375 C 6.921875 -36.390625 11.992188 -53.921875 22.140625 -78.203125 C 32.296875 -102.492188 37.375 -117.789062 37.375 -124.09375 C 37.375 -126.882812 34.363281 -129.050781 28.34375 -130.59375 C 20.082031 -132.550781 15.8125 -133.601562 15.53125 -133.75 C 16.09375 -139.488281 24.703125 -148.757812 41.359375 -161.5625 C 58.015625 -174.375 69.351562 -180.78125 75.375 -180.78125 C 84.75 -180.78125 89.4375 -177.769531 89.4375 -171.75 Z M 89.4375 -171.75 "/></g></g><g transform="translate(759.685034, 562.907086)"><g><path d="M 118 -149.078125 C 118 -136.054688 115.757812 -129.546875 111.28125 -129.546875 C 109.039062 -129.546875 103.507812 -133.566406 94.6875 -141.609375 C 85.875 -149.660156 78.175781 -153.6875 71.59375 -153.6875 C 64.59375 -153.6875 58.644531 -150.882812 53.75 -145.28125 C 48.851562 -139.6875 46.40625 -133.320312 46.40625 -126.1875 C 46.40625 -120.164062 51.65625 -112.394531 62.15625 -102.875 C 81.46875 -85.664062 91.332031 -76.847656 91.75 -76.421875 C 102.25 -65.085938 107.5 -54.171875 107.5 -43.671875 C 107.5 -30.648438 102.25 -19.941406 91.75 -11.546875 C 82.09375 -3.847656 70.546875 0 57.109375 0 C 46.046875 0 35.476562 -2.238281 25.40625 -6.71875 C 12.8125 -12.457031 6.515625 -20.15625 6.515625 -29.8125 C 6.515625 -44.65625 8.890625 -52.078125 13.640625 -52.078125 C 13.785156 -52.078125 14.207031 -52.003906 14.90625 -51.859375 C 30.445312 -37.578125 43.816406 -30.4375 55.015625 -30.4375 C 68.171875 -30.4375 74.75 -36.25 74.75 -47.875 C 74.75 -52.632812 70.898438 -58.863281 63.203125 -66.5625 C 51.160156 -78.457031 43.878906 -86.015625 41.359375 -89.234375 C 33.660156 -99.453125 29.8125 -110.085938 29.8125 -121.140625 C 29.8125 -136.546875 34.082031 -149.984375 42.625 -161.453125 C 52 -174.335938 64.109375 -180.78125 78.953125 -180.78125 C 84.410156 -180.78125 91.128906 -179.171875 99.109375 -175.953125 C 107.921875 -172.304688 113.445312 -168.382812 115.6875 -164.1875 C 117.226562 -161.25 118 -156.210938 118 -149.078125 Z M 118 -149.078125 "/></g></g></g></svg>