<svg xmlns="http://www.w3.org/2000/svg" xmlns:xlink="http://www.w3.org/1999/xlink" width="1200" zoomAndPan="magnify" viewBox="0 0 900 899.99999" height="1200" preserveAspectRatio="xMidYMid meet" version="1.0"><path fill="#ffffff" d="M 888.867188 660.691406 C 895.4375 678.246094 899.269531 697.105469 899.851562 716.832031 C 899.996094 718.710938 899.996094 720.589844 899.996094 722.539062 C 899.996094 820.515625 820.511719 899.996094 722.535156 899.996094 C 323.480469 899.996094 0 576.515625 0 177.453125 C 0 79.484375 79.480469 0 177.457031 0 C 179.40625 0 181.285156 0 183.164062 0.144531 C 202.890625 0.722656 221.820312 4.554688 239.375 11.128906 L 305.996094 299.566406 C 305.996094 299.710938 305.921875 299.78125 305.777344 299.855469 L 183.597656 354.765625 L 183.234375 354.914062 C 239.304688 525.648438 374.347656 660.691406 545.082031 716.761719 L 545.226562 716.398438 L 600.214844 594.144531 L 888.867188 660.691406 " fill-opacity="1" fill-rule="nonzero"/></svg>