<svg xmlns="http://www.w3.org/2000/svg" xmlns:xlink="http://www.w3.org/1999/xlink" width="1200" zoomAndPan="magnify" viewBox="0 0 900 899.99999" height="1200" preserveAspectRatio="xMidYMid meet" version="1.0"><defs><clipPath id="320bf98210"><path d="M 29 29.25 L 871 29.25 L 871 870.75 L 29 870.75 Z M 29 29.25 " clip-rule="nonzero"/></clipPath><clipPath id="50f1846d1f"><path d="M 640 349 L 798 349 L 798 870.75 L 640 870.75 Z M 640 349 " clip-rule="nonzero"/></clipPath><clipPath id="bef945c456"><path d="M 715 723 L 798 723 L 798 870.75 L 715 870.75 Z M 715 723 " clip-rule="nonzero"/></clipPath></defs><g clip-path="url(#320bf98210)"><path fill="#f68360" d="M 870.226562 450.113281 C 870.226562 456.992188 870.058594 463.863281 869.71875 470.734375 C 869.382812 477.601562 868.875 484.460938 868.203125 491.304688 C 867.527344 498.148438 866.6875 504.972656 865.675781 511.773438 C 864.667969 518.578125 863.492188 525.351562 862.152344 532.097656 C 860.808594 538.839844 859.304688 545.550781 857.632812 552.222656 C 855.960938 558.890625 854.128906 565.519531 852.132812 572.101562 C 850.132812 578.679688 847.976562 585.210938 845.660156 591.683594 C 843.34375 598.160156 840.871094 604.574219 838.238281 610.929688 C 835.605469 617.28125 832.820312 623.566406 829.878906 629.785156 C 826.9375 636 823.847656 642.144531 820.605469 648.207031 C 817.363281 654.273438 813.976562 660.253906 810.4375 666.15625 C 806.902344 672.054688 803.226562 677.863281 799.40625 683.582031 C 795.582031 689.296875 791.625 694.917969 787.527344 700.445312 C 783.429688 705.96875 779.203125 711.386719 774.839844 716.703125 C 770.476562 722.019531 765.984375 727.226562 761.367188 732.320312 C 756.746094 737.417969 752.007812 742.398438 747.144531 747.261719 C 742.28125 752.125 737.300781 756.863281 732.207031 761.484375 C 727.109375 766.101562 721.902344 770.59375 716.585938 774.953125 C 711.269531 779.316406 705.851562 783.546875 700.328125 787.644531 C 694.804688 791.742188 689.183594 795.699219 683.464844 799.519531 C 677.746094 803.339844 671.9375 807.019531 666.039062 810.554688 C 660.140625 814.089844 654.15625 817.480469 648.089844 820.722656 C 642.027344 823.964844 635.886719 827.054688 629.667969 829.996094 C 623.449219 832.9375 617.164062 835.722656 610.8125 838.355469 C 604.457031 840.984375 598.042969 843.460938 591.566406 845.777344 C 585.09375 848.09375 578.566406 850.25 571.984375 852.246094 C 565.402344 854.242188 558.777344 856.078125 552.105469 857.75 C 545.433594 859.417969 538.726562 860.925781 531.980469 862.269531 C 525.234375 863.609375 518.460938 864.785156 511.65625 865.792969 C 504.855469 866.804688 498.03125 867.644531 491.1875 868.320312 C 484.34375 868.992188 477.484375 869.5 470.617188 869.835938 C 463.746094 870.171875 456.875 870.34375 449.996094 870.34375 C 443.121094 870.34375 436.246094 870.171875 429.378906 869.835938 C 422.507812 869.5 415.652344 868.992188 408.808594 868.320312 C 401.964844 867.644531 395.140625 866.804688 388.335938 865.792969 C 381.535156 864.785156 374.761719 863.609375 368.015625 862.269531 C 361.269531 860.925781 354.5625 859.417969 347.890625 857.75 C 341.21875 856.078125 334.59375 854.242188 328.011719 852.246094 C 321.429688 850.25 314.902344 848.09375 308.425781 845.777344 C 301.953125 843.460938 295.535156 840.984375 289.183594 838.355469 C 282.828125 835.722656 276.542969 832.9375 270.328125 829.996094 C 264.109375 827.054688 257.96875 823.964844 251.902344 820.722656 C 245.835938 817.480469 239.855469 814.089844 233.957031 810.554688 C 228.058594 807.019531 222.25 803.339844 216.53125 799.519531 C 210.8125 795.699219 205.191406 791.742188 199.667969 787.644531 C 194.144531 783.546875 188.722656 779.316406 183.40625 774.953125 C 178.089844 770.59375 172.886719 766.101562 167.789062 761.484375 C 162.691406 756.863281 157.714844 752.125 152.851562 747.261719 C 147.988281 742.398438 143.246094 737.417969 138.628906 732.320312 C 134.011719 727.226562 129.519531 722.019531 125.15625 716.703125 C 120.792969 711.386719 116.5625 705.96875 112.464844 700.445312 C 108.371094 694.917969 104.410156 689.296875 100.589844 683.582031 C 96.769531 677.863281 93.089844 672.054688 89.554688 666.15625 C 86.019531 660.253906 82.628906 654.273438 79.390625 648.207031 C 76.148438 642.144531 73.054688 636 70.113281 629.785156 C 67.175781 623.566406 64.386719 617.28125 61.757812 610.929688 C 59.125 604.574219 56.652344 598.160156 54.332031 591.683594 C 52.015625 585.210938 49.859375 578.679688 47.863281 572.101562 C 45.867188 565.519531 44.035156 558.890625 42.363281 552.222656 C 40.691406 545.550781 39.183594 538.839844 37.84375 532.097656 C 36.5 525.351562 35.328125 518.578125 34.316406 511.773438 C 33.308594 504.972656 32.464844 498.148438 31.792969 491.304688 C 31.117188 484.460938 30.613281 477.601562 30.273438 470.734375 C 29.9375 463.863281 29.769531 456.992188 29.769531 450.113281 C 29.769531 443.238281 29.9375 436.363281 30.273438 429.496094 C 30.613281 422.625 31.117188 415.769531 31.792969 408.925781 C 32.464844 402.078125 33.308594 395.257812 34.316406 388.453125 C 35.328125 381.652344 36.5 374.875 37.84375 368.132812 C 39.183594 361.386719 40.691406 354.679688 42.363281 348.007812 C 44.035156 341.335938 45.867188 334.710938 47.863281 328.128906 C 49.859375 321.546875 52.015625 315.019531 54.332031 308.542969 C 56.652344 302.066406 59.125 295.652344 61.757812 289.300781 C 64.386719 282.945312 67.175781 276.660156 70.113281 270.441406 C 73.054688 264.226562 76.148438 258.085938 79.390625 252.019531 C 82.628906 245.953125 86.019531 239.972656 89.554688 234.074219 C 93.089844 228.175781 96.769531 222.367188 100.589844 216.648438 C 104.410156 210.929688 108.371094 205.308594 112.464844 199.785156 C 116.5625 194.261719 120.792969 188.839844 125.15625 183.523438 C 129.519531 178.207031 134.011719 173 138.628906 167.90625 C 143.246094 162.808594 147.988281 157.832031 152.851562 152.96875 C 157.714844 148.105469 162.691406 143.363281 167.789062 138.746094 C 172.886719 134.125 178.089844 129.636719 183.40625 125.273438 C 188.722656 120.910156 194.144531 116.679688 199.667969 112.582031 C 205.191406 108.484375 210.8125 104.527344 216.53125 100.707031 C 222.25 96.886719 228.058594 93.207031 233.957031 89.671875 C 239.855469 86.136719 245.835938 82.746094 251.902344 79.503906 C 257.96875 76.261719 264.109375 73.171875 270.328125 70.230469 C 276.542969 67.292969 282.828125 64.503906 289.183594 61.875 C 295.535156 59.242188 301.953125 56.765625 308.425781 54.449219 C 314.902344 52.132812 321.429688 49.976562 328.011719 47.980469 C 334.59375 45.984375 341.21875 44.148438 347.890625 42.480469 C 354.5625 40.808594 361.269531 39.300781 368.015625 37.960938 C 374.761719 36.617188 381.535156 35.441406 388.335938 34.433594 C 395.140625 33.425781 401.964844 32.582031 408.808594 31.910156 C 415.652344 31.234375 422.507812 30.730469 429.378906 30.390625 C 436.246094 30.054688 443.121094 29.886719 449.996094 29.886719 C 456.875 29.886719 463.746094 30.054688 470.617188 30.390625 C 477.484375 30.730469 484.34375 31.234375 491.1875 31.910156 C 498.03125 32.582031 504.855469 33.425781 511.65625 34.433594 C 518.460938 35.441406 525.234375 36.617188 531.980469 37.960938 C 538.726562 39.300781 545.433594 40.808594 552.105469 42.480469 C 558.777344 44.148438 565.402344 45.984375 571.984375 47.980469 C 578.566406 49.976562 585.09375 52.132812 591.566406 54.449219 C 598.042969 56.765625 604.457031 59.242188 610.8125 61.875 C 617.164062 64.503906 623.449219 67.292969 629.667969 70.230469 C 635.886719 73.171875 642.027344 76.261719 648.089844 79.503906 C 654.15625 82.746094 660.140625 86.136719 666.039062 89.671875 C 671.9375 93.207031 677.746094 96.886719 683.464844 100.707031 C 689.183594 104.527344 694.804688 108.484375 700.328125 112.582031 C 705.851562 116.679688 711.269531 120.910156 716.585938 125.273438 C 721.902344 129.636719 727.109375 134.125 732.207031 138.746094 C 737.300781 143.363281 742.28125 148.105469 747.144531 152.96875 C 752.007812 157.832031 756.746094 162.808594 761.367188 167.90625 C 765.984375 173 770.476562 178.207031 774.839844 183.523438 C 779.203125 188.839844 783.429688 194.261719 787.527344 199.785156 C 791.625 205.308594 795.582031 210.929688 799.40625 216.648438 C 803.226562 222.367188 806.902344 228.175781 810.4375 234.074219 C 813.976562 239.972656 817.363281 245.953125 820.605469 252.019531 C 823.847656 258.085938 826.9375 264.226562 829.878906 270.441406 C 832.820312 276.660156 835.605469 282.945312 838.238281 289.300781 C 840.871094 295.652344 843.34375 302.066406 845.660156 308.542969 C 847.976562 315.019531 850.132812 321.546875 852.132812 328.128906 C 854.128906 334.710938 855.960938 341.335938 857.632812 348.007812 C 859.304688 354.679688 860.808594 361.386719 862.152344 368.132812 C 863.492188 374.875 864.667969 381.652344 865.675781 388.453125 C 866.6875 395.257812 867.527344 402.078125 868.203125 408.925781 C 868.875 415.769531 869.382812 422.625 869.71875 429.496094 C 870.058594 436.363281 870.226562 443.238281 870.226562 450.113281 Z M 870.226562 450.113281 " fill-opacity="1" fill-rule="nonzero"/></g><path fill="#ffffff" d="M 206.546875 495.199219 L 244.320312 495.1875 L 244.316406 280.996094 L 206.542969 281 Z M 206.546875 495.199219 " fill-opacity="1" fill-rule="nonzero"/><path fill="#d9d8d7" d="M 215.464844 463.488281 C 215.464844 468.96875 219.949219 473.453125 225.4375 473.441406 C 230.917969 473.441406 235.398438 468.957031 235.398438 463.464844 L 235.390625 308.316406 C 235.390625 302.839844 230.902344 298.355469 225.429688 298.359375 C 219.949219 298.359375 215.464844 302.84375 215.464844 308.335938 Z M 215.464844 463.488281 " fill-opacity="1" fill-rule="nonzero"/><path fill="#ffffff" d="M 247.199219 196.074219 L 247.207031 242.808594 L 225.421875 255.378906 L 203.652344 242.816406 L 203.640625 196.074219 C 188.535156 203.949219 178.199219 219.757812 178.199219 237.96875 C 178.199219 264.050781 199.34375 285.203125 225.441406 285.203125 C 251.503906 285.191406 272.648438 264.046875 272.664062 237.988281 C 272.644531 219.75 262.332031 203.957031 247.199219 196.074219 Z M 247.199219 196.074219 " fill-opacity="1" fill-rule="nonzero"/><path fill="#ffffff" d="M 225.421875 486.640625 C 207.167969 486.628906 192.371094 501.203125 192.371094 519.183594 C 192.371094 537.136719 207.167969 551.710938 225.4375 551.710938 C 243.695312 551.699219 258.476562 537.132812 258.476562 519.15625 C 258.476562 501.210938 243.6875 486.652344 225.421875 486.640625 Z M 247.9375 528.492188 L 238.859375 532.601562 L 234.75 541.683594 L 225.441406 538.179688 L 216.105469 541.675781 L 212 532.605469 L 202.941406 528.492188 L 206.429688 519.171875 L 202.925781 509.851562 L 212 505.738281 L 216.109375 496.664062 L 225.417969 500.171875 L 234.75 496.6875 L 238.863281 505.75 L 247.921875 509.859375 L 244.425781 519.183594 Z M 247.9375 528.492188 " fill-opacity="1" fill-rule="nonzero"/><path fill="#656a73" d="M 155.519531 393.796875 L 599.480469 393.796875 L 599.480469 682.363281 L 155.519531 682.363281 Z M 155.519531 393.796875 " fill-opacity="1" fill-rule="nonzero"/><path fill="#565a61" d="M 155.519531 479.578125 C 160.078125 492.992188 167.675781 505.285156 177.976562 515.605469 C 195.695312 533.328125 219.257812 543.074219 244.3125 543.074219 L 510.683594 543.074219 C 535.75 543.074219 559.296875 533.324219 577.003906 515.605469 C 587.320312 505.28125 594.914062 492.992188 599.480469 479.578125 L 599.480469 393.796875 L 155.519531 393.796875 Z M 155.519531 479.578125 " fill-opacity="1" fill-rule="nonzero"/><path fill="#656a73" d="M 599.480469 349.390625 L 155.519531 349.390625 L 155.519531 449.273438 C 155.519531 472 164.191406 494.726562 181.515625 512.058594 C 198.867188 529.414062 221.578125 538.066406 244.316406 538.066406 L 510.6875 538.066406 C 533.410156 538.066406 556.132812 529.410156 573.464844 512.058594 C 590.816406 494.726562 599.480469 472 599.480469 449.273438 Z M 599.480469 349.390625 " fill-opacity="1" fill-rule="nonzero"/><path fill="#353f49" d="M 202.140625 346.0625 L 322.007812 346.0625 L 322.007812 349.394531 L 202.140625 349.394531 Z M 202.140625 346.0625 " fill-opacity="1" fill-rule="nonzero"/><path fill="#353f49" d="M 432.996094 346.0625 L 552.863281 346.0625 L 552.863281 349.394531 L 432.996094 349.394531 Z M 432.996094 346.0625 " fill-opacity="1" fill-rule="nonzero"/><path fill="#353f49" d="M 244.316406 342.730469 L 279.820312 342.730469 L 279.820312 685.691406 L 244.316406 685.691406 Z M 244.316406 342.730469 " fill-opacity="1" fill-rule="nonzero"/><path fill="#353f49" d="M 475.167969 342.730469 L 510.6875 342.730469 L 510.6875 685.691406 L 475.167969 685.691406 Z M 475.167969 342.730469 " fill-opacity="1" fill-rule="nonzero"/><path fill="#656a73" d="M 223.222656 430.417969 L 300.910156 430.417969 L 300.910156 457.046875 L 223.222656 457.046875 Z M 223.222656 430.417969 " fill-opacity="1" fill-rule="nonzero"/><path fill="#656a73" d="M 454.078125 430.417969 L 531.769531 430.417969 L 531.769531 457.046875 L 454.078125 457.046875 Z M 454.078125 430.417969 " fill-opacity="1" fill-rule="nonzero"/><path fill="#ffffff" d="M 283.128906 519.234375 C 280.605469 516.699219 277.261719 515.320312 273.699219 515.320312 L 250.441406 515.320312 C 246.871094 515.320312 243.519531 516.699219 241.007812 519.234375 C 238.484375 521.75 237.097656 525.101562 237.097656 528.664062 L 237.097656 560.816406 L 244.316406 560.816406 L 244.316406 555.28125 L 242.652344 555.28125 L 242.652344 528.660156 C 242.652344 526.5625 243.449219 524.628906 244.925781 523.160156 C 246.402344 521.667969 248.363281 520.855469 250.4375 520.855469 L 273.699219 520.855469 C 275.785156 520.855469 277.738281 521.667969 279.222656 523.160156 C 280.671875 524.628906 281.492188 526.5625 281.492188 528.660156 L 281.492188 555.28125 L 279.820312 555.28125 L 279.820312 560.816406 L 287.035156 560.816406 L 287.035156 528.664062 C 287.039062 525.101562 285.65625 521.753906 283.128906 519.234375 Z M 283.128906 519.234375 " fill-opacity="1" fill-rule="nonzero"/><path fill="#cccbca" d="M 259.289062 533.535156 L 264.839844 533.535156 L 264.839844 518.085938 C 264.839844 517.535156 264.625 516.960938 264.1875 516.527344 C 263.753906 516.082031 263.195312 515.886719 262.636719 515.886719 L 261.511719 515.886719 C 260.960938 515.886719 260.371094 516.085938 259.933594 516.527344 C 259.515625 516.960938 259.292969 517.535156 259.292969 518.085938 L 259.292969 533.535156 Z M 259.289062 533.535156 " fill-opacity="1" fill-rule="nonzero"/><path fill="#ffffff" d="M 513.996094 519.234375 C 511.46875 516.699219 508.117188 515.320312 504.5625 515.320312 L 481.308594 515.320312 C 477.734375 515.320312 474.375 516.699219 471.863281 519.234375 C 469.339844 521.75 467.953125 525.101562 467.953125 528.664062 L 467.953125 560.816406 L 475.171875 560.816406 L 475.171875 555.28125 L 473.511719 555.28125 L 473.511719 528.660156 C 473.511719 526.5625 474.320312 524.628906 475.804688 523.160156 C 477.261719 521.667969 479.21875 520.855469 481.308594 520.855469 L 504.554688 520.855469 C 506.636719 520.855469 508.59375 521.667969 510.074219 523.160156 C 511.546875 524.628906 512.367188 526.5625 512.367188 528.660156 L 512.367188 555.28125 L 510.683594 555.28125 L 510.683594 560.816406 L 517.890625 560.816406 L 517.890625 528.664062 C 517.890625 525.101562 516.511719 521.753906 513.996094 519.234375 Z M 513.996094 519.234375 " fill-opacity="1" fill-rule="nonzero"/><path fill="#cccbca" d="M 490.148438 533.535156 L 495.703125 533.535156 L 495.703125 518.085938 C 495.703125 517.535156 495.492188 516.960938 495.058594 516.527344 C 494.621094 516.082031 494.058594 515.886719 493.488281 515.886719 L 492.378906 515.886719 C 491.8125 515.886719 491.234375 516.085938 490.808594 516.527344 C 490.375 516.960938 490.152344 517.535156 490.152344 518.085938 Z M 490.148438 533.535156 " fill-opacity="1" fill-rule="nonzero"/><path fill="#353f49" d="M 442.996094 325.527344 C 441.003906 325.527344 439.015625 324.78125 437.496094 323.253906 C 435.976562 321.738281 435.222656 319.746094 435.222656 317.753906 L 435.222656 316.65625 C 435.222656 315.761719 434.886719 314.917969 434.246094 314.304688 C 433.625 313.664062 432.769531 313.308594 431.890625 313.308594 L 323.121094 313.308594 C 322.226562 313.308594 321.402344 313.660156 320.765625 314.292969 C 320.128906 314.914062 319.785156 315.757812 319.785156 316.652344 L 319.785156 317.75 C 319.785156 319.742188 319.023438 321.734375 317.507812 323.25 C 315.996094 324.777344 314.007812 325.523438 312.019531 325.523438 C 310.03125 325.523438 308.046875 324.777344 306.539062 323.25 C 305.011719 321.734375 304.261719 319.742188 304.261719 317.75 L 304.261719 316.652344 C 304.261719 311.605469 306.214844 306.867188 309.78125 303.3125 C 313.335938 299.746094 318.074219 297.777344 323.121094 297.777344 L 431.890625 297.777344 C 436.921875 297.777344 441.671875 299.746094 445.230469 303.3125 C 448.785156 306.867188 450.761719 311.605469 450.761719 316.652344 L 450.761719 317.75 C 450.761719 319.742188 449.996094 321.734375 448.476562 323.25 C 446.964844 324.78125 444.96875 325.527344 442.996094 325.527344 Z M 442.996094 325.527344 " fill-opacity="1" fill-rule="nonzero"/><path fill="#ffffff" d="M 313.972656 318.570312 C 313.441406 318.019531 312.730469 317.75 312.015625 317.75 C 311.292969 317.75 310.589844 318.019531 310.046875 318.570312 C 309.515625 319.109375 309.246094 319.820312 309.246094 320.53125 L 309.246094 346.058594 L 314.785156 346.058594 L 314.785156 320.53125 C 314.78125 319.816406 314.507812 319.109375 313.972656 318.570312 Z M 313.972656 318.570312 " fill-opacity="1" fill-rule="nonzero"/><path fill="#ffffff" d="M 444.945312 318.570312 C 444.394531 318.019531 443.6875 317.75 442.992188 317.75 C 442.277344 317.75 441.5625 318.019531 441.003906 318.570312 C 440.46875 319.109375 440.207031 319.820312 440.207031 320.53125 L 440.207031 346.058594 L 445.753906 346.058594 L 445.753906 320.53125 C 445.753906 319.816406 445.488281 319.109375 444.945312 318.570312 Z M 444.945312 318.570312 " fill-opacity="1" fill-rule="nonzero"/><path fill="#ffd680" d="M 169.417969 522.03125 C 165.433594 518.027344 160.179688 516.03125 154.9375 516.03125 C 148.148438 516.03125 142.65625 510.519531 142.632812 503.734375 C 142.632812 503.722656 142.632812 503.722656 142.632812 503.707031 C 142.625 503.371094 142.5 503.027344 142.242188 502.757812 C 141.96875 502.507812 141.628906 502.371094 141.28125 502.371094 C 140.914062 502.371094 140.578125 502.507812 140.308594 502.757812 C 140.042969 503.03125 139.921875 503.363281 139.914062 503.707031 C 139.914062 503.722656 139.914062 503.722656 139.914062 503.734375 C 139.898438 510.519531 134.414062 516.03125 127.609375 516.03125 C 122.382812 516.03125 117.132812 518.027344 113.128906 522.03125 C 109.121094 526.035156 107.128906 531.273438 107.128906 536.515625 L 107.128906 639.0625 L 175.421875 639.0625 L 175.421875 536.515625 C 175.429688 531.273438 173.425781 526.035156 169.417969 522.03125 Z M 169.417969 522.03125 " fill-opacity="1" fill-rule="nonzero"/><path fill="#fff8c0" d="M 116.6875 585.027344 C 114.808594 585.027344 113.28125 583.492188 113.28125 581.613281 L 113.28125 536.515625 C 113.28125 532.6875 114.761719 529.082031 117.472656 526.378906 C 120.183594 523.671875 123.785156 522.175781 127.613281 522.175781 C 129.503906 522.175781 131.03125 523.703125 131.03125 525.59375 C 131.03125 527.480469 129.503906 529.015625 127.613281 529.015625 C 125.609375 529.015625 123.726562 529.785156 122.304688 531.207031 C 120.878906 532.625 120.09375 534.511719 120.09375 536.523438 L 120.09375 581.613281 C 120.09375 583.5 118.582031 585.027344 116.6875 585.027344 Z M 116.6875 585.027344 " fill-opacity="1" fill-rule="nonzero"/><path fill="#353f49" d="M 107.136719 659.558594 L 175.429688 659.558594 L 175.429688 682.363281 L 107.136719 682.363281 Z M 107.136719 659.558594 " fill-opacity="1" fill-rule="nonzero"/><path fill="#232e38" d="M 105.082031 639.0625 L 177.480469 639.0625 L 177.480469 659.558594 L 105.082031 659.558594 Z M 105.082031 639.0625 " fill-opacity="1" fill-rule="nonzero"/><path fill="#353f49" d="M 128.304688 618.574219 L 154.257812 618.574219 L 154.257812 639.0625 L 128.304688 639.0625 Z M 128.304688 618.574219 " fill-opacity="1" fill-rule="nonzero"/><path fill="#ffb959" d="M 154.261719 591.632812 C 154.261719 593.128906 153.019531 594.367188 151.519531 594.367188 L 131.03125 594.367188 C 129.527344 594.367188 128.300781 593.128906 128.300781 591.632812 L 128.300781 563.5 C 128.300781 561.996094 129.523438 560.761719 131.03125 560.761719 L 151.519531 560.761719 C 153.019531 560.761719 154.261719 561.996094 154.261719 563.5 Z M 154.261719 591.632812 " fill-opacity="1" fill-rule="nonzero"/><path fill="#ffb959" d="M 131.707031 594.367188 L 133.082031 594.367188 L 133.082031 618.574219 L 131.707031 618.574219 Z M 131.707031 594.367188 " fill-opacity="1" fill-rule="nonzero"/><path fill="#ffb959" d="M 149.464844 594.367188 L 150.835938 594.367188 L 150.835938 618.574219 L 149.464844 618.574219 Z M 149.464844 594.367188 " fill-opacity="1" fill-rule="nonzero"/><path fill="#ffb959" d="M 140.597656 594.367188 L 141.953125 594.367188 L 141.953125 618.574219 L 140.597656 618.574219 Z M 140.597656 594.367188 " fill-opacity="1" fill-rule="nonzero"/><path fill="#f2f2f2" d="M 67.402344 723.386719 L 0 702.875 L 67.402344 682.363281 Z M 67.402344 723.386719 " fill-opacity="1" fill-rule="nonzero"/><path fill="#cccbca" d="M 0 702.875 L 67.402344 723.386719 L 67.402344 710.488281 Z M 0 702.875 " fill-opacity="1" fill-rule="nonzero"/><path fill="#ffd680" d="M 67.402344 682.363281 L 832.59375 682.363281 L 832.59375 723.386719 L 67.402344 723.386719 Z M 67.402344 682.363281 " fill-opacity="1" fill-rule="nonzero"/><path fill="#ffb959" d="M 67.402344 710.488281 L 832.59375 710.488281 L 832.59375 723.386719 L 67.402344 723.386719 Z M 67.402344 710.488281 " fill-opacity="1" fill-rule="nonzero"/><path fill="#353f49" d="M 26.378906 710.898438 L 0 702.875 L 26.378906 694.8125 Z M 26.378906 710.898438 " fill-opacity="1" fill-rule="nonzero"/><path fill="#232e38" d="M 26.378906 710.898438 L 0 702.875 L 26.378906 705.855469 Z M 26.378906 710.898438 " fill-opacity="1" fill-rule="nonzero"/><path fill="#f2f2f2" d="M 832.589844 682.363281 L 856.398438 682.363281 L 856.398438 723.386719 L 832.589844 723.386719 Z M 832.589844 682.363281 " fill-opacity="1" fill-rule="nonzero"/><path fill="#cccbca" d="M 832.589844 710.488281 L 856.398438 710.488281 L 856.398438 723.386719 L 832.589844 723.386719 Z M 832.589844 710.488281 " fill-opacity="1" fill-rule="nonzero"/><path fill="#474f59" d="M 879.480469 723.386719 C 884.726562 723.386719 889.980469 721.382812 893.984375 717.382812 C 897.992188 713.371094 899.992188 708.125 899.992188 702.875 C 899.992188 697.628906 897.992188 692.375 893.984375 688.371094 C 889.980469 684.359375 884.730469 682.359375 879.480469 682.359375 L 856.398438 682.359375 L 856.398438 723.386719 Z M 879.480469 723.386719 " fill-opacity="1" fill-rule="nonzero"/><path fill="#232e38" d="M 893.988281 688.371094 C 891.65625 686.039062 888.886719 684.46875 885.96875 683.496094 C 886.667969 685.597656 887.101562 687.773438 887.101562 689.972656 C 887.101562 695.21875 885.097656 700.472656 881.09375 704.476562 C 877.089844 708.480469 871.839844 710.480469 866.589844 710.480469 L 856.40625 710.480469 L 856.40625 723.382812 L 879.492188 723.382812 C 884.738281 723.382812 889.992188 721.378906 893.992188 717.375 C 898 713.371094 900 708.121094 900 702.867188 C 899.996094 697.621094 897.992188 692.371094 893.988281 688.371094 Z M 893.988281 688.371094 " fill-opacity="1" fill-rule="nonzero"/><path fill="#cccbca" d="M 415.761719 507.007812 L 870.226562 507.007812 L 870.226562 682.363281 L 415.761719 682.363281 Z M 415.761719 507.007812 " fill-opacity="1" fill-rule="nonzero"/><path fill="#ffffff" d="M 430.726562 521.96875 L 453.363281 521.96875 L 453.363281 544.59375 L 430.726562 544.59375 Z M 430.726562 521.96875 " fill-opacity="1" fill-rule="nonzero"/><path fill="#ffffff" d="M 802.867188 551.742188 L 825.5 551.742188 L 825.5 574.371094 L 802.867188 574.371094 Z M 802.867188 551.742188 " fill-opacity="1" fill-rule="nonzero"/><path fill="#ffffff" d="M 773.105469 551.742188 L 795.746094 551.742188 L 795.746094 574.371094 L 773.105469 574.371094 Z M 773.105469 551.742188 " fill-opacity="1" fill-rule="nonzero"/><path fill="#ffffff" d="M 743.332031 551.742188 L 765.96875 551.742188 L 765.96875 574.371094 L 743.332031 574.371094 Z M 743.332031 551.742188 " fill-opacity="1" fill-rule="nonzero"/><path fill="#ffffff" d="M 713.550781 551.742188 L 736.195312 551.742188 L 736.195312 574.371094 L 713.550781 574.371094 Z M 713.550781 551.742188 " fill-opacity="1" fill-rule="nonzero"/><path fill="#ffffff" d="M 683.789062 551.742188 L 706.417969 551.742188 L 706.417969 574.371094 L 683.789062 574.371094 Z M 683.789062 551.742188 " fill-opacity="1" fill-rule="nonzero"/><path fill="#ffffff" d="M 654.015625 551.742188 L 676.664062 551.742188 L 676.664062 574.371094 L 654.015625 574.371094 Z M 654.015625 551.742188 " fill-opacity="1" fill-rule="nonzero"/><path fill="#ffffff" d="M 624.242188 551.742188 L 646.890625 551.742188 L 646.890625 574.371094 L 624.242188 574.371094 Z M 624.242188 551.742188 " fill-opacity="1" fill-rule="nonzero"/><path fill="#ffffff" d="M 594.464844 551.742188 L 617.117188 551.742188 L 617.117188 574.371094 L 594.464844 574.371094 Z M 594.464844 551.742188 " fill-opacity="1" fill-rule="nonzero"/><path fill="#ffffff" d="M 564.707031 551.742188 L 587.347656 551.742188 L 587.347656 574.371094 L 564.707031 574.371094 Z M 564.707031 551.742188 " fill-opacity="1" fill-rule="nonzero"/><path fill="#ffffff" d="M 534.933594 551.742188 L 557.582031 551.742188 L 557.582031 574.371094 L 534.933594 574.371094 Z M 534.933594 551.742188 " fill-opacity="1" fill-rule="nonzero"/><path fill="#ffffff" d="M 505.164062 551.742188 L 527.804688 551.742188 L 527.804688 574.371094 L 505.164062 574.371094 Z M 505.164062 551.742188 " fill-opacity="1" fill-rule="nonzero"/><path fill="#ffffff" d="M 475.394531 551.742188 L 498.039062 551.742188 L 498.039062 574.371094 L 475.394531 574.371094 Z M 475.394531 551.742188 " fill-opacity="1" fill-rule="nonzero"/><path fill="#ffffff" d="M 482.570312 581.492188 L 505.210938 581.492188 L 505.210938 604.125 L 482.570312 604.125 Z M 482.570312 581.492188 " fill-opacity="1" fill-rule="nonzero"/><path fill="#ffffff" d="M 468.011719 611.253906 L 490.652344 611.253906 L 490.652344 633.886719 L 468.011719 633.886719 Z M 468.011719 611.253906 " fill-opacity="1" fill-rule="nonzero"/><path fill="#ffffff" d="M 497.78125 611.253906 L 520.417969 611.253906 L 520.417969 633.886719 L 497.78125 633.886719 Z M 497.78125 611.253906 " fill-opacity="1" fill-rule="nonzero"/><path fill="#ffffff" d="M 527.539062 611.253906 L 550.179688 611.253906 L 550.179688 633.886719 L 527.539062 633.886719 Z M 527.539062 611.253906 " fill-opacity="1" fill-rule="nonzero"/><path fill="#ffffff" d="M 557.300781 611.253906 L 579.941406 611.253906 L 579.941406 633.886719 L 557.300781 633.886719 Z M 557.300781 611.253906 " fill-opacity="1" fill-rule="nonzero"/><path fill="#ffffff" d="M 587.0625 611.253906 L 609.714844 611.253906 L 609.714844 633.886719 L 587.0625 633.886719 Z M 587.0625 611.253906 " fill-opacity="1" fill-rule="nonzero"/><path fill="#ffffff" d="M 616.84375 611.253906 L 639.480469 611.253906 L 639.480469 633.886719 L 616.84375 633.886719 Z M 616.84375 611.253906 " fill-opacity="1" fill-rule="nonzero"/><path fill="#ffffff" d="M 646.605469 611.253906 L 669.234375 611.253906 L 669.234375 633.886719 L 646.605469 633.886719 Z M 646.605469 611.253906 " fill-opacity="1" fill-rule="nonzero"/><path fill="#ffffff" d="M 676.367188 611.253906 L 699.011719 611.253906 L 699.011719 633.886719 L 676.367188 633.886719 Z M 676.367188 611.253906 " fill-opacity="1" fill-rule="nonzero"/><path fill="#ffffff" d="M 706.144531 611.253906 L 728.773438 611.253906 L 728.773438 633.886719 L 706.144531 633.886719 Z M 706.144531 611.253906 " fill-opacity="1" fill-rule="nonzero"/><path fill="#ffffff" d="M 735.90625 611.253906 L 758.550781 611.253906 L 758.550781 633.886719 L 735.90625 633.886719 Z M 735.90625 611.253906 " fill-opacity="1" fill-rule="nonzero"/><path fill="#ffffff" d="M 765.675781 611.253906 L 788.3125 611.253906 L 788.3125 633.886719 L 765.675781 633.886719 Z M 765.675781 611.253906 " fill-opacity="1" fill-rule="nonzero"/><path fill="#ffffff" d="M 795.378906 611.253906 L 855.273438 611.253906 L 855.273438 633.886719 L 795.378906 633.886719 Z M 795.378906 611.253906 " fill-opacity="1" fill-rule="nonzero"/><path fill="#ffffff" d="M 512.332031 581.492188 L 534.980469 581.492188 L 534.980469 604.125 L 512.332031 604.125 Z M 512.332031 581.492188 " fill-opacity="1" fill-rule="nonzero"/><path fill="#ffffff" d="M 542.105469 581.492188 L 564.742188 581.492188 L 564.742188 604.125 L 542.105469 604.125 Z M 542.105469 581.492188 " fill-opacity="1" fill-rule="nonzero"/><path fill="#ffffff" d="M 571.863281 581.492188 L 594.488281 581.492188 L 594.488281 604.125 L 571.863281 604.125 Z M 571.863281 581.492188 " fill-opacity="1" fill-rule="nonzero"/><path fill="#ffffff" d="M 601.617188 581.492188 L 624.269531 581.492188 L 624.269531 604.125 L 601.617188 604.125 Z M 601.617188 581.492188 " fill-opacity="1" fill-rule="nonzero"/><path fill="#ffffff" d="M 631.378906 581.492188 L 654.019531 581.492188 L 654.019531 604.125 L 631.378906 604.125 Z M 631.378906 581.492188 " fill-opacity="1" fill-rule="nonzero"/><path fill="#ffffff" d="M 661.140625 581.492188 L 683.78125 581.492188 L 683.78125 604.125 L 661.140625 604.125 Z M 661.140625 581.492188 " fill-opacity="1" fill-rule="nonzero"/><path fill="#ffffff" d="M 690.902344 581.492188 L 713.535156 581.492188 L 713.535156 604.125 L 690.902344 604.125 Z M 690.902344 581.492188 " fill-opacity="1" fill-rule="nonzero"/><path fill="#ffffff" d="M 720.667969 581.492188 L 743.300781 581.492188 L 743.300781 604.125 L 720.667969 604.125 Z M 720.667969 581.492188 " fill-opacity="1" fill-rule="nonzero"/><path fill="#ffffff" d="M 750.421875 581.492188 L 773.074219 581.492188 L 773.074219 604.125 L 750.421875 604.125 Z M 750.421875 581.492188 " fill-opacity="1" fill-rule="nonzero"/><path fill="#ffffff" d="M 780.1875 581.492188 L 802.828125 581.492188 L 802.828125 604.125 L 780.1875 604.125 Z M 780.1875 581.492188 " fill-opacity="1" fill-rule="nonzero"/><path fill="#ffffff" d="M 809.949219 581.492188 L 832.585938 581.492188 L 832.585938 604.125 L 809.949219 604.125 Z M 809.949219 581.492188 " fill-opacity="1" fill-rule="nonzero"/><path fill="#ffffff" d="M 460.503906 521.96875 L 483.140625 521.96875 L 483.140625 544.59375 L 460.503906 544.59375 Z M 460.503906 521.96875 " fill-opacity="1" fill-rule="nonzero"/><path fill="#ffffff" d="M 490.265625 521.96875 L 512.914062 521.96875 L 512.914062 544.59375 L 490.265625 544.59375 Z M 490.265625 521.96875 " fill-opacity="1" fill-rule="nonzero"/><path fill="#ffffff" d="M 520.039062 521.96875 L 542.671875 521.96875 L 542.671875 544.59375 L 520.039062 544.59375 Z M 520.039062 521.96875 " fill-opacity="1" fill-rule="nonzero"/><path fill="#ffffff" d="M 549.792969 521.96875 L 572.441406 521.96875 L 572.441406 544.59375 L 549.792969 544.59375 Z M 549.792969 521.96875 " fill-opacity="1" fill-rule="nonzero"/><path fill="#ffffff" d="M 579.570312 521.96875 L 602.214844 521.96875 L 602.214844 544.59375 L 579.570312 544.59375 Z M 579.570312 521.96875 " fill-opacity="1" fill-rule="nonzero"/><path fill="#ffffff" d="M 609.351562 521.96875 L 631.976562 521.96875 L 631.976562 544.59375 L 609.351562 544.59375 Z M 609.351562 521.96875 " fill-opacity="1" fill-rule="nonzero"/><path fill="#ffffff" d="M 639.113281 521.96875 L 661.746094 521.96875 L 661.746094 544.59375 L 639.113281 544.59375 Z M 639.113281 521.96875 " fill-opacity="1" fill-rule="nonzero"/><path fill="#ffffff" d="M 668.882812 521.96875 L 691.519531 521.96875 L 691.519531 544.59375 L 668.882812 544.59375 Z M 668.882812 521.96875 " fill-opacity="1" fill-rule="nonzero"/><path fill="#ffffff" d="M 698.648438 521.96875 L 721.277344 521.96875 L 721.277344 544.59375 L 698.648438 544.59375 Z M 698.648438 521.96875 " fill-opacity="1" fill-rule="nonzero"/><path fill="#ffffff" d="M 728.414062 521.96875 L 751.054688 521.96875 L 751.054688 544.59375 L 728.414062 544.59375 Z M 728.414062 521.96875 " fill-opacity="1" fill-rule="nonzero"/><path fill="#ffffff" d="M 758.191406 521.96875 L 780.8125 521.96875 L 780.8125 544.59375 L 758.191406 544.59375 Z M 758.191406 521.96875 " fill-opacity="1" fill-rule="nonzero"/><path fill="#ffffff" d="M 787.945312 521.96875 L 810.585938 521.96875 L 810.585938 544.59375 L 787.945312 544.59375 Z M 787.945312 521.96875 " fill-opacity="1" fill-rule="nonzero"/><path fill="#ffffff" d="M 817.714844 521.96875 L 855.257812 521.96875 L 855.257812 544.59375 L 817.714844 544.59375 Z M 817.714844 521.96875 " fill-opacity="1" fill-rule="nonzero"/><path fill="#ffffff" d="M 430.726562 551.722656 L 468.28125 551.722656 L 468.28125 574.363281 L 430.726562 574.363281 Z M 430.726562 551.722656 " fill-opacity="1" fill-rule="nonzero"/><path fill="#ffffff" d="M 430.726562 581.492188 L 475.460938 581.492188 L 475.460938 604.125 L 430.726562 604.125 Z M 430.726562 581.492188 " fill-opacity="1" fill-rule="nonzero"/><path fill="#ffffff" d="M 430.726562 611.253906 L 460.902344 611.253906 L 460.902344 633.886719 L 430.726562 633.886719 Z M 430.726562 611.253906 " fill-opacity="1" fill-rule="nonzero"/><path fill="#ffffff" d="M 430.726562 641 L 453.378906 641 L 453.378906 667.390625 L 430.726562 667.390625 Z M 430.726562 641 " fill-opacity="1" fill-rule="nonzero"/><path fill="#ffffff" d="M 460.410156 641 L 483.0625 641 L 483.0625 667.390625 L 460.410156 667.390625 Z M 460.410156 641 " fill-opacity="1" fill-rule="nonzero"/><path fill="#ffffff" d="M 490.09375 641 L 512.742188 641 L 512.742188 667.390625 L 490.09375 667.390625 Z M 490.09375 641 " fill-opacity="1" fill-rule="nonzero"/><path fill="#ffffff" d="M 519.765625 641 L 550.160156 641 L 550.160156 667.390625 L 519.765625 667.390625 Z M 519.765625 641 " fill-opacity="1" fill-rule="nonzero"/><path fill="#ffffff" d="M 557.273438 641 L 699.007812 641 L 699.007812 667.390625 L 557.273438 667.390625 Z M 557.273438 641 " fill-opacity="1" fill-rule="nonzero"/><path fill="#ffffff" d="M 706.132812 641 L 736.519531 641 L 736.519531 667.390625 L 706.132812 667.390625 Z M 706.132812 641 " fill-opacity="1" fill-rule="nonzero"/><path fill="#ffffff" d="M 743.582031 641 L 766.234375 641 L 766.234375 667.390625 L 743.582031 667.390625 Z M 743.582031 641 " fill-opacity="1" fill-rule="nonzero"/><path fill="#ffffff" d="M 773.34375 655.089844 L 795.988281 655.089844 L 795.988281 667.390625 L 773.34375 667.390625 Z M 773.34375 655.089844 " fill-opacity="1" fill-rule="nonzero"/><path fill="#ffffff" d="M 802.976562 655.820312 L 825.628906 655.820312 L 825.628906 667.390625 L 802.976562 667.390625 Z M 802.976562 655.820312 " fill-opacity="1" fill-rule="nonzero"/><path fill="#ffffff" d="M 802.976562 640.933594 L 825.628906 640.933594 L 825.628906 652.503906 L 802.976562 652.503906 Z M 802.976562 640.933594 " fill-opacity="1" fill-rule="nonzero"/><path fill="#ffffff" d="M 832.621094 655.089844 L 855.269531 655.089844 L 855.269531 667.390625 L 832.621094 667.390625 Z M 832.621094 655.089844 " fill-opacity="1" fill-rule="nonzero"/><path fill="#ffffff" d="M 839.699219 604.125 L 839.699219 574.371094 L 832.636719 574.371094 L 832.636719 551.742188 L 855.273438 551.742188 L 855.273438 604.125 Z M 839.699219 604.125 " fill-opacity="1" fill-rule="nonzero"/><g clip-path="url(#50f1846d1f)"><path fill="#ffffff" d="M 756.613281 870.378906 C 779.042969 870.378906 797.292969 852.128906 797.292969 829.695312 L 797.292969 682.363281 L 791.675781 682.363281 L 791.675781 829.695312 C 791.675781 849.035156 775.945312 864.769531 756.613281 864.769531 C 737.277344 864.769531 721.546875 849.035156 721.546875 829.695312 L 721.546875 390.074219 C 721.546875 367.640625 703.292969 349.394531 680.859375 349.394531 C 658.433594 349.394531 640.183594 367.644531 640.183594 390.074219 L 640.183594 507.03125 L 645.804688 507.03125 L 645.804688 390.074219 C 645.804688 370.742188 661.523438 355.011719 680.859375 355.011719 C 700.199219 355.011719 715.929688 370.738281 715.929688 390.074219 L 715.929688 829.695312 C 715.929688 852.128906 734.175781 870.378906 756.613281 870.378906 Z M 756.613281 870.378906 " fill-opacity="1" fill-rule="nonzero"/></g><path fill="#ffffff" d="M 791.675781 460.457031 L 797.292969 460.457031 L 797.292969 507.019531 L 791.675781 507.019531 Z M 791.675781 460.457031 " fill-opacity="1" fill-rule="nonzero"/><path fill="#ffffff" d="M 780.9375 449.722656 C 780.9375 442.261719 787.015625 436.183594 794.480469 436.183594 C 801.949219 436.183594 808.019531 442.261719 808.019531 449.722656 C 808.019531 457.191406 801.945312 463.265625 794.480469 463.265625 C 787.015625 463.265625 780.9375 457.191406 780.9375 449.722656 Z M 786.558594 449.722656 C 786.558594 454.089844 790.117188 457.648438 794.484375 457.648438 C 798.847656 457.648438 802.414062 454.089844 802.414062 449.722656 C 802.414062 445.359375 798.847656 441.804688 794.484375 441.804688 C 790.113281 441.804688 786.558594 445.355469 786.558594 449.722656 Z M 786.558594 449.722656 " fill-opacity="1" fill-rule="nonzero"/><g clip-path="url(#bef945c456)"><path fill="#d9d8d7" d="M 791.675781 723.386719 L 791.675781 829.695312 C 791.675781 849.03125 775.945312 864.765625 756.613281 864.765625 C 737.277344 864.765625 721.546875 849.035156 721.546875 829.695312 L 721.546875 770.832031 C 719.683594 772.410156 717.816406 773.976562 715.929688 775.523438 L 715.929688 829.695312 C 715.929688 852.128906 734.179688 870.375 756.613281 870.375 C 779.039062 870.375 797.292969 852.128906 797.292969 829.695312 L 797.292969 723.386719 Z M 791.675781 723.386719 " fill-opacity="1" fill-rule="nonzero"/></g><path fill="#353f49" d="M 431.796875 216.96875 C 420.089844 228.679688 403.894531 235.902344 386.027344 235.902344 C 350.304688 235.902344 321.324219 206.929688 321.324219 171.195312 C 321.324219 144.226562 337.824219 121.089844 361.28125 111.394531 L 386.027344 171.195312 Z M 431.796875 216.96875 " fill-opacity="1" fill-rule="nonzero"/><path fill="#ed6d47" d="M 450.757812 171.1875 L 386.035156 171.1875 L 386.035156 106.46875 C 421.78125 106.46875 450.757812 135.441406 450.757812 171.1875 Z M 450.757812 171.1875 " fill-opacity="1" fill-rule="nonzero"/><path fill="#ffffff" d="M 450.757812 171.1875 C 450.757812 189.058594 443.515625 205.238281 431.800781 216.953125 L 386.035156 171.1875 Z M 450.757812 171.1875 " fill-opacity="1" fill-rule="nonzero"/><path fill="#ffd680" d="M 386.027344 106.464844 L 386.027344 171.195312 L 361.285156 111.394531 C 368.90625 108.21875 377.273438 106.464844 386.027344 106.464844 Z M 386.027344 106.464844 " fill-opacity="1" fill-rule="nonzero"/><path fill="#ffffff" d="M 760.605469 167.03125 L 760.605469 311.664062 L 508.605469 311.664062 L 508.605469 33.933594 C 537.300781 37.933594 565.066406 44.839844 591.59375 54.34375 C 604.667969 59.03125 617.480469 64.324219 629.921875 70.253906 C 633.070312 71.734375 636.195312 73.269531 639.292969 74.832031 C 649.800781 80.125 660.042969 85.871094 670 92.011719 C 677.886719 96.855469 685.589844 101.964844 693.105469 107.3125 C 695.515625 109.007812 697.871094 110.726562 700.226562 112.472656 C 703.667969 115.015625 707.027344 117.609375 710.390625 120.257812 C 712.5625 121.976562 714.707031 123.695312 716.847656 125.445312 C 732.386719 138.257812 747 152.152344 760.605469 167.03125 Z M 760.605469 167.03125 " fill-opacity="1" fill-rule="nonzero"/><path fill="#91d3d9" d="M 629.921875 70.253906 L 629.921875 92.011719 L 544.289062 92.011719 L 544.289062 54.34375 L 591.589844 54.34375 C 604.667969 59.03125 617.480469 64.324219 629.921875 70.253906 Z M 629.921875 70.253906 " fill-opacity="1" fill-rule="nonzero"/><path fill="#cccbca" d="M 669.996094 92.011719 L 639.292969 92.011719 L 639.292969 74.832031 C 649.800781 80.125 660.042969 85.871094 669.996094 92.011719 Z M 669.996094 92.011719 " fill-opacity="1" fill-rule="nonzero"/><path fill="#232e38" d="M 700.226562 112.472656 L 544.289062 112.472656 L 544.289062 107.3125 L 693.105469 107.3125 C 695.515625 109.007812 697.871094 110.726562 700.226562 112.472656 Z M 700.226562 112.472656 " fill-opacity="1" fill-rule="nonzero"/><path fill="#cccbca" d="M 716.851562 125.445312 L 544.289062 125.445312 L 544.289062 120.257812 L 710.390625 120.257812 C 712.5625 121.976562 714.707031 123.695312 716.851562 125.445312 Z M 716.851562 125.445312 " fill-opacity="1" fill-rule="nonzero"/><path fill="#cccbca" d="M 544.28125 133.214844 L 634.617188 133.214844 L 634.617188 138.398438 L 544.28125 138.398438 Z M 544.28125 133.214844 " fill-opacity="1" fill-rule="nonzero"/><path fill="#656a73" d="M 644.496094 188.542969 L 554.207031 188.542969 L 554.207031 175.03125 L 557.042969 175.03125 L 557.042969 185.703125 L 641.664062 185.703125 L 641.664062 175.03125 L 644.496094 175.03125 Z M 644.496094 188.542969 " fill-opacity="1" fill-rule="nonzero"/><path fill="#656a73" d="M 612.511719 175.03125 L 615.347656 175.03125 L 615.347656 187.121094 L 612.511719 187.121094 Z M 612.511719 175.03125 " fill-opacity="1" fill-rule="nonzero"/><path fill="#656a73" d="M 583.363281 175.03125 L 586.191406 175.03125 L 586.191406 187.121094 L 583.363281 187.121094 Z M 583.363281 175.03125 " fill-opacity="1" fill-rule="nonzero"/><path fill="#656a73" d="M 597.9375 187.125 L 600.777344 187.125 L 600.777344 199.195312 L 597.9375 199.195312 Z M 597.9375 187.125 " fill-opacity="1" fill-rule="nonzero"/><path fill="#656a73" d="M 644.496094 267.273438 L 641.664062 267.273438 L 641.664062 256.605469 L 557.042969 256.605469 L 557.042969 267.273438 L 554.207031 267.273438 L 554.207031 253.777344 L 644.496094 253.777344 Z M 644.496094 267.273438 " fill-opacity="1" fill-rule="nonzero"/><path fill="#656a73" d="M 612.511719 255.183594 L 615.347656 255.183594 L 615.347656 267.269531 L 612.511719 267.269531 Z M 612.511719 255.183594 " fill-opacity="1" fill-rule="nonzero"/><path fill="#656a73" d="M 583.363281 255.183594 L 586.191406 255.183594 L 586.191406 267.269531 L 583.363281 267.269531 Z M 583.363281 255.183594 " fill-opacity="1" fill-rule="nonzero"/><path fill="#656a73" d="M 597.9375 243.109375 L 600.777344 243.109375 L 600.777344 255.183594 L 597.9375 255.183594 Z M 597.9375 243.109375 " fill-opacity="1" fill-rule="nonzero"/><path fill="#656a73" d="M 703.6875 242.40625 L 687.535156 242.40625 L 687.535156 199.917969 L 703.6875 199.917969 L 703.6875 202.738281 L 690.375 202.738281 L 690.375 239.578125 L 703.6875 239.578125 Z M 703.6875 242.40625 " fill-opacity="1" fill-rule="nonzero"/><path fill="#656a73" d="M 674.222656 219.742188 L 688.957031 219.742188 L 688.957031 222.566406 L 674.222656 222.566406 Z M 674.222656 219.742188 " fill-opacity="1" fill-rule="nonzero"/><path fill="#656a73" d="M 621.316406 219.742188 L 653.003906 219.742188 L 653.003906 222.566406 L 621.316406 222.566406 Z M 621.316406 219.742188 " fill-opacity="1" fill-rule="nonzero"/><path fill="#91d3d9" d="M 652.976562 199.917969 L 675.648438 199.917969 L 675.648438 242.410156 L 652.976562 242.410156 Z M 652.976562 199.917969 " fill-opacity="1" fill-rule="nonzero"/><path fill="#cccbca" d="M 702.273438 229.65625 L 724.9375 229.65625 L 724.9375 252.335938 L 702.273438 252.335938 Z M 702.273438 229.65625 " fill-opacity="1" fill-rule="nonzero"/><path fill="#cccbca" d="M 702.273438 189.988281 L 724.9375 189.988281 L 724.9375 212.652344 L 702.273438 212.652344 Z M 702.273438 189.988281 " fill-opacity="1" fill-rule="nonzero"/><path fill="#cccbca" d="M 631.738281 265.859375 L 654.414062 265.859375 L 654.414062 288.523438 L 631.738281 288.523438 Z M 631.738281 265.859375 " fill-opacity="1" fill-rule="nonzero"/><path fill="#cccbca" d="M 602.589844 265.859375 L 625.261719 265.859375 L 625.261719 288.523438 L 602.589844 288.523438 Z M 602.589844 265.859375 " fill-opacity="1" fill-rule="nonzero"/><path fill="#cccbca" d="M 573.433594 265.859375 L 596.121094 265.859375 L 596.121094 288.523438 L 573.433594 288.523438 Z M 573.433594 265.859375 " fill-opacity="1" fill-rule="nonzero"/><path fill="#cccbca" d="M 544.28125 265.859375 L 566.960938 265.859375 L 566.960938 288.523438 L 544.28125 288.523438 Z M 544.28125 265.859375 " fill-opacity="1" fill-rule="nonzero"/><path fill="#cccbca" d="M 631.738281 153.785156 L 654.414062 153.785156 L 654.414062 176.457031 L 631.738281 176.457031 Z M 631.738281 153.785156 " fill-opacity="1" fill-rule="nonzero"/><path fill="#cccbca" d="M 602.589844 153.785156 L 625.261719 153.785156 L 625.261719 176.457031 L 602.589844 176.457031 Z M 602.589844 153.785156 " fill-opacity="1" fill-rule="nonzero"/><path fill="#cccbca" d="M 573.433594 153.785156 L 596.121094 153.785156 L 596.121094 176.457031 L 573.433594 176.457031 Z M 573.433594 153.785156 " fill-opacity="1" fill-rule="nonzero"/><path fill="#cccbca" d="M 544.28125 153.785156 L 566.960938 153.785156 L 566.960938 176.457031 L 544.28125 176.457031 Z M 544.28125 153.785156 " fill-opacity="1" fill-rule="nonzero"/><path fill="#f68360" d="M 599.359375 244.535156 C 586.457031 244.535156 575.980469 234.054688 575.980469 221.164062 C 575.980469 208.261719 586.457031 197.777344 599.359375 197.777344 C 612.234375 197.777344 622.722656 208.261719 622.722656 221.164062 C 622.722656 234.054688 612.234375 244.535156 599.359375 244.535156 Z M 599.359375 244.535156 " fill-opacity="1" fill-rule="nonzero"/></svg>