<svg xmlns="http://www.w3.org/2000/svg" xmlns:xlink="http://www.w3.org/1999/xlink" width="1200" zoomAndPan="magnify" viewBox="0 0 900 899.99999" height="1200" preserveAspectRatio="xMidYMid meet" version="1.0"><defs><clipPath id="47f813c772"><path d="M 15 14.335938 L 880.886719 14.335938 L 880.886719 880 L 15 880 Z M 15 14.335938 " clip-rule="nonzero"/></clipPath></defs><g clip-path="url(#47f813c772)"><path fill="#196ab8" d="M 567.722656 584.640625 L 595.273438 584.640625 L 595.273438 603.007812 L 567.722656 603.007812 Z M 613.640625 603.007812 L 641.191406 603.007812 L 641.191406 584.640625 L 613.640625 584.640625 Z M 521.804688 603.007812 L 549.355469 603.007812 L 549.355469 584.640625 L 521.804688 584.640625 Z M 881.34375 446.886719 C 881.34375 453.972656 881.171875 461.054688 880.824219 468.132812 C 880.476562 475.210938 879.953125 482.277344 879.257812 489.328125 C 878.5625 496.382812 877.695312 503.414062 876.65625 510.421875 C 875.617188 517.433594 874.40625 524.414062 873.023438 531.363281 C 871.640625 538.3125 870.089844 545.226562 868.367188 552.101562 C 866.644531 558.972656 864.753906 565.800781 862.699219 572.582031 C 860.640625 579.363281 858.417969 586.089844 856.03125 592.765625 C 853.644531 599.4375 851.09375 606.046875 848.382812 612.59375 C 845.671875 619.140625 842.800781 625.617188 839.769531 632.023438 C 836.742188 638.429688 833.554688 644.757812 830.214844 651.007812 C 826.875 657.257812 823.382812 663.421875 819.738281 669.5 C 816.097656 675.578125 812.304688 681.5625 808.367188 687.453125 C 804.429688 693.347656 800.351562 699.140625 796.132812 704.832031 C 791.910156 710.523438 787.550781 716.109375 783.054688 721.585938 C 778.558594 727.0625 773.933594 732.429688 769.171875 737.679688 C 764.414062 742.929688 759.527344 748.0625 754.519531 753.070312 C 749.507812 758.082031 744.375 762.96875 739.125 767.726562 C 733.875 772.484375 728.511719 777.113281 723.03125 781.609375 C 717.554688 786.105469 711.96875 790.460938 706.277344 794.683594 C 700.585938 798.90625 694.792969 802.984375 688.902344 806.921875 C 683.007812 810.859375 677.023438 814.648438 670.945312 818.292969 C 664.867188 821.9375 658.703125 825.425781 652.453125 828.769531 C 646.203125 832.109375 639.875 835.292969 633.46875 838.324219 C 627.0625 841.355469 620.585938 844.222656 614.039062 846.9375 C 607.492188 849.648438 600.882812 852.199219 594.210938 854.585938 C 587.539062 856.972656 580.8125 859.195312 574.03125 861.253906 C 567.25 863.308594 560.421875 865.199219 553.546875 866.921875 C 546.671875 868.640625 539.761719 870.195312 532.808594 871.578125 C 525.859375 872.960938 518.878906 874.171875 511.871094 875.210938 C 504.859375 876.25 497.828125 877.117188 490.777344 877.8125 C 483.722656 878.507812 476.660156 879.027344 469.582031 879.375 C 462.503906 879.722656 455.421875 879.898438 448.332031 879.898438 C 441.246094 879.898438 434.164062 879.722656 427.085938 879.375 C 420.007812 879.027344 412.945312 878.507812 405.890625 877.8125 C 398.839844 877.117188 391.808594 876.25 384.796875 875.210938 C 377.789062 874.171875 370.808594 872.960938 363.859375 871.578125 C 356.90625 870.195312 349.996094 868.640625 343.121094 866.921875 C 336.246094 865.199219 329.417969 863.308594 322.636719 861.253906 C 315.855469 859.195312 309.128906 856.972656 302.457031 854.585938 C 295.785156 852.199219 289.175781 849.648438 282.628906 846.9375 C 276.082031 844.222656 269.605469 841.355469 263.199219 838.324219 C 256.792969 835.292969 250.464844 832.109375 244.214844 828.769531 C 237.964844 825.425781 231.800781 821.9375 225.722656 818.292969 C 219.644531 814.648438 213.660156 810.859375 207.765625 806.921875 C 201.875 802.984375 196.082031 798.90625 190.390625 794.683594 C 184.699219 790.460938 179.113281 786.105469 173.636719 781.609375 C 168.15625 777.113281 162.792969 772.484375 157.542969 767.726562 C 152.292969 762.96875 147.160156 758.082031 142.148438 753.070312 C 137.136719 748.0625 132.253906 742.929688 127.496094 737.679688 C 122.734375 732.429688 118.109375 727.0625 113.613281 721.585938 C 109.117188 716.109375 104.757812 710.523438 100.535156 704.832031 C 96.316406 699.140625 92.234375 693.347656 88.300781 687.453125 C 84.363281 681.5625 80.570312 675.578125 76.929688 669.5 C 73.285156 663.421875 69.792969 657.257812 66.453125 651.007812 C 63.113281 644.757812 59.925781 638.429688 56.898438 632.023438 C 53.867188 625.617188 50.996094 619.140625 48.285156 612.59375 C 45.574219 606.046875 43.023438 599.4375 40.636719 592.765625 C 38.25 586.089844 36.027344 579.363281 33.96875 572.582031 C 31.910156 565.800781 30.023438 558.972656 28.300781 552.101562 C 26.578125 545.226562 25.027344 538.3125 23.644531 531.363281 C 22.261719 524.414062 21.050781 517.433594 20.011719 510.421875 C 18.96875 503.414062 18.101562 496.382812 17.410156 489.328125 C 16.714844 482.277344 16.191406 475.210938 15.84375 468.132812 C 15.496094 461.054688 15.324219 453.972656 15.324219 446.886719 C 15.324219 439.800781 15.496094 432.71875 15.84375 425.640625 C 16.191406 418.5625 16.714844 411.496094 17.410156 404.445312 C 18.101562 397.390625 18.96875 390.359375 20.011719 383.351562 C 21.050781 376.339844 22.261719 369.363281 23.644531 362.410156 C 25.027344 355.460938 26.578125 348.546875 28.300781 341.675781 C 30.023438 334.800781 31.910156 327.972656 33.96875 321.191406 C 36.027344 314.410156 38.25 307.683594 40.636719 301.011719 C 43.023438 294.339844 45.574219 287.730469 48.285156 281.179688 C 50.996094 274.632812 53.867188 268.15625 56.898438 261.75 C 59.925781 255.34375 63.113281 249.015625 66.453125 242.769531 C 69.792969 236.519531 73.285156 230.355469 76.929688 224.277344 C 80.570312 218.195312 84.363281 212.210938 88.300781 206.320312 C 92.234375 200.425781 96.316406 194.636719 100.535156 188.945312 C 104.757812 183.25 109.117188 177.667969 113.613281 172.1875 C 118.109375 166.710938 122.734375 161.347656 127.496094 156.09375 C 132.253906 150.84375 137.136719 145.714844 142.148438 140.703125 C 147.160156 135.691406 152.292969 130.808594 157.542969 126.046875 C 162.792969 121.289062 168.15625 116.660156 173.636719 112.164062 C 179.113281 107.671875 184.699219 103.3125 190.390625 99.089844 C 196.082031 94.867188 201.875 90.789062 207.765625 86.851562 C 213.660156 82.914062 219.644531 79.125 225.722656 75.480469 C 231.800781 71.839844 237.964844 68.347656 244.214844 65.007812 C 250.464844 61.664062 256.792969 58.480469 263.199219 55.449219 C 269.605469 52.421875 276.082031 49.550781 282.628906 46.839844 C 289.175781 44.125 295.785156 41.578125 302.457031 39.1875 C 309.128906 36.800781 315.855469 34.578125 322.636719 32.523438 C 329.417969 30.464844 336.246094 28.574219 343.121094 26.855469 C 349.996094 25.132812 356.90625 23.578125 363.859375 22.199219 C 370.808594 20.816406 377.789062 19.605469 384.796875 18.5625 C 391.808594 17.523438 398.839844 16.65625 405.890625 15.960938 C 412.945312 15.265625 420.007812 14.746094 427.085938 14.398438 C 434.164062 14.050781 441.246094 13.878906 448.332031 13.878906 C 455.417969 13.882812 462.5 14.066406 469.574219 14.421875 C 476.648438 14.773438 483.710938 15.304688 490.761719 16.003906 C 497.8125 16.703125 504.839844 17.578125 511.847656 18.625 C 518.855469 19.667969 525.832031 20.886719 532.777344 22.273438 C 539.726562 23.660156 546.632812 25.21875 553.503906 26.945312 C 560.375 28.671875 567.199219 30.5625 573.980469 32.625 C 580.757812 34.6875 587.480469 36.910156 594.148438 39.304688 C 600.820312 41.695312 607.425781 44.246094 613.96875 46.960938 C 620.511719 49.675781 626.984375 52.546875 633.386719 55.582031 C 639.792969 58.613281 646.117188 61.800781 652.363281 65.140625 C 658.609375 68.484375 664.769531 71.976562 670.847656 75.621094 C 676.921875 79.265625 682.902344 83.054688 688.792969 86.992188 C 694.683594 90.929688 700.472656 95.011719 706.160156 99.230469 C 711.851562 103.453125 717.433594 107.8125 722.910156 112.304688 C 728.386719 116.800781 733.746094 121.429688 738.996094 126.1875 C 744.246094 130.945312 749.375 135.828125 754.382812 140.835938 C 759.394531 145.847656 764.277344 150.976562 769.035156 156.226562 C 773.792969 161.472656 778.417969 166.835938 782.914062 172.3125 C 787.410156 177.789062 791.769531 183.371094 795.988281 189.058594 C 800.210938 194.75 804.289062 200.539062 808.226562 206.429688 C 812.164062 212.316406 815.957031 218.300781 819.601562 224.375 C 823.246094 230.449219 826.738281 236.613281 830.078125 242.859375 C 833.421875 249.105469 836.609375 255.429688 839.640625 261.832031 C 842.671875 268.234375 845.546875 274.707031 848.261719 281.253906 C 850.976562 287.796875 853.527344 294.402344 855.917969 301.070312 C 858.308594 307.742188 860.535156 314.464844 862.597656 321.242188 C 864.65625 328.019531 866.550781 334.84375 868.277344 341.714844 C 870.003906 348.585938 871.558594 355.496094 872.949219 362.441406 C 874.335938 369.390625 875.550781 376.367188 876.597656 383.375 C 877.644531 390.382812 878.515625 397.410156 879.21875 404.460938 C 879.917969 411.507812 880.445312 418.570312 880.800781 425.648438 C 881.15625 432.722656 881.335938 439.804688 881.34375 446.886719 Z M 860.222656 446.886719 C 860.222656 440.144531 860.054688 433.410156 859.726562 426.675781 C 859.394531 419.945312 858.898438 413.222656 858.238281 406.515625 C 857.578125 399.808594 856.753906 393.117188 855.761719 386.449219 C 854.773438 379.78125 853.621094 373.144531 852.308594 366.53125 C 850.992188 359.921875 849.515625 353.34375 847.878906 346.808594 C 846.238281 340.269531 844.441406 333.773438 842.484375 327.324219 C 840.527344 320.871094 838.414062 314.472656 836.144531 308.125 C 833.875 301.78125 831.449219 295.492188 828.867188 289.265625 C 826.289062 283.035156 823.558594 276.875 820.675781 270.78125 C 817.792969 264.6875 814.765625 258.667969 811.585938 252.726562 C 808.410156 246.78125 805.085938 240.917969 801.621094 235.132812 C 798.15625 229.351562 794.550781 223.660156 790.804688 218.054688 C 787.0625 212.449219 783.179688 206.941406 779.164062 201.527344 C 775.148438 196.113281 771.003906 190.800781 766.726562 185.589844 C 762.449219 180.378906 758.050781 175.273438 753.523438 170.28125 C 748.996094 165.285156 744.347656 160.40625 739.582031 155.636719 C 734.816406 150.871094 729.933594 146.226562 724.941406 141.699219 C 719.945312 137.171875 714.84375 132.769531 709.632812 128.492188 C 704.421875 124.21875 699.109375 120.070312 693.695312 116.054688 C 688.28125 112.039062 682.769531 108.160156 677.167969 104.414062 C 671.5625 100.671875 665.867188 97.066406 660.085938 93.597656 C 654.304688 90.132812 648.441406 86.8125 642.496094 83.632812 C 636.550781 80.457031 630.53125 77.425781 624.4375 74.546875 C 618.34375 71.664062 612.183594 68.933594 605.957031 66.351562 C 599.730469 63.773438 593.441406 61.347656 587.09375 59.078125 C 580.746094 56.804688 574.347656 54.691406 567.898438 52.734375 C 561.449219 50.777344 554.953125 48.980469 548.414062 47.34375 C 541.875 45.707031 535.300781 44.230469 528.6875 42.914062 C 522.078125 41.597656 515.4375 40.445312 508.769531 39.457031 C 502.101562 38.46875 495.414062 37.644531 488.707031 36.984375 C 481.996094 36.320312 475.277344 35.828125 468.542969 35.496094 C 461.8125 35.164062 455.074219 35 448.332031 35 C 441.59375 35 434.855469 35.164062 428.125 35.496094 C 421.390625 35.828125 414.671875 36.320312 407.960938 36.984375 C 401.253906 37.644531 394.566406 38.46875 387.898438 39.457031 C 381.230469 40.445312 374.589844 41.597656 367.980469 42.914062 C 361.367188 44.230469 354.792969 45.707031 348.253906 47.34375 C 341.714844 48.980469 335.21875 50.777344 328.769531 52.734375 C 322.320312 54.691406 315.917969 56.804688 309.574219 59.078125 C 303.226562 61.347656 296.9375 63.773438 290.710938 66.351562 C 284.484375 68.933594 278.324219 71.664062 272.230469 74.546875 C 266.136719 77.425781 260.117188 80.457031 254.171875 83.632812 C 248.226562 86.8125 242.363281 90.132812 236.582031 93.597656 C 230.800781 97.066406 225.105469 100.671875 219.5 104.414062 C 213.894531 108.160156 208.386719 112.039062 202.972656 116.054688 C 197.558594 120.070312 192.246094 124.21875 187.035156 128.492188 C 181.824219 132.769531 176.722656 137.171875 171.726562 141.699219 C 166.730469 146.226562 161.851562 150.871094 157.085938 155.636719 C 152.320312 160.40625 147.671875 165.285156 143.144531 170.28125 C 138.617188 175.273438 134.214844 180.378906 129.941406 185.589844 C 125.664062 190.800781 121.519531 196.113281 117.503906 201.527344 C 113.488281 206.941406 109.605469 212.449219 105.863281 218.054688 C 102.117188 223.660156 98.511719 229.351562 95.046875 235.132812 C 91.582031 240.917969 88.257812 246.78125 85.082031 252.726562 C 81.902344 258.667969 78.875 264.6875 75.992188 270.78125 C 73.109375 276.875 70.378906 283.035156 67.800781 289.265625 C 65.21875 295.492188 62.792969 301.78125 60.523438 308.125 C 58.253906 314.472656 56.136719 320.871094 54.183594 327.324219 C 52.226562 333.773438 50.429688 340.269531 48.789062 346.808594 C 47.152344 353.34375 45.675781 359.921875 44.359375 366.53125 C 43.046875 373.144531 41.894531 379.78125 40.902344 386.449219 C 39.914062 393.117188 39.089844 399.808594 38.429688 406.515625 C 37.769531 413.222656 37.273438 419.945312 36.941406 426.675781 C 36.613281 433.410156 36.445312 440.144531 36.445312 446.886719 C 36.445312 453.628906 36.613281 460.363281 36.941406 467.097656 C 37.273438 473.832031 37.769531 480.550781 38.429688 487.257812 C 39.089844 493.96875 39.914062 500.65625 40.902344 507.324219 C 41.894531 513.992188 43.046875 520.632812 44.359375 527.242188 C 45.675781 533.855469 47.152344 540.429688 48.789062 546.96875 C 50.429688 553.507812 52.226562 560 54.183594 566.453125 C 56.140625 572.902344 58.253906 579.300781 60.523438 585.648438 C 62.792969 591.996094 65.21875 598.28125 67.800781 604.507812 C 70.378906 610.738281 73.109375 616.898438 75.992188 622.992188 C 78.875 629.085938 81.902344 635.105469 85.082031 641.050781 C 88.257812 646.996094 91.582031 652.859375 95.046875 658.640625 C 98.511719 664.421875 102.117188 670.113281 105.863281 675.71875 C 109.605469 681.324219 113.488281 686.835938 117.503906 692.25 C 121.519531 697.664062 125.664062 702.976562 129.941406 708.1875 C 134.214844 713.398438 138.617188 718.5 143.144531 723.492188 C 147.671875 728.488281 152.320312 733.371094 157.085938 738.136719 C 161.851562 742.902344 166.730469 747.550781 171.726562 752.074219 C 176.722656 756.601562 181.824219 761.003906 187.035156 765.28125 C 192.246094 769.558594 197.558594 773.703125 202.972656 777.71875 C 208.386719 781.734375 213.898438 785.613281 219.5 789.359375 C 225.105469 793.105469 230.800781 796.710938 236.582031 800.175781 C 242.363281 803.640625 248.226562 806.960938 254.171875 810.140625 C 260.117188 813.316406 266.136719 816.347656 272.230469 819.230469 C 278.324219 822.113281 284.484375 824.84375 290.710938 827.421875 C 296.9375 830 303.226562 832.425781 309.574219 834.699219 C 315.917969 836.96875 322.320312 839.082031 328.769531 841.039062 C 335.21875 842.996094 341.714844 844.792969 348.253906 846.429688 C 354.792969 848.070312 361.367188 849.546875 367.980469 850.859375 C 374.589844 852.175781 381.230469 853.328125 387.898438 854.316406 C 394.566406 855.304688 401.253906 856.132812 407.960938 856.792969 C 414.671875 857.453125 421.390625 857.949219 428.125 858.277344 C 434.855469 858.609375 441.59375 858.773438 448.332031 858.773438 C 455.074219 858.765625 461.808594 858.59375 468.539062 858.257812 C 475.269531 857.917969 481.984375 857.417969 488.691406 856.75 C 495.398438 856.082031 502.082031 855.253906 508.746094 854.257812 C 515.414062 853.261719 522.050781 852.105469 528.65625 850.785156 C 535.265625 849.464844 541.835938 847.984375 548.375 846.339844 C 554.910156 844.699219 561.398438 842.898438 567.847656 840.9375 C 574.292969 838.976562 580.691406 836.859375 587.035156 834.585938 C 593.375 832.308594 599.660156 829.882812 605.886719 827.300781 C 612.109375 824.71875 618.265625 821.984375 624.359375 819.101562 C 630.449219 816.214844 636.464844 813.183594 642.40625 810.003906 C 648.347656 806.824219 654.207031 803.503906 659.988281 800.035156 C 665.765625 796.570312 671.457031 792.964844 677.058594 789.21875 C 682.660156 785.472656 688.167969 781.59375 693.578125 777.578125 C 698.992188 773.5625 704.300781 769.417969 709.507812 765.140625 C 714.71875 760.863281 719.820312 756.464844 724.8125 751.9375 C 729.804688 747.410156 734.683594 742.765625 739.449219 738 C 744.214844 733.238281 748.859375 728.359375 753.382812 723.363281 C 757.910156 718.371094 762.3125 713.269531 766.585938 708.0625 C 770.863281 702.855469 775.007812 697.542969 779.023438 692.132812 C 783.039062 686.71875 786.917969 681.214844 790.664062 675.613281 C 794.410156 670.007812 798.015625 664.320312 801.484375 658.539062 C 804.949219 652.761719 808.273438 646.902344 811.453125 640.960938 C 814.628906 635.015625 817.660156 629 820.546875 622.910156 C 823.429688 616.820312 826.164062 610.664062 828.746094 604.4375 C 831.328125 598.214844 833.757812 591.929688 836.03125 585.585938 C 838.304688 579.242188 840.421875 572.847656 842.382812 566.402344 C 844.34375 559.953125 846.144531 553.460938 847.789062 546.925781 C 849.429688 540.390625 850.910156 533.820312 852.230469 527.210938 C 853.550781 520.601562 854.710938 513.964844 855.703125 507.300781 C 856.699219 500.636719 857.53125 493.949219 858.195312 487.246094 C 858.863281 480.539062 859.367188 473.820312 859.703125 467.089844 C 860.042969 460.359375 860.214844 453.625 860.222656 446.886719 Z M 843.230469 446.886719 C 843.230469 453.351562 843.074219 459.808594 842.757812 466.265625 C 842.4375 472.71875 841.964844 479.164062 841.332031 485.59375 C 840.695312 492.027344 839.90625 498.4375 838.957031 504.832031 C 838.007812 511.222656 836.90625 517.589844 835.644531 523.929688 C 834.382812 530.265625 832.96875 536.570312 831.398438 542.839844 C 829.828125 549.109375 828.105469 555.335938 826.226562 561.519531 C 824.351562 567.703125 822.324219 573.839844 820.148438 579.925781 C 817.96875 586.007812 815.644531 592.039062 813.171875 598.007812 C 810.699219 603.980469 808.082031 609.886719 805.316406 615.726562 C 802.554688 621.570312 799.648438 627.339844 796.601562 633.039062 C 793.554688 638.742188 790.371094 644.363281 787.050781 649.90625 C 783.726562 655.449219 780.269531 660.90625 776.679688 666.28125 C 773.089844 671.652344 769.367188 676.9375 765.519531 682.128906 C 761.667969 687.320312 757.695312 692.410156 753.59375 697.40625 C 749.496094 702.402344 745.273438 707.296875 740.933594 712.085938 C 736.59375 716.875 732.140625 721.550781 727.570312 726.121094 C 723 730.691406 718.320312 735.148438 713.53125 739.488281 C 708.742188 743.828125 703.851562 748.046875 698.855469 752.148438 C 693.859375 756.246094 688.765625 760.222656 683.574219 764.070312 C 678.382812 767.921875 673.101562 771.640625 667.726562 775.234375 C 662.355469 778.824219 656.894531 782.28125 651.351562 785.601562 C 645.808594 788.925781 640.1875 792.109375 634.488281 795.15625 C 628.789062 798.203125 623.015625 801.109375 617.175781 803.871094 C 611.332031 806.632812 605.425781 809.253906 599.453125 811.726562 C 593.484375 814.199219 587.457031 816.523438 581.371094 818.699219 C 575.285156 820.878906 569.152344 822.90625 562.964844 824.78125 C 556.78125 826.65625 550.554688 828.378906 544.285156 829.949219 C 538.015625 831.519531 531.714844 832.9375 525.375 834.199219 C 519.035156 835.457031 512.671875 836.5625 506.277344 837.511719 C 499.882812 838.460938 493.472656 839.25 487.039062 839.882812 C 480.609375 840.515625 474.164062 840.992188 467.710938 841.308594 C 461.253906 841.625 454.796875 841.785156 448.332031 841.785156 C 441.871094 841.785156 435.414062 841.625 428.957031 841.308594 C 422.503906 840.992188 416.058594 840.515625 409.628906 839.882812 C 403.195312 839.25 396.785156 838.460938 390.390625 837.511719 C 383.996094 836.5625 377.632812 835.457031 371.292969 834.199219 C 364.953125 832.9375 358.652344 831.519531 352.382812 829.949219 C 346.113281 828.378906 339.886719 826.65625 333.699219 824.78125 C 327.515625 822.90625 321.382812 820.878906 315.296875 818.699219 C 309.210938 816.523438 303.183594 814.199219 297.214844 811.726562 C 291.242188 809.253906 285.335938 806.632812 279.492188 803.871094 C 273.652344 801.109375 267.878906 798.203125 262.179688 795.15625 C 256.480469 792.109375 250.859375 788.925781 245.316406 785.601562 C 239.773438 782.28125 234.3125 778.824219 228.941406 775.234375 C 223.566406 771.640625 218.285156 767.921875 213.09375 764.070312 C 207.902344 760.222656 202.808594 756.246094 197.8125 752.148438 C 192.816406 748.046875 187.925781 743.828125 183.136719 739.488281 C 178.347656 735.148438 173.667969 730.691406 169.097656 726.121094 C 164.527344 721.550781 160.074219 716.875 155.734375 712.085938 C 151.394531 707.296875 147.171875 702.402344 143.074219 697.40625 C 138.972656 692.410156 135 687.320312 131.148438 682.128906 C 127.300781 676.9375 123.578125 671.65625 119.988281 666.28125 C 116.398438 660.90625 112.941406 655.449219 109.617188 649.90625 C 106.296875 644.363281 103.113281 638.742188 100.066406 633.039062 C 97.019531 627.339844 94.113281 621.570312 91.351562 615.726562 C 88.585938 609.886719 85.96875 603.980469 83.496094 598.007812 C 81.023438 592.039062 78.699219 586.007812 76.519531 579.925781 C 74.34375 573.839844 72.316406 567.703125 70.441406 561.519531 C 68.5625 555.335938 66.839844 549.109375 65.269531 542.839844 C 63.699219 536.570312 62.285156 530.265625 61.023438 523.929688 C 59.761719 517.589844 58.660156 511.222656 57.710938 504.832031 C 56.761719 498.4375 55.972656 492.027344 55.335938 485.59375 C 54.703125 479.164062 54.230469 472.71875 53.910156 466.265625 C 53.59375 459.808594 53.4375 453.351562 53.4375 446.886719 C 53.4375 440.425781 53.59375 433.964844 53.910156 427.511719 C 54.230469 421.054688 54.703125 414.613281 55.335938 408.179688 C 55.972656 401.75 56.761719 395.335938 57.710938 388.945312 C 58.660156 382.550781 59.761719 376.183594 61.023438 369.847656 C 62.285156 363.507812 63.699219 357.203125 65.269531 350.933594 C 66.839844 344.664062 68.5625 338.4375 70.441406 332.253906 C 72.316406 326.070312 74.34375 319.933594 76.519531 313.851562 C 78.699219 307.765625 81.023438 301.738281 83.496094 295.765625 C 85.96875 289.796875 88.585938 283.890625 91.351562 278.046875 C 94.113281 272.203125 97.019531 266.433594 100.066406 260.734375 C 103.113281 255.035156 106.296875 249.414062 109.617188 243.871094 C 112.941406 238.324219 116.398438 232.867188 119.988281 227.492188 C 123.578125 222.121094 127.300781 216.835938 131.148438 211.648438 C 135 206.457031 138.972656 201.363281 143.074219 196.367188 C 147.171875 191.371094 151.394531 186.480469 155.734375 181.691406 C 160.074219 176.902344 164.527344 172.222656 169.097656 167.652344 C 173.667969 163.082031 178.347656 158.628906 183.136719 154.289062 C 187.925781 149.945312 192.816406 145.726562 197.8125 141.628906 C 202.808594 137.527344 207.902344 133.550781 213.09375 129.703125 C 218.285156 125.851562 223.566406 122.132812 228.941406 118.542969 C 234.3125 114.949219 239.773438 111.496094 245.316406 108.171875 C 250.859375 104.847656 256.480469 101.664062 262.179688 98.617188 C 267.878906 95.570312 273.652344 92.667969 279.492188 89.902344 C 285.335938 87.140625 291.242188 84.523438 297.214844 82.050781 C 303.183594 79.574219 309.210938 77.25 315.296875 75.074219 C 321.382812 72.894531 327.515625 70.871094 333.699219 68.992188 C 339.886719 67.117188 346.113281 65.394531 352.382812 63.824219 C 358.652344 62.253906 364.953125 60.839844 371.292969 59.578125 C 377.632812 58.316406 383.996094 57.210938 390.390625 56.261719 C 396.785156 55.316406 403.195312 54.523438 409.628906 53.890625 C 416.058594 53.257812 422.503906 52.78125 428.957031 52.464844 C 435.414062 52.148438 441.871094 51.988281 448.332031 51.988281 C 454.796875 51.988281 461.253906 52.148438 467.710938 52.464844 C 474.164062 52.78125 480.609375 53.257812 487.039062 53.890625 C 493.472656 54.523438 499.882812 55.316406 506.277344 56.261719 C 512.671875 57.210938 519.035156 58.316406 525.375 59.578125 C 531.714844 60.839844 538.015625 62.253906 544.285156 63.824219 C 550.554688 65.394531 556.78125 67.117188 562.964844 68.992188 C 569.152344 70.871094 575.285156 72.894531 581.371094 75.074219 C 587.457031 77.25 593.484375 79.574219 599.453125 82.050781 C 605.425781 84.523438 611.332031 87.140625 617.175781 89.902344 C 623.015625 92.667969 628.789062 95.570312 634.488281 98.617188 C 640.1875 101.664062 645.808594 104.847656 651.351562 108.171875 C 656.894531 111.496094 662.355469 114.949219 667.726562 118.542969 C 673.101562 122.132812 678.382812 125.851562 683.574219 129.703125 C 688.765625 133.550781 693.859375 137.527344 698.855469 141.628906 C 703.851562 145.726562 708.742188 149.945312 713.53125 154.289062 C 718.320312 158.628906 723 163.082031 727.570312 167.652344 C 732.140625 172.222656 736.59375 176.902344 740.933594 181.691406 C 745.273438 186.480469 749.496094 191.371094 753.59375 196.367188 C 757.695312 201.363281 761.667969 206.457031 765.519531 211.648438 C 769.367188 216.835938 773.089844 222.121094 776.679688 227.492188 C 780.269531 232.867188 783.726562 238.324219 787.050781 243.871094 C 790.371094 249.414062 793.554688 255.035156 796.601562 260.734375 C 799.648438 266.433594 802.554688 272.203125 805.316406 278.046875 C 808.082031 283.890625 810.699219 289.796875 813.171875 295.765625 C 815.644531 301.738281 817.96875 307.765625 820.148438 313.851562 C 822.324219 319.933594 824.351562 326.070312 826.226562 332.253906 C 828.105469 338.4375 829.828125 344.664062 831.398438 350.933594 C 832.96875 357.203125 834.382812 363.507812 835.644531 369.847656 C 836.90625 376.183594 838.007812 382.550781 838.957031 388.945312 C 839.90625 395.335938 840.695312 401.75 841.332031 408.179688 C 841.964844 414.613281 842.4375 421.054688 842.757812 427.511719 C 843.074219 433.964844 843.230469 440.425781 843.230469 446.886719 Z M 687.109375 355.050781 L 650.375 355.050781 C 649.773438 355.050781 649.175781 355.109375 648.582031 355.226562 C 647.992188 355.34375 647.417969 355.519531 646.859375 355.75 C 646.304688 355.980469 645.773438 356.261719 645.273438 356.597656 C 644.769531 356.933594 644.308594 357.3125 643.878906 357.742188 C 643.453125 358.167969 643.074219 358.628906 642.738281 359.132812 C 642.402344 359.632812 642.121094 360.164062 641.890625 360.71875 C 641.660156 361.277344 641.484375 361.851562 641.367188 362.441406 C 641.25 363.035156 641.191406 363.632812 641.191406 364.234375 L 641.191406 492.804688 L 696.292969 492.804688 L 696.292969 364.234375 C 696.292969 363.632812 696.234375 363.035156 696.117188 362.441406 C 696 361.851562 695.824219 361.277344 695.59375 360.71875 C 695.363281 360.164062 695.082031 359.632812 694.746094 359.132812 C 694.410156 358.628906 694.03125 358.167969 693.601562 357.742188 C 693.175781 357.3125 692.710938 356.933594 692.210938 356.597656 C 691.710938 356.261719 691.179688 355.980469 690.625 355.75 C 690.066406 355.519531 689.492188 355.34375 688.902344 355.226562 C 688.308594 355.109375 687.710938 355.050781 687.109375 355.050781 Z M 521.804688 254.03125 C 526.816406 265.785156 529.878906 278.03125 530.988281 290.765625 L 641.191406 290.765625 C 641.792969 290.765625 642.390625 290.824219 642.984375 290.941406 C 643.574219 291.058594 644.148438 291.234375 644.707031 291.464844 C 645.261719 291.695312 645.792969 291.976562 646.292969 292.3125 C 646.792969 292.648438 647.257812 293.027344 647.683594 293.453125 C 648.109375 293.882812 648.492188 294.34375 648.828125 294.847656 C 649.160156 295.347656 649.445312 295.875 649.675781 296.433594 C 649.90625 296.992188 650.082031 297.566406 650.199219 298.15625 C 650.316406 298.75 650.375 299.34375 650.375 299.949219 L 650.375 345.867188 L 687.109375 345.867188 L 687.109375 290.765625 C 687.109375 289.5625 687.050781 288.363281 686.933594 287.164062 C 686.816406 285.96875 686.636719 284.777344 686.402344 283.597656 C 686.167969 282.417969 685.875 281.253906 685.527344 280.101562 C 685.179688 278.949219 684.773438 277.820312 684.3125 276.707031 C 683.851562 275.59375 683.339844 274.507812 682.773438 273.449219 C 682.203125 272.386719 681.585938 271.355469 680.917969 270.355469 C 680.25 269.355469 679.535156 268.390625 678.769531 267.460938 C 678.007812 266.53125 677.199219 265.640625 676.351562 264.789062 C 675.5 263.9375 674.609375 263.132812 673.679688 262.367188 C 672.75 261.605469 671.785156 260.890625 670.785156 260.222656 C 669.78125 259.550781 668.753906 258.933594 667.691406 258.367188 C 666.628906 257.800781 665.542969 257.285156 664.433594 256.828125 C 663.320312 256.367188 662.191406 255.960938 661.039062 255.613281 C 659.886719 255.261719 658.722656 254.972656 657.542969 254.734375 C 656.359375 254.5 655.171875 254.324219 653.976562 254.207031 C 652.777344 254.089844 651.578125 254.03125 650.375 254.03125 Z M 613.640625 391.785156 L 576.90625 391.785156 C 576.300781 391.785156 575.703125 391.84375 575.113281 391.960938 C 574.523438 392.078125 573.949219 392.253906 573.390625 392.484375 C 572.832031 392.714844 572.304688 392.996094 571.804688 393.332031 C 571.300781 393.667969 570.839844 394.046875 570.410156 394.476562 C 569.984375 394.902344 569.605469 395.367188 569.269531 395.867188 C 568.933594 396.367188 568.652344 396.898438 568.421875 397.453125 C 568.191406 398.011719 568.015625 398.585938 567.898438 399.175781 C 567.78125 399.769531 567.722656 400.367188 567.722656 400.96875 L 567.722656 492.804688 L 622.824219 492.804688 L 622.824219 400.96875 C 622.824219 400.367188 622.765625 399.769531 622.648438 399.175781 C 622.53125 398.585938 622.355469 398.011719 622.125 397.453125 C 621.894531 396.898438 621.609375 396.367188 621.277344 395.867188 C 620.941406 395.367188 620.558594 394.902344 620.132812 394.476562 C 619.707031 394.046875 619.242188 393.667969 618.742188 393.332031 C 618.242188 392.996094 617.710938 392.714844 617.15625 392.484375 C 616.597656 392.253906 616.023438 392.078125 615.429688 391.960938 C 614.839844 391.84375 614.242188 391.785156 613.640625 391.785156 Z M 540.171875 428.519531 L 503.4375 428.519531 C 502.832031 428.519531 502.234375 428.578125 501.644531 428.695312 C 501.054688 428.8125 500.480469 428.988281 499.921875 429.21875 C 499.363281 429.449219 498.835938 429.734375 498.332031 430.066406 C 497.832031 430.402344 497.367188 430.785156 496.941406 431.210938 C 496.515625 431.636719 496.136719 432.101562 495.800781 432.601562 C 495.464844 433.101562 495.183594 433.632812 494.953125 434.1875 C 494.71875 434.746094 494.546875 435.320312 494.429688 435.910156 C 494.3125 436.503906 494.253906 437.101562 494.253906 437.703125 L 494.253906 492.804688 L 549.355469 492.804688 L 549.355469 437.703125 C 549.355469 437.101562 549.296875 436.503906 549.179688 435.910156 C 549.058594 435.320312 548.886719 434.746094 548.65625 434.1875 C 548.425781 433.632812 548.140625 433.101562 547.804688 432.601562 C 547.472656 432.101562 547.089844 431.636719 546.664062 431.210938 C 546.238281 430.785156 545.773438 430.402344 545.273438 430.066406 C 544.769531 429.734375 544.242188 429.449219 543.683594 429.21875 C 543.128906 428.988281 542.554688 428.8125 541.960938 428.695312 C 541.371094 428.578125 540.773438 428.519531 540.171875 428.519531 Z M 402.414062 299.949219 C 402.414062 300.550781 402.472656 301.148438 402.59375 301.738281 C 402.710938 302.332031 402.882812 302.90625 403.113281 303.464844 C 403.34375 304.019531 403.628906 304.550781 403.964844 305.050781 C 404.296875 305.550781 404.679688 306.015625 405.105469 306.441406 C 405.53125 306.867188 405.996094 307.25 406.496094 307.585938 C 407 307.917969 407.527344 308.203125 408.085938 308.433594 C 408.640625 308.664062 409.214844 308.839844 409.808594 308.957031 C 410.398438 309.074219 410.996094 309.132812 411.597656 309.132812 L 512.621094 309.132812 C 513.222656 309.132812 513.820312 309.074219 514.410156 308.957031 C 515.003906 308.839844 515.578125 308.664062 516.132812 308.433594 C 516.691406 308.203125 517.21875 307.917969 517.722656 307.585938 C 518.222656 307.25 518.6875 306.867188 519.113281 306.441406 C 519.539062 306.015625 519.921875 305.550781 520.253906 305.050781 C 520.589844 304.550781 520.875 304.019531 521.105469 303.464844 C 521.335938 302.90625 521.507812 302.332031 521.625 301.738281 C 521.746094 301.148438 521.804688 300.550781 521.804688 299.949219 C 521.804688 298.144531 521.757812 296.34375 521.671875 294.542969 C 521.582031 292.738281 521.449219 290.941406 521.273438 289.148438 C 521.097656 287.351562 520.875 285.5625 520.609375 283.777344 C 520.347656 281.996094 520.039062 280.21875 519.6875 278.449219 C 519.332031 276.679688 518.9375 274.921875 518.5 273.171875 C 518.0625 271.421875 517.582031 269.683594 517.058594 267.957031 C 516.535156 266.230469 515.96875 264.519531 515.359375 262.820312 C 514.753906 261.125 514.105469 259.441406 513.414062 257.773438 C 512.722656 256.109375 511.992188 254.460938 511.222656 252.832031 C 510.453125 251.199219 509.640625 249.589844 508.789062 248 C 507.941406 246.40625 507.050781 244.839844 506.125 243.292969 C 505.195312 241.746094 504.234375 240.222656 503.230469 238.722656 C 502.230469 237.222656 501.191406 235.75 500.117188 234.300781 C 499.042969 232.851562 497.933594 231.429688 496.789062 230.035156 C 495.644531 228.640625 494.464844 227.277344 493.253906 225.941406 C 492.042969 224.605469 490.800781 223.296875 489.523438 222.023438 C 488.25 220.746094 486.945312 219.503906 485.609375 218.292969 C 484.269531 217.082031 482.90625 215.902344 481.511719 214.757812 C 480.117188 213.617188 478.695312 212.507812 477.246094 211.433594 C 475.800781 210.355469 474.324219 209.320312 472.824219 208.316406 C 471.324219 207.316406 469.800781 206.351562 468.253906 205.421875 C 466.707031 204.496094 465.140625 203.605469 463.550781 202.757812 C 461.957031 201.90625 460.347656 201.097656 458.71875 200.324219 C 457.085938 199.554688 455.4375 198.824219 453.773438 198.132812 C 452.105469 197.441406 450.425781 196.792969 448.726562 196.1875 C 447.027344 195.578125 445.316406 195.011719 443.589844 194.488281 C 441.863281 193.964844 440.125 193.484375 438.375 193.046875 C 436.628906 192.609375 434.867188 192.214844 433.097656 191.863281 C 431.328125 191.511719 429.554688 191.203125 427.769531 190.9375 C 425.984375 190.671875 424.195312 190.453125 422.402344 190.273438 C 420.605469 190.097656 418.808594 189.964844 417.007812 189.878906 C 415.207031 189.789062 413.402344 189.746094 411.597656 189.746094 C 410.996094 189.746094 410.398438 189.804688 409.808594 189.921875 C 409.214844 190.039062 408.640625 190.210938 408.085938 190.445312 C 407.527344 190.675781 407 190.957031 406.496094 191.292969 C 405.996094 191.628906 405.53125 192.007812 405.105469 192.433594 C 404.679688 192.859375 404.296875 193.324219 403.964844 193.824219 C 403.628906 194.328125 403.34375 194.855469 403.113281 195.414062 C 402.882812 195.972656 402.710938 196.546875 402.59375 197.136719 C 402.472656 197.726562 402.414062 198.324219 402.414062 198.929688 Z M 264.660156 336.683594 C 264.660156 338.488281 264.703125 340.289062 264.792969 342.089844 C 264.882812 343.890625 265.015625 345.691406 265.191406 347.484375 C 265.367188 349.28125 265.589844 351.070312 265.851562 352.851562 C 266.117188 354.636719 266.425781 356.414062 266.777344 358.183594 C 267.128906 359.953125 267.523438 361.710938 267.964844 363.460938 C 268.402344 365.210938 268.882812 366.949219 269.40625 368.671875 C 269.929688 370.398438 270.496094 372.113281 271.101562 373.808594 C 271.710938 375.507812 272.359375 377.191406 273.050781 378.855469 C 273.738281 380.523438 274.46875 382.171875 275.242188 383.800781 C 276.011719 385.433594 276.824219 387.042969 277.671875 388.632812 C 278.523438 390.222656 279.410156 391.792969 280.339844 393.339844 C 281.265625 394.886719 282.230469 396.410156 283.234375 397.910156 C 284.234375 399.410156 285.273438 400.882812 286.347656 402.332031 C 287.421875 403.78125 288.53125 405.203125 289.675781 406.597656 C 290.820312 407.988281 291.996094 409.355469 293.207031 410.691406 C 294.417969 412.027344 295.664062 413.332031 296.9375 414.609375 C 298.214844 415.882812 299.519531 417.128906 300.855469 418.339844 C 302.191406 419.550781 303.558594 420.726562 304.953125 421.871094 C 306.347656 423.015625 307.765625 424.125 309.214844 425.199219 C 310.664062 426.273438 312.140625 427.3125 313.636719 428.316406 C 315.136719 429.316406 316.660156 430.28125 318.207031 431.207031 C 319.753906 432.136719 321.324219 433.023438 322.914062 433.875 C 324.503906 434.726562 326.117188 435.535156 327.746094 436.304688 C 329.375 437.078125 331.023438 437.808594 332.691406 438.5 C 334.359375 439.1875 336.039062 439.835938 337.738281 440.445312 C 339.4375 441.050781 341.148438 441.617188 342.875 442.140625 C 344.601562 442.664062 346.335938 443.144531 348.085938 443.585938 C 349.835938 444.023438 351.597656 444.417969 353.363281 444.769531 C 355.132812 445.121094 356.910156 445.429688 358.695312 445.695312 C 360.476562 445.960938 362.269531 446.179688 364.0625 446.355469 C 365.859375 446.535156 367.65625 446.664062 369.457031 446.753906 C 371.257812 446.84375 373.0625 446.886719 374.863281 446.886719 C 376.667969 446.886719 378.46875 446.84375 380.273438 446.753906 C 382.074219 446.664062 383.871094 446.535156 385.667969 446.355469 C 387.460938 446.179688 389.25 445.960938 391.035156 445.695312 C 392.820312 445.429688 394.59375 445.121094 396.363281 444.769531 C 398.132812 444.417969 399.890625 444.023438 401.640625 443.585938 C 403.390625 443.144531 405.128906 442.664062 406.855469 442.140625 C 408.582031 441.617188 410.292969 441.050781 411.992188 440.445312 C 413.6875 439.835938 415.371094 439.1875 417.039062 438.5 C 418.703125 437.808594 420.351562 437.078125 421.984375 436.304688 C 423.613281 435.535156 425.222656 434.726562 426.8125 433.875 C 428.40625 433.023438 429.972656 432.136719 431.519531 431.207031 C 433.066406 430.28125 434.589844 429.316406 436.089844 428.316406 C 437.589844 427.3125 439.0625 426.273438 440.511719 425.199219 C 441.960938 424.125 443.382812 423.015625 444.777344 421.871094 C 446.171875 420.726562 447.535156 419.550781 448.871094 418.339844 C 450.210938 417.128906 451.515625 415.882812 452.789062 414.609375 C 454.066406 413.332031 455.308594 412.027344 456.519531 410.691406 C 457.730469 409.355469 458.910156 407.988281 460.054688 406.597656 C 461.199219 405.203125 462.308594 403.78125 463.382812 402.332031 C 464.457031 400.882812 465.492188 399.410156 466.496094 397.910156 C 467.496094 396.410156 468.460938 394.886719 469.390625 393.339844 C 470.316406 391.792969 471.207031 390.222656 472.054688 388.632812 C 472.90625 387.042969 473.714844 385.433594 474.488281 383.800781 C 475.257812 382.171875 475.988281 380.523438 476.679688 378.855469 C 477.371094 377.191406 478.019531 375.507812 478.625 373.808594 C 479.234375 372.113281 479.800781 370.398438 480.324219 368.671875 C 480.847656 366.949219 481.328125 365.210938 481.765625 363.460938 C 482.203125 361.710938 482.597656 359.953125 482.949219 358.183594 C 483.304688 356.414062 483.609375 354.636719 483.875 352.851562 C 484.140625 351.070312 484.359375 349.28125 484.539062 347.484375 C 484.714844 345.691406 484.847656 343.890625 484.9375 342.089844 C 485.023438 340.289062 485.070312 338.488281 485.070312 336.683594 C 485.070312 336.082031 485.007812 335.484375 484.890625 334.890625 C 484.773438 334.300781 484.601562 333.726562 484.371094 333.167969 C 484.140625 332.613281 483.855469 332.082031 483.519531 331.582031 C 483.1875 331.078125 482.804688 330.617188 482.378906 330.1875 C 481.953125 329.761719 481.488281 329.382812 480.988281 329.046875 C 480.484375 328.710938 479.957031 328.429688 479.398438 328.199219 C 478.84375 327.96875 478.269531 327.792969 477.675781 327.675781 C 477.085938 327.558594 476.488281 327.5 475.886719 327.5 L 384.046875 327.5 L 384.046875 235.664062 C 384.046875 235.058594 383.988281 234.460938 383.871094 233.871094 C 383.753906 233.28125 383.578125 232.707031 383.347656 232.148438 C 383.117188 231.589844 382.835938 231.0625 382.5 230.5625 C 382.164062 230.058594 381.785156 229.59375 381.359375 229.167969 C 380.933594 228.742188 380.46875 228.363281 379.964844 228.027344 C 379.464844 227.691406 378.9375 227.410156 378.378906 227.179688 C 377.820312 226.949219 377.246094 226.773438 376.65625 226.65625 C 376.066406 226.539062 375.46875 226.480469 374.863281 226.480469 C 373.0625 226.480469 371.257812 226.523438 369.457031 226.613281 C 367.65625 226.699219 365.859375 226.832031 364.0625 227.011719 C 362.269531 227.1875 360.476562 227.40625 358.695312 227.671875 C 356.910156 227.9375 355.132812 228.246094 353.363281 228.597656 C 351.597656 228.949219 349.835938 229.34375 348.085938 229.78125 C 346.335938 230.21875 344.601562 230.699219 342.875 231.222656 C 341.148438 231.746094 339.4375 232.3125 337.738281 232.921875 C 336.039062 233.527344 334.359375 234.175781 332.691406 234.867188 C 331.023438 235.558594 329.375 236.289062 327.746094 237.058594 C 326.117188 237.832031 324.503906 238.640625 322.914062 239.492188 C 321.324219 240.34375 319.753906 241.230469 318.207031 242.15625 C 316.660156 243.085938 315.136719 244.050781 313.636719 245.050781 C 312.140625 246.054688 310.664062 247.09375 309.214844 248.167969 C 307.765625 249.242188 306.347656 250.351562 304.953125 251.496094 C 303.558594 252.636719 302.191406 253.816406 300.855469 255.027344 C 299.519531 256.238281 298.214844 257.480469 296.9375 258.757812 C 295.664062 260.03125 294.417969 261.339844 293.207031 262.675781 C 291.996094 264.011719 290.820312 265.375 289.675781 266.769531 C 288.53125 268.164062 287.421875 269.585938 286.347656 271.035156 C 285.273438 272.484375 284.234375 273.957031 283.234375 275.457031 C 282.230469 276.957031 281.265625 278.480469 280.339844 280.027344 C 279.414062 281.574219 278.523438 283.144531 277.671875 284.734375 C 276.824219 286.324219 276.011719 287.933594 275.242188 289.566406 C 274.46875 291.195312 273.738281 292.84375 273.050781 294.511719 C 272.359375 296.175781 271.710938 297.859375 271.101562 299.554688 C 270.496094 301.253906 269.929688 302.964844 269.40625 304.691406 C 268.882812 306.417969 268.402344 308.15625 267.964844 309.90625 C 267.523438 311.65625 267.128906 313.414062 266.777344 315.183594 C 266.425781 316.953125 266.117188 318.730469 265.851562 320.511719 C 265.589844 322.296875 265.367188 324.085938 265.191406 325.882812 C 265.015625 327.675781 264.882812 329.472656 264.792969 331.277344 C 264.703125 333.078125 264.660156 334.878906 264.660156 336.683594 Z M 338.128906 483.621094 L 338.128906 465.253906 L 264.660156 465.253906 L 264.660156 483.621094 Z M 264.660156 501.988281 L 264.660156 520.355469 L 338.128906 520.355469 L 338.128906 501.988281 Z M 530.988281 676.480469 C 530.988281 675.578125 530.941406 674.675781 530.855469 673.777344 C 530.765625 672.878906 530.632812 671.988281 530.457031 671.105469 C 530.28125 670.21875 530.0625 669.34375 529.800781 668.480469 C 529.539062 667.617188 529.234375 666.769531 528.890625 665.9375 C 528.542969 665.101562 528.160156 664.289062 527.734375 663.492188 C 527.308594 662.695312 526.84375 661.921875 526.34375 661.171875 C 525.84375 660.421875 525.304688 659.699219 524.734375 659 C 524.160156 658.304688 523.554688 657.636719 522.917969 656.996094 C 522.28125 656.359375 521.613281 655.753906 520.914062 655.183594 C 520.214844 654.609375 519.492188 654.074219 518.742188 653.570312 C 517.992188 653.070312 517.21875 652.605469 516.421875 652.179688 C 515.628906 651.757812 514.8125 651.371094 513.980469 651.023438 C 513.144531 650.679688 512.296875 650.375 511.433594 650.113281 C 510.570312 649.851562 509.695312 649.632812 508.8125 649.457031 C 507.925781 649.28125 507.035156 649.148438 506.136719 649.0625 C 505.238281 648.972656 504.339844 648.929688 503.4375 648.929688 L 485.070312 648.929688 L 485.070312 630.5625 L 393.230469 630.5625 L 393.230469 648.929688 L 374.863281 648.929688 C 373.960938 648.929688 373.0625 648.972656 372.164062 649.0625 C 371.265625 649.148438 370.375 649.28125 369.488281 649.457031 C 368.605469 649.632812 367.730469 649.851562 366.867188 650.113281 C 366.003906 650.375 365.15625 650.679688 364.320312 651.023438 C 363.488281 651.371094 362.671875 651.757812 361.878906 652.179688 C 361.082031 652.605469 360.308594 653.070312 359.558594 653.570312 C 358.808594 654.074219 358.082031 654.609375 357.386719 655.183594 C 356.6875 655.753906 356.019531 656.359375 355.382812 656.996094 C 354.746094 657.636719 354.140625 658.304688 353.566406 659 C 352.996094 659.699219 352.457031 660.421875 351.957031 661.171875 C 351.457031 661.921875 350.992188 662.695312 350.566406 663.492188 C 350.140625 664.289062 349.757812 665.101562 349.410156 665.9375 C 349.066406 666.769531 348.761719 667.617188 348.5 668.480469 C 348.238281 669.34375 348.019531 670.21875 347.84375 671.105469 C 347.667969 671.988281 347.535156 672.878906 347.445312 673.777344 C 347.359375 674.675781 347.3125 675.578125 347.3125 676.480469 L 347.3125 694.847656 C 347.3125 695.449219 347.371094 696.046875 347.488281 696.636719 C 347.609375 697.230469 347.78125 697.804688 348.011719 698.359375 C 348.242188 698.917969 348.527344 699.445312 348.859375 699.949219 C 349.195312 700.449219 349.578125 700.914062 350.003906 701.339844 C 350.429688 701.765625 350.894531 702.148438 351.394531 702.480469 C 351.894531 702.816406 352.425781 703.101562 352.984375 703.332031 C 353.539062 703.5625 354.113281 703.734375 354.707031 703.855469 C 355.296875 703.972656 355.894531 704.03125 356.496094 704.03125 L 521.804688 704.03125 C 522.40625 704.03125 523.003906 703.972656 523.59375 703.855469 C 524.1875 703.734375 524.761719 703.5625 525.316406 703.332031 C 525.875 703.101562 526.402344 702.816406 526.90625 702.480469 C 527.40625 702.148438 527.871094 701.765625 528.296875 701.339844 C 528.722656 700.914062 529.105469 700.449219 529.4375 699.949219 C 529.773438 699.445312 530.058594 698.917969 530.289062 698.359375 C 530.519531 697.804688 530.691406 697.230469 530.808594 696.636719 C 530.929688 696.046875 530.988281 695.449219 530.988281 694.847656 Z M 687.109375 529.539062 L 650.375 529.539062 L 650.375 557.089844 C 650.375 557.695312 650.316406 558.292969 650.199219 558.882812 C 650.082031 559.472656 649.90625 560.046875 649.675781 560.605469 C 649.445312 561.164062 649.160156 561.691406 648.828125 562.195312 C 648.492188 562.695312 648.109375 563.160156 647.683594 563.585938 C 647.257812 564.011719 646.792969 564.390625 646.292969 564.726562 C 645.792969 565.0625 645.261719 565.34375 644.707031 565.574219 C 644.148438 565.808594 643.574219 565.980469 642.984375 566.097656 C 642.390625 566.214844 641.792969 566.273438 641.191406 566.273438 L 237.109375 566.273438 C 236.507812 566.273438 235.910156 566.214844 235.316406 566.097656 C 234.726562 565.980469 234.152344 565.808594 233.59375 565.574219 C 233.039062 565.34375 232.507812 565.0625 232.007812 564.726562 C 231.503906 564.390625 231.042969 564.011719 230.617188 563.585938 C 230.1875 563.160156 229.808594 562.695312 229.472656 562.195312 C 229.136719 561.691406 228.855469 561.164062 228.625 560.605469 C 228.394531 560.046875 228.21875 559.472656 228.101562 558.882812 C 227.984375 558.292969 227.925781 557.695312 227.925781 557.089844 L 227.925781 299.949219 C 227.925781 299.34375 227.984375 298.75 228.101562 298.15625 C 228.21875 297.566406 228.394531 296.992188 228.625 296.433594 C 228.855469 295.878906 229.136719 295.347656 229.472656 294.847656 C 229.808594 294.34375 230.1875 293.882812 230.617188 293.453125 C 231.042969 293.027344 231.507812 292.648438 232.007812 292.3125 C 232.507812 291.976562 233.039062 291.695312 233.59375 291.464844 C 234.152344 291.234375 234.726562 291.058594 235.316406 290.941406 C 235.910156 290.824219 236.507812 290.765625 237.109375 290.765625 L 264.660156 290.765625 C 267.507812 283.945312 270.960938 277.445312 275.019531 271.269531 C 279.082031 265.09375 283.679688 259.347656 288.8125 254.03125 L 227.925781 254.03125 C 226.722656 254.03125 225.523438 254.089844 224.324219 254.207031 C 223.128906 254.324219 221.9375 254.5 220.757812 254.734375 C 219.578125 254.972656 218.414062 255.261719 217.261719 255.613281 C 216.109375 255.960938 214.980469 256.367188 213.867188 256.828125 C 212.757812 257.285156 211.671875 257.800781 210.609375 258.367188 C 209.546875 258.933594 208.515625 259.550781 207.515625 260.222656 C 206.515625 260.890625 205.550781 261.605469 204.621094 262.367188 C 203.691406 263.132812 202.800781 263.9375 201.949219 264.789062 C 201.101562 265.640625 200.292969 266.53125 199.53125 267.460938 C 198.765625 268.390625 198.050781 269.355469 197.382812 270.355469 C 196.714844 271.355469 196.097656 272.386719 195.527344 273.449219 C 194.960938 274.507812 194.449219 275.59375 193.988281 276.707031 C 193.527344 277.820312 193.121094 278.949219 192.773438 280.101562 C 192.421875 281.253906 192.132812 282.417969 191.898438 283.597656 C 191.664062 284.777344 191.484375 285.96875 191.367188 287.164062 C 191.25 288.363281 191.191406 289.5625 191.191406 290.765625 L 191.191406 584.640625 C 191.191406 585.84375 191.25 587.046875 191.367188 588.242188 C 191.484375 589.441406 191.664062 590.628906 191.898438 591.808594 C 192.132812 592.988281 192.421875 594.15625 192.773438 595.304688 C 193.121094 596.457031 193.527344 597.589844 193.988281 598.699219 C 194.449219 599.8125 194.960938 600.898438 195.527344 601.957031 C 196.097656 603.019531 196.714844 604.050781 197.382812 605.050781 C 198.050781 606.050781 198.765625 607.015625 199.53125 607.945312 C 200.292969 608.875 201.101562 609.765625 201.949219 610.617188 C 202.800781 611.46875 203.691406 612.273438 204.621094 613.039062 C 205.550781 613.800781 206.515625 614.519531 207.515625 615.1875 C 208.515625 615.855469 209.546875 616.472656 210.609375 617.039062 C 211.671875 617.605469 212.757812 618.121094 213.867188 618.582031 C 214.980469 619.042969 216.109375 619.445312 217.261719 619.796875 C 218.414062 620.144531 219.578125 620.4375 220.757812 620.671875 C 221.9375 620.90625 223.128906 621.082031 224.324219 621.199219 C 225.523438 621.316406 226.722656 621.378906 227.925781 621.378906 L 650.375 621.378906 C 651.578125 621.378906 652.777344 621.316406 653.976562 621.199219 C 655.171875 621.082031 656.359375 620.90625 657.542969 620.671875 C 658.722656 620.4375 659.886719 620.144531 661.039062 619.796875 C 662.191406 619.445312 663.320312 619.042969 664.433594 618.582031 C 665.542969 618.121094 666.628906 617.605469 667.691406 617.039062 C 668.753906 616.472656 669.78125 615.855469 670.785156 615.1875 C 671.785156 614.519531 672.75 613.800781 673.679688 613.039062 C 674.609375 612.277344 675.5 611.46875 676.351562 610.617188 C 677.199219 609.765625 678.007812 608.875 678.769531 607.945312 C 679.535156 607.015625 680.25 606.050781 680.917969 605.050781 C 681.585938 604.050781 682.203125 603.019531 682.773438 601.960938 C 683.339844 600.898438 683.851562 599.8125 684.3125 598.699219 C 684.773438 597.589844 685.179688 596.457031 685.527344 595.304688 C 685.875 594.15625 686.167969 592.988281 686.402344 591.808594 C 686.636719 590.628906 686.816406 589.441406 686.933594 588.242188 C 687.050781 587.046875 687.109375 585.84375 687.109375 584.640625 Z M 705.476562 501.988281 L 485.070312 501.988281 L 485.070312 520.355469 L 705.476562 520.355469 Z M 705.476562 501.988281 " fill-opacity="1" fill-rule="nonzero"/></g></svg>