<svg xmlns="http://www.w3.org/2000/svg" xmlns:xlink="http://www.w3.org/1999/xlink" width="1200" zoomAndPan="magnify" viewBox="0 0 900 899.99999" height="1200" preserveAspectRatio="xMidYMid meet" version="1.0"><defs><clipPath id="7eabd09501"><path d="M 900 450 C 900 457.363281 899.820312 464.726562 899.457031 472.082031 C 899.097656 479.4375 898.554688 486.777344 897.832031 494.109375 C 897.109375 501.4375 896.210938 508.742188 895.128906 516.027344 C 894.046875 523.3125 892.789062 530.566406 891.351562 537.789062 C 889.917969 545.015625 888.304688 552.195312 886.515625 559.339844 C 884.722656 566.484375 882.761719 573.582031 880.625 580.628906 C 878.484375 587.675781 876.175781 594.667969 873.695312 601.601562 C 871.214844 608.535156 868.5625 615.402344 865.746094 622.207031 C 862.925781 629.011719 859.945312 635.742188 856.796875 642.398438 C 853.644531 649.058594 850.335938 655.632812 846.863281 662.128906 C 843.394531 668.625 839.765625 675.027344 835.976562 681.347656 C 832.191406 687.664062 828.253906 693.882812 824.160156 700.007812 C 820.070312 706.128906 815.832031 712.148438 811.441406 718.066406 C 807.054688 723.980469 802.527344 729.785156 797.855469 735.476562 C 793.183594 741.167969 788.375 746.746094 783.429688 752.203125 C 778.480469 757.65625 773.40625 762.992188 768.199219 768.199219 C 762.992188 773.40625 757.65625 778.480469 752.203125 783.429688 C 746.746094 788.375 741.167969 793.183594 735.476562 797.855469 C 729.785156 802.527344 723.980469 807.054688 718.066406 811.441406 C 712.148438 815.832031 706.128906 820.070312 700.007812 824.160156 C 693.882812 828.253906 687.664062 832.191406 681.347656 835.976562 C 675.027344 839.765625 668.625 843.394531 662.128906 846.863281 C 655.632812 850.335938 649.058594 853.644531 642.398438 856.796875 C 635.742188 859.945312 629.011719 862.925781 622.207031 865.746094 C 615.402344 868.5625 608.535156 871.214844 601.601562 873.695312 C 594.667969 876.175781 587.675781 878.484375 580.628906 880.625 C 573.582031 882.761719 566.484375 884.722656 559.339844 886.515625 C 552.195312 888.304688 545.015625 889.917969 537.789062 891.351562 C 530.566406 892.789062 523.3125 894.046875 516.027344 895.128906 C 508.742188 896.210938 501.4375 897.109375 494.109375 897.832031 C 486.777344 898.554688 479.4375 899.097656 472.082031 899.457031 C 464.726562 899.820312 457.363281 900 450 900 C 442.636719 900 435.273438 899.820312 427.917969 899.457031 C 420.5625 899.097656 413.222656 898.554688 405.890625 897.832031 C 398.5625 897.109375 391.257812 896.210938 383.972656 895.128906 C 376.6875 894.046875 369.433594 892.789062 362.210938 891.351562 C 354.984375 889.917969 347.800781 888.304688 340.660156 886.515625 C 333.515625 884.722656 326.417969 882.761719 319.371094 880.625 C 312.324219 878.484375 305.332031 876.175781 298.398438 873.695312 C 291.464844 871.214844 284.597656 868.5625 277.792969 865.746094 C 270.988281 862.925781 264.257812 859.945312 257.601562 856.796875 C 250.941406 853.644531 244.367188 850.335938 237.871094 846.863281 C 231.375 843.394531 224.96875 839.765625 218.652344 835.976562 C 212.335938 832.191406 206.117188 828.253906 199.992188 824.160156 C 193.871094 820.070312 187.851562 815.832031 181.933594 811.441406 C 176.019531 807.054688 170.214844 802.527344 164.523438 797.855469 C 158.832031 793.183594 153.253906 788.375 147.796875 783.429688 C 142.339844 778.480469 137.007812 773.40625 131.800781 768.199219 C 126.59375 762.992188 121.519531 757.65625 116.570312 752.203125 C 111.625 746.746094 106.816406 741.167969 102.144531 735.476562 C 97.472656 729.785156 92.945312 723.980469 88.554688 718.066406 C 84.167969 712.148438 79.929688 706.128906 75.839844 700.007812 C 71.746094 693.882812 67.808594 687.664062 64.023438 681.347656 C 60.234375 675.027344 56.605469 668.625 53.136719 662.128906 C 49.664062 655.632812 46.355469 649.058594 43.203125 642.398438 C 40.054688 635.742188 37.074219 629.011719 34.253906 622.207031 C 31.4375 615.402344 28.785156 608.535156 26.304688 601.601562 C 23.824219 594.667969 21.515625 587.675781 19.375 580.628906 C 17.238281 573.582031 15.273438 566.484375 13.484375 559.339844 C 11.695312 552.195312 10.082031 545.015625 8.648438 537.789062 C 7.210938 530.566406 5.953125 523.3125 4.871094 516.027344 C 3.789062 508.742188 2.890625 501.4375 2.167969 494.109375 C 1.445312 486.777344 0.902344 479.4375 0.542969 472.082031 C 0.179688 464.726562 0 457.363281 0 450 C 0 442.636719 0.179688 435.273438 0.542969 427.917969 C 0.902344 420.5625 1.445312 413.222656 2.167969 405.890625 C 2.890625 398.5625 3.789062 391.257812 4.871094 383.972656 C 5.953125 376.6875 7.210938 369.433594 8.648438 362.210938 C 10.082031 354.984375 11.695312 347.804688 13.484375 340.660156 C 15.273438 333.515625 17.238281 326.417969 19.375 319.371094 C 21.515625 312.324219 23.824219 305.332031 26.304688 298.398438 C 28.785156 291.464844 31.4375 284.597656 34.253906 277.792969 C 37.074219 270.988281 40.054688 264.257812 43.203125 257.601562 C 46.355469 250.941406 49.664062 244.367188 53.136719 237.871094 C 56.605469 231.375 60.234375 224.96875 64.023438 218.652344 C 67.808594 212.335938 71.746094 206.117188 75.839844 199.992188 C 79.929688 193.871094 84.167969 187.851562 88.554688 181.933594 C 92.945312 176.019531 97.472656 170.214844 102.144531 164.523438 C 106.816406 158.832031 111.625 153.253906 116.570312 147.796875 C 121.519531 142.339844 126.59375 137.007812 131.800781 131.800781 C 137.007812 126.59375 142.339844 121.519531 147.796875 116.570312 C 153.253906 111.625 158.832031 106.816406 164.523438 102.144531 C 170.214844 97.472656 176.019531 92.945312 181.933594 88.554688 C 187.851562 84.167969 193.871094 79.929688 199.992188 75.839844 C 206.117188 71.746094 212.335938 67.808594 218.652344 64.023438 C 224.96875 60.234375 231.375 56.605469 237.871094 53.136719 C 244.367188 49.664062 250.941406 46.355469 257.601562 43.203125 C 264.257812 40.054688 270.988281 37.074219 277.792969 34.253906 C 284.597656 31.4375 291.464844 28.785156 298.398438 26.304688 C 305.332031 23.824219 312.324219 21.515625 319.371094 19.375 C 326.417969 17.238281 333.515625 15.277344 340.660156 13.484375 C 347.800781 11.695312 354.984375 10.082031 362.210938 8.648438 C 369.433594 7.210938 376.6875 5.953125 383.972656 4.871094 C 391.257812 3.789062 398.5625 2.890625 405.890625 2.167969 C 413.222656 1.445312 420.5625 0.902344 427.917969 0.542969 C 435.273438 0.179688 442.636719 0 450 0 C 457.363281 0 464.726562 0.179688 472.082031 0.542969 C 479.4375 0.902344 486.777344 1.445312 494.109375 2.167969 C 501.4375 2.890625 508.742188 3.789062 516.027344 4.871094 C 523.3125 5.953125 530.566406 7.210938 537.789062 8.648438 C 545.015625 10.082031 552.195312 11.695312 559.339844 13.484375 C 566.484375 15.277344 573.582031 17.238281 580.628906 19.375 C 587.675781 21.515625 594.667969 23.824219 601.601562 26.304688 C 608.535156 28.785156 615.402344 31.4375 622.207031 34.253906 C 629.011719 37.074219 635.742188 40.054688 642.398438 43.203125 C 649.058594 46.355469 655.632812 49.664062 662.128906 53.136719 C 668.625 56.605469 675.027344 60.234375 681.347656 64.023438 C 687.664062 67.808594 693.882812 71.746094 700.007812 75.839844 C 706.128906 79.929688 712.148438 84.167969 718.066406 88.554688 C 723.980469 92.945312 729.785156 97.472656 735.476562 102.144531 C 741.167969 106.816406 746.746094 111.625 752.203125 116.570312 C 757.65625 121.519531 762.992188 126.59375 768.199219 131.800781 C 773.40625 137.007812 778.480469 142.339844 783.429688 147.796875 C 788.375 153.253906 793.183594 158.832031 797.855469 164.523438 C 802.527344 170.214844 807.054688 176.019531 811.441406 181.933594 C 815.832031 187.851562 820.070312 193.871094 824.160156 199.992188 C 828.253906 206.117188 832.191406 212.335938 835.976562 218.652344 C 839.765625 224.96875 843.394531 231.375 846.863281 237.871094 C 850.335938 244.367188 853.644531 250.941406 856.796875 257.601562 C 859.945312 264.257812 862.925781 270.988281 865.746094 277.792969 C 868.5625 284.597656 871.214844 291.464844 873.695312 298.398438 C 876.175781 305.332031 878.484375 312.324219 880.625 319.371094 C 882.761719 326.417969 884.722656 333.515625 886.515625 340.660156 C 888.304688 347.804688 889.917969 354.984375 891.351562 362.210938 C 892.789062 369.433594 894.046875 376.6875 895.128906 383.972656 C 896.210938 391.257812 897.109375 398.5625 897.832031 405.890625 C 898.554688 413.222656 899.097656 420.5625 899.457031 427.917969 C 899.820312 435.273438 900 442.636719 900 450 Z M 900 450 " clip-rule="nonzero"/></clipPath><linearGradient x1="425" gradientTransform="matrix(1.058823, 0, 0, 1.058823, 0.0000048, 0.00002)" y1="849.999992" x2="425" gradientUnits="userSpaceOnUse" y2="0" id="88b4a77a74"><stop stop-opacity="1" stop-color="rgb(10.198975%, 65.899658%, 86.299133%)" offset="0"/><stop stop-opacity="1" stop-color="rgb(10.661316%, 65.557861%, 86.038208%)" offset="0.00390625"/><stop stop-opacity="1" stop-color="rgb(11.123657%, 65.21759%, 85.778809%)" offset="0.0078125"/><stop stop-opacity="1" stop-color="rgb(11.585999%, 64.875793%, 85.519409%)" offset="0.0117188"/><stop stop-opacity="1" stop-color="rgb(12.04834%, 64.533997%, 85.26001%)" offset="0.015625"/><stop stop-opacity="1" stop-color="rgb(12.510681%, 64.1922%, 84.999084%)" offset="0.0195312"/><stop stop-opacity="1" stop-color="rgb(12.973022%, 63.851929%, 84.739685%)" offset="0.0234375"/><stop stop-opacity="1" stop-color="rgb(13.435364%, 63.510132%, 84.480286%)" offset="0.0273438"/><stop stop-opacity="1" stop-color="rgb(13.897705%, 63.169861%, 84.220886%)" offset="0.03125"/><stop stop-opacity="1" stop-color="rgb(14.360046%, 62.828064%, 83.959961%)" offset="0.0351563"/><stop stop-opacity="1" stop-color="rgb(14.822388%, 62.487793%, 83.700562%)" offset="0.0390625"/><stop stop-opacity="1" stop-color="rgb(15.284729%, 62.145996%, 83.439636%)" offset="0.0429688"/><stop stop-opacity="1" stop-color="rgb(15.74707%, 61.804199%, 83.180237%)" offset="0.046875"/><stop stop-opacity="1" stop-color="rgb(16.209412%, 61.462402%, 82.920837%)" offset="0.0507813"/><stop stop-opacity="1" stop-color="rgb(16.671753%, 61.122131%, 82.661438%)" offset="0.0546875"/><stop stop-opacity="1" stop-color="rgb(17.134094%, 60.780334%, 82.400513%)" offset="0.0585938"/><stop stop-opacity="1" stop-color="rgb(17.596436%, 60.440063%, 82.141113%)" offset="0.0625"/><stop stop-opacity="1" stop-color="rgb(18.058777%, 60.098267%, 81.880188%)" offset="0.0664063"/><stop stop-opacity="1" stop-color="rgb(18.522644%, 59.757996%, 81.620789%)" offset="0.0703125"/><stop stop-opacity="1" stop-color="rgb(18.984985%, 59.416199%, 81.361389%)" offset="0.0742188"/><stop stop-opacity="1" stop-color="rgb(19.447327%, 59.075928%, 81.10199%)" offset="0.078125"/><stop stop-opacity="1" stop-color="rgb(19.909668%, 58.734131%, 80.841064%)" offset="0.0820312"/><stop stop-opacity="1" stop-color="rgb(20.372009%, 58.392334%, 80.581665%)" offset="0.0859375"/><stop stop-opacity="1" stop-color="rgb(20.834351%, 58.050537%, 80.32074%)" offset="0.0898438"/><stop stop-opacity="1" stop-color="rgb(21.296692%, 57.710266%, 80.06134%)" offset="0.09375"/><stop stop-opacity="1" stop-color="rgb(21.759033%, 57.368469%, 79.801941%)" offset="0.0976562"/><stop stop-opacity="1" stop-color="rgb(22.221375%, 57.028198%, 79.542542%)" offset="0.101562"/><stop stop-opacity="1" stop-color="rgb(22.683716%, 56.686401%, 79.281616%)" offset="0.105469"/><stop stop-opacity="1" stop-color="rgb(23.146057%, 56.34613%, 79.022217%)" offset="0.109375"/><stop stop-opacity="1" stop-color="rgb(23.608398%, 56.004333%, 78.762817%)" offset="0.113281"/><stop stop-opacity="1" stop-color="rgb(24.07074%, 55.662537%, 78.503418%)" offset="0.117188"/><stop stop-opacity="1" stop-color="rgb(24.533081%, 55.32074%, 78.242493%)" offset="0.121094"/><stop stop-opacity="1" stop-color="rgb(24.995422%, 54.980469%, 77.983093%)" offset="0.125"/><stop stop-opacity="1" stop-color="rgb(25.457764%, 54.638672%, 77.722168%)" offset="0.128906"/><stop stop-opacity="1" stop-color="rgb(25.920105%, 54.298401%, 77.462769%)" offset="0.132812"/><stop stop-opacity="1" stop-color="rgb(26.382446%, 53.956604%, 77.203369%)" offset="0.136719"/><stop stop-opacity="1" stop-color="rgb(26.844788%, 53.616333%, 76.94397%)" offset="0.140625"/><stop stop-opacity="1" stop-color="rgb(27.307129%, 53.274536%, 76.683044%)" offset="0.144531"/><stop stop-opacity="1" stop-color="rgb(27.76947%, 52.934265%, 76.423645%)" offset="0.148437"/><stop stop-opacity="1" stop-color="rgb(28.231812%, 52.592468%, 76.16272%)" offset="0.152344"/><stop stop-opacity="1" stop-color="rgb(28.694153%, 52.250671%, 75.90332%)" offset="0.15625"/><stop stop-opacity="1" stop-color="rgb(29.156494%, 51.908875%, 75.643921%)" offset="0.160156"/><stop stop-opacity="1" stop-color="rgb(29.618835%, 51.568604%, 75.384521%)" offset="0.164062"/><stop stop-opacity="1" stop-color="rgb(30.081177%, 51.226807%, 75.123596%)" offset="0.167969"/><stop stop-opacity="1" stop-color="rgb(30.543518%, 50.886536%, 74.864197%)" offset="0.171875"/><stop stop-opacity="1" stop-color="rgb(31.005859%, 50.544739%, 74.603271%)" offset="0.175781"/><stop stop-opacity="1" stop-color="rgb(31.468201%, 50.204468%, 74.343872%)" offset="0.179687"/><stop stop-opacity="1" stop-color="rgb(31.930542%, 49.862671%, 74.084473%)" offset="0.183594"/><stop stop-opacity="1" stop-color="rgb(32.392883%, 49.5224%, 73.825073%)" offset="0.1875"/><stop stop-opacity="1" stop-color="rgb(32.855225%, 49.180603%, 73.564148%)" offset="0.191406"/><stop stop-opacity="1" stop-color="rgb(33.317566%, 48.838806%, 73.304749%)" offset="0.195312"/><stop stop-opacity="1" stop-color="rgb(33.779907%, 48.497009%, 73.045349%)" offset="0.199219"/><stop stop-opacity="1" stop-color="rgb(34.242249%, 48.156738%, 72.78595%)" offset="0.203125"/><stop stop-opacity="1" stop-color="rgb(34.70459%, 47.814941%, 72.525024%)" offset="0.207031"/><stop stop-opacity="1" stop-color="rgb(35.166931%, 47.47467%, 72.265625%)" offset="0.210937"/><stop stop-opacity="1" stop-color="rgb(35.629272%, 47.132874%, 72.0047%)" offset="0.214844"/><stop stop-opacity="1" stop-color="rgb(36.091614%, 46.792603%, 71.7453%)" offset="0.21875"/><stop stop-opacity="1" stop-color="rgb(36.553955%, 46.450806%, 71.485901%)" offset="0.222656"/><stop stop-opacity="1" stop-color="rgb(37.016296%, 46.109009%, 71.226501%)" offset="0.226562"/><stop stop-opacity="1" stop-color="rgb(37.478638%, 45.767212%, 70.965576%)" offset="0.230469"/><stop stop-opacity="1" stop-color="rgb(37.940979%, 45.426941%, 70.706177%)" offset="0.234375"/><stop stop-opacity="1" stop-color="rgb(38.40332%, 45.085144%, 70.445251%)" offset="0.238281"/><stop stop-opacity="1" stop-color="rgb(38.865662%, 44.744873%, 70.185852%)" offset="0.242187"/><stop stop-opacity="1" stop-color="rgb(39.328003%, 44.403076%, 69.926453%)" offset="0.246094"/><stop stop-opacity="1" stop-color="rgb(39.790344%, 44.062805%, 69.667053%)" offset="0.25"/><stop stop-opacity="1" stop-color="rgb(40.252686%, 43.721008%, 69.406128%)" offset="0.253906"/><stop stop-opacity="1" stop-color="rgb(40.716553%, 43.380737%, 69.146729%)" offset="0.257812"/><stop stop-opacity="1" stop-color="rgb(41.178894%, 43.03894%, 68.885803%)" offset="0.261719"/><stop stop-opacity="1" stop-color="rgb(41.641235%, 42.697144%, 68.626404%)" offset="0.265625"/><stop stop-opacity="1" stop-color="rgb(42.103577%, 42.355347%, 68.367004%)" offset="0.269531"/><stop stop-opacity="1" stop-color="rgb(42.565918%, 42.015076%, 68.107605%)" offset="0.273438"/><stop stop-opacity="1" stop-color="rgb(43.028259%, 41.673279%, 67.84668%)" offset="0.277344"/><stop stop-opacity="1" stop-color="rgb(43.490601%, 41.333008%, 67.58728%)" offset="0.28125"/><stop stop-opacity="1" stop-color="rgb(43.952942%, 40.991211%, 67.327881%)" offset="0.285156"/><stop stop-opacity="1" stop-color="rgb(44.415283%, 40.65094%, 67.068481%)" offset="0.289062"/><stop stop-opacity="1" stop-color="rgb(44.877625%, 40.309143%, 66.807556%)" offset="0.292969"/><stop stop-opacity="1" stop-color="rgb(45.339966%, 39.968872%, 66.548157%)" offset="0.296875"/><stop stop-opacity="1" stop-color="rgb(45.802307%, 39.627075%, 66.287231%)" offset="0.300781"/><stop stop-opacity="1" stop-color="rgb(46.264648%, 39.285278%, 66.027832%)" offset="0.304688"/><stop stop-opacity="1" stop-color="rgb(46.72699%, 38.943481%, 65.768433%)" offset="0.308594"/><stop stop-opacity="1" stop-color="rgb(47.189331%, 38.60321%, 65.509033%)" offset="0.3125"/><stop stop-opacity="1" stop-color="rgb(47.651672%, 38.261414%, 65.248108%)" offset="0.316406"/><stop stop-opacity="1" stop-color="rgb(48.114014%, 37.921143%, 64.988708%)" offset="0.320312"/><stop stop-opacity="1" stop-color="rgb(48.576355%, 37.579346%, 64.727783%)" offset="0.324219"/><stop stop-opacity="1" stop-color="rgb(49.038696%, 37.239075%, 64.468384%)" offset="0.328125"/><stop stop-opacity="1" stop-color="rgb(49.501038%, 36.897278%, 64.208984%)" offset="0.332031"/><stop stop-opacity="1" stop-color="rgb(49.963379%, 36.555481%, 63.949585%)" offset="0.335938"/><stop stop-opacity="1" stop-color="rgb(50.42572%, 36.213684%, 63.68866%)" offset="0.339844"/><stop stop-opacity="1" stop-color="rgb(50.888062%, 35.873413%, 63.42926%)" offset="0.34375"/><stop stop-opacity="1" stop-color="rgb(51.350403%, 35.531616%, 63.168335%)" offset="0.347656"/><stop stop-opacity="1" stop-color="rgb(51.812744%, 35.191345%, 62.908936%)" offset="0.351562"/><stop stop-opacity="1" stop-color="rgb(52.275085%, 34.849548%, 62.649536%)" offset="0.355469"/><stop stop-opacity="1" stop-color="rgb(52.737427%, 34.509277%, 62.390137%)" offset="0.359375"/><stop stop-opacity="1" stop-color="rgb(53.199768%, 34.16748%, 62.129211%)" offset="0.363281"/><stop stop-opacity="1" stop-color="rgb(53.662109%, 33.827209%, 61.869812%)" offset="0.367188"/><stop stop-opacity="1" stop-color="rgb(54.124451%, 33.485413%, 61.610413%)" offset="0.371094"/><stop stop-opacity="1" stop-color="rgb(54.586792%, 33.143616%, 61.351013%)" offset="0.375"/><stop stop-opacity="1" stop-color="rgb(55.049133%, 32.801819%, 61.090088%)" offset="0.378906"/><stop stop-opacity="1" stop-color="rgb(55.511475%, 32.461548%, 60.830688%)" offset="0.382812"/><stop stop-opacity="1" stop-color="rgb(55.973816%, 32.119751%, 60.569763%)" offset="0.386719"/><stop stop-opacity="1" stop-color="rgb(56.436157%, 31.77948%, 60.310364%)" offset="0.390625"/><stop stop-opacity="1" stop-color="rgb(56.898499%, 31.437683%, 60.050964%)" offset="0.394531"/><stop stop-opacity="1" stop-color="rgb(57.36084%, 31.097412%, 59.791565%)" offset="0.398438"/><stop stop-opacity="1" stop-color="rgb(57.823181%, 30.755615%, 59.53064%)" offset="0.402344"/><stop stop-opacity="1" stop-color="rgb(58.285522%, 30.413818%, 59.27124%)" offset="0.40625"/><stop stop-opacity="1" stop-color="rgb(58.747864%, 30.072021%, 59.010315%)" offset="0.410156"/><stop stop-opacity="1" stop-color="rgb(59.210205%, 29.73175%, 58.750916%)" offset="0.414062"/><stop stop-opacity="1" stop-color="rgb(59.672546%, 29.389954%, 58.491516%)" offset="0.417969"/><stop stop-opacity="1" stop-color="rgb(60.134888%, 29.049683%, 58.232117%)" offset="0.421875"/><stop stop-opacity="1" stop-color="rgb(60.597229%, 28.707886%, 57.971191%)" offset="0.425781"/><stop stop-opacity="1" stop-color="rgb(61.05957%, 28.367615%, 57.711792%)" offset="0.429688"/><stop stop-opacity="1" stop-color="rgb(61.521912%, 28.025818%, 57.450867%)" offset="0.433594"/><stop stop-opacity="1" stop-color="rgb(61.984253%, 27.685547%, 57.191467%)" offset="0.4375"/><stop stop-opacity="1" stop-color="rgb(62.446594%, 27.34375%, 56.932068%)" offset="0.441406"/><stop stop-opacity="1" stop-color="rgb(62.908936%, 27.001953%, 56.672668%)" offset="0.445312"/><stop stop-opacity="1" stop-color="rgb(63.371277%, 26.660156%, 56.411743%)" offset="0.449219"/><stop stop-opacity="1" stop-color="rgb(63.835144%, 26.319885%, 56.152344%)" offset="0.453125"/><stop stop-opacity="1" stop-color="rgb(64.297485%, 25.978088%, 55.892944%)" offset="0.457031"/><stop stop-opacity="1" stop-color="rgb(64.759827%, 25.637817%, 55.633545%)" offset="0.460938"/><stop stop-opacity="1" stop-color="rgb(65.222168%, 25.296021%, 55.37262%)" offset="0.464844"/><stop stop-opacity="1" stop-color="rgb(65.684509%, 24.95575%, 55.11322%)" offset="0.46875"/><stop stop-opacity="1" stop-color="rgb(66.146851%, 24.613953%, 54.852295%)" offset="0.472656"/><stop stop-opacity="1" stop-color="rgb(66.609192%, 24.273682%, 54.592896%)" offset="0.476562"/><stop stop-opacity="1" stop-color="rgb(67.071533%, 23.931885%, 54.333496%)" offset="0.480469"/><stop stop-opacity="1" stop-color="rgb(67.533875%, 23.590088%, 54.074097%)" offset="0.484375"/><stop stop-opacity="1" stop-color="rgb(67.922974%, 23.376465%, 53.865051%)" offset="0.488281"/><stop stop-opacity="1" stop-color="rgb(68.313599%, 23.164368%, 53.657532%)" offset="0.492188"/><stop stop-opacity="1" stop-color="rgb(68.518066%, 23.28186%, 53.581238%)" offset="0.496094"/><stop stop-opacity="1" stop-color="rgb(68.722534%, 23.399353%, 53.50647%)" offset="0.5"/><stop stop-opacity="1" stop-color="rgb(68.927002%, 23.516846%, 53.431702%)" offset="0.503906"/><stop stop-opacity="1" stop-color="rgb(69.13147%, 23.634338%, 53.356934%)" offset="0.507812"/><stop stop-opacity="1" stop-color="rgb(69.335938%, 23.750305%, 53.282166%)" offset="0.511719"/><stop stop-opacity="1" stop-color="rgb(69.540405%, 23.867798%, 53.207397%)" offset="0.515625"/><stop stop-opacity="1" stop-color="rgb(69.744873%, 23.985291%, 53.131104%)" offset="0.519531"/><stop stop-opacity="1" stop-color="rgb(69.949341%, 24.102783%, 53.056335%)" offset="0.523438"/><stop stop-opacity="1" stop-color="rgb(70.153809%, 24.21875%, 52.981567%)" offset="0.527344"/><stop stop-opacity="1" stop-color="rgb(70.358276%, 24.336243%, 52.906799%)" offset="0.53125"/><stop stop-opacity="1" stop-color="rgb(70.562744%, 24.453735%, 52.830505%)" offset="0.535156"/><stop stop-opacity="1" stop-color="rgb(70.767212%, 24.571228%, 52.755737%)" offset="0.539063"/><stop stop-opacity="1" stop-color="rgb(70.97168%, 24.688721%, 52.680969%)" offset="0.542969"/><stop stop-opacity="1" stop-color="rgb(71.176147%, 24.806213%, 52.606201%)" offset="0.546875"/><stop stop-opacity="1" stop-color="rgb(71.380615%, 24.92218%, 52.531433%)" offset="0.550781"/><stop stop-opacity="1" stop-color="rgb(71.585083%, 25.039673%, 52.456665%)" offset="0.554688"/><stop stop-opacity="1" stop-color="rgb(71.789551%, 25.157166%, 52.380371%)" offset="0.558594"/><stop stop-opacity="1" stop-color="rgb(71.995544%, 25.274658%, 52.305603%)" offset="0.5625"/><stop stop-opacity="1" stop-color="rgb(72.200012%, 25.390625%, 52.230835%)" offset="0.566406"/><stop stop-opacity="1" stop-color="rgb(72.40448%, 25.508118%, 52.156067%)" offset="0.570313"/><stop stop-opacity="1" stop-color="rgb(72.608948%, 25.62561%, 52.081299%)" offset="0.574219"/><stop stop-opacity="1" stop-color="rgb(72.813416%, 25.743103%, 52.006531%)" offset="0.578125"/><stop stop-opacity="1" stop-color="rgb(73.017883%, 25.860596%, 51.930237%)" offset="0.582031"/><stop stop-opacity="1" stop-color="rgb(73.222351%, 25.978088%, 51.855469%)" offset="0.585938"/><stop stop-opacity="1" stop-color="rgb(73.426819%, 26.094055%, 51.780701%)" offset="0.589844"/><stop stop-opacity="1" stop-color="rgb(73.631287%, 26.211548%, 51.705933%)" offset="0.59375"/><stop stop-opacity="1" stop-color="rgb(73.835754%, 26.329041%, 51.629639%)" offset="0.597656"/><stop stop-opacity="1" stop-color="rgb(74.040222%, 26.446533%, 51.554871%)" offset="0.601562"/><stop stop-opacity="1" stop-color="rgb(74.24469%, 26.5625%, 51.480103%)" offset="0.605469"/><stop stop-opacity="1" stop-color="rgb(74.449158%, 26.679993%, 51.405334%)" offset="0.609375"/><stop stop-opacity="1" stop-color="rgb(74.653625%, 26.797485%, 51.330566%)" offset="0.613281"/><stop stop-opacity="1" stop-color="rgb(74.858093%, 26.914978%, 51.255798%)" offset="0.617187"/><stop stop-opacity="1" stop-color="rgb(75.062561%, 27.032471%, 51.179504%)" offset="0.621094"/><stop stop-opacity="1" stop-color="rgb(75.267029%, 27.149963%, 51.104736%)" offset="0.625"/><stop stop-opacity="1" stop-color="rgb(75.471497%, 27.26593%, 51.029968%)" offset="0.628906"/><stop stop-opacity="1" stop-color="rgb(75.675964%, 27.383423%, 50.9552%)" offset="0.632812"/><stop stop-opacity="1" stop-color="rgb(75.880432%, 27.500916%, 50.878906%)" offset="0.636719"/><stop stop-opacity="1" stop-color="rgb(76.0849%, 27.618408%, 50.804138%)" offset="0.640625"/><stop stop-opacity="1" stop-color="rgb(76.289368%, 27.734375%, 50.72937%)" offset="0.644531"/><stop stop-opacity="1" stop-color="rgb(76.493835%, 27.851868%, 50.654602%)" offset="0.648437"/><stop stop-opacity="1" stop-color="rgb(76.698303%, 27.96936%, 50.579834%)" offset="0.652344"/><stop stop-opacity="1" stop-color="rgb(76.902771%, 28.086853%, 50.505066%)" offset="0.65625"/><stop stop-opacity="1" stop-color="rgb(77.107239%, 28.204346%, 50.428772%)" offset="0.660156"/><stop stop-opacity="1" stop-color="rgb(77.311707%, 28.321838%, 50.354004%)" offset="0.664062"/><stop stop-opacity="1" stop-color="rgb(77.516174%, 28.437805%, 50.279236%)" offset="0.667969"/><stop stop-opacity="1" stop-color="rgb(77.720642%, 28.555298%, 50.204468%)" offset="0.671875"/><stop stop-opacity="1" stop-color="rgb(77.92511%, 28.672791%, 50.1297%)" offset="0.675781"/><stop stop-opacity="1" stop-color="rgb(78.129578%, 28.790283%, 50.054932%)" offset="0.679688"/><stop stop-opacity="1" stop-color="rgb(78.334045%, 28.90625%, 49.978638%)" offset="0.683594"/><stop stop-opacity="1" stop-color="rgb(78.538513%, 29.023743%, 49.90387%)" offset="0.6875"/><stop stop-opacity="1" stop-color="rgb(78.742981%, 29.141235%, 49.829102%)" offset="0.691406"/><stop stop-opacity="1" stop-color="rgb(78.947449%, 29.258728%, 49.754333%)" offset="0.695312"/><stop stop-opacity="1" stop-color="rgb(79.151917%, 29.376221%, 49.67804%)" offset="0.699219"/><stop stop-opacity="1" stop-color="rgb(79.356384%, 29.493713%, 49.603271%)" offset="0.703125"/><stop stop-opacity="1" stop-color="rgb(79.560852%, 29.60968%, 49.528503%)" offset="0.707031"/><stop stop-opacity="1" stop-color="rgb(79.76532%, 29.727173%, 49.453735%)" offset="0.710938"/><stop stop-opacity="1" stop-color="rgb(79.969788%, 29.844666%, 49.378967%)" offset="0.714844"/><stop stop-opacity="1" stop-color="rgb(80.174255%, 29.962158%, 49.304199%)" offset="0.71875"/><stop stop-opacity="1" stop-color="rgb(80.378723%, 30.078125%, 49.227905%)" offset="0.722656"/><stop stop-opacity="1" stop-color="rgb(80.584717%, 30.195618%, 49.153137%)" offset="0.726563"/><stop stop-opacity="1" stop-color="rgb(80.789185%, 30.31311%, 49.078369%)" offset="0.730469"/><stop stop-opacity="1" stop-color="rgb(80.993652%, 30.430603%, 49.003601%)" offset="0.734375"/><stop stop-opacity="1" stop-color="rgb(81.19812%, 30.548096%, 48.927307%)" offset="0.738281"/><stop stop-opacity="1" stop-color="rgb(81.402588%, 30.665588%, 48.852539%)" offset="0.742187"/><stop stop-opacity="1" stop-color="rgb(81.607056%, 30.781555%, 48.777771%)" offset="0.746094"/><stop stop-opacity="1" stop-color="rgb(81.811523%, 30.899048%, 48.703003%)" offset="0.75"/><stop stop-opacity="1" stop-color="rgb(82.015991%, 31.016541%, 48.628235%)" offset="0.753906"/><stop stop-opacity="1" stop-color="rgb(82.220459%, 31.134033%, 48.553467%)" offset="0.757812"/><stop stop-opacity="1" stop-color="rgb(82.424927%, 31.25%, 48.477173%)" offset="0.761719"/><stop stop-opacity="1" stop-color="rgb(82.629395%, 31.367493%, 48.402405%)" offset="0.765625"/><stop stop-opacity="1" stop-color="rgb(82.833862%, 31.484985%, 48.327637%)" offset="0.769531"/><stop stop-opacity="1" stop-color="rgb(83.03833%, 31.602478%, 48.252869%)" offset="0.773437"/><stop stop-opacity="1" stop-color="rgb(83.242798%, 31.719971%, 48.178101%)" offset="0.777344"/><stop stop-opacity="1" stop-color="rgb(83.447266%, 31.837463%, 48.103333%)" offset="0.78125"/><stop stop-opacity="1" stop-color="rgb(83.651733%, 31.95343%, 48.027039%)" offset="0.785156"/><stop stop-opacity="1" stop-color="rgb(83.856201%, 32.070923%, 47.952271%)" offset="0.789062"/><stop stop-opacity="1" stop-color="rgb(84.060669%, 32.188416%, 47.877502%)" offset="0.792969"/><stop stop-opacity="1" stop-color="rgb(84.265137%, 32.305908%, 47.802734%)" offset="0.796875"/><stop stop-opacity="1" stop-color="rgb(84.469604%, 32.421875%, 47.72644%)" offset="0.800781"/><stop stop-opacity="1" stop-color="rgb(84.674072%, 32.539368%, 47.651672%)" offset="0.804688"/><stop stop-opacity="1" stop-color="rgb(84.87854%, 32.65686%, 47.576904%)" offset="0.808594"/><stop stop-opacity="1" stop-color="rgb(85.083008%, 32.774353%, 47.502136%)" offset="0.8125"/><stop stop-opacity="1" stop-color="rgb(85.287476%, 32.891846%, 47.427368%)" offset="0.816406"/><stop stop-opacity="1" stop-color="rgb(85.491943%, 33.009338%, 47.3526%)" offset="0.820312"/><stop stop-opacity="1" stop-color="rgb(85.696411%, 33.125305%, 47.276306%)" offset="0.824219"/><stop stop-opacity="1" stop-color="rgb(85.900879%, 33.242798%, 47.201538%)" offset="0.828125"/><stop stop-opacity="1" stop-color="rgb(86.105347%, 33.360291%, 47.12677%)" offset="0.832031"/><stop stop-opacity="1" stop-color="rgb(86.309814%, 33.477783%, 47.052002%)" offset="0.835938"/><stop stop-opacity="1" stop-color="rgb(86.514282%, 33.59375%, 46.975708%)" offset="0.839844"/><stop stop-opacity="1" stop-color="rgb(86.71875%, 33.711243%, 46.90094%)" offset="0.84375"/><stop stop-opacity="1" stop-color="rgb(86.923218%, 33.828735%, 46.826172%)" offset="0.847656"/><stop stop-opacity="1" stop-color="rgb(87.127686%, 33.946228%, 46.751404%)" offset="0.851563"/><stop stop-opacity="1" stop-color="rgb(87.332153%, 34.063721%, 46.676636%)" offset="0.855469"/><stop stop-opacity="1" stop-color="rgb(87.536621%, 34.181213%, 46.601868%)" offset="0.859375"/><stop stop-opacity="1" stop-color="rgb(87.741089%, 34.29718%, 46.525574%)" offset="0.863281"/><stop stop-opacity="1" stop-color="rgb(87.945557%, 34.414673%, 46.450806%)" offset="0.867187"/><stop stop-opacity="1" stop-color="rgb(88.150024%, 34.532166%, 46.376038%)" offset="0.871094"/><stop stop-opacity="1" stop-color="rgb(88.354492%, 34.649658%, 46.30127%)" offset="0.875"/><stop stop-opacity="1" stop-color="rgb(88.55896%, 34.765625%, 46.226501%)" offset="0.878906"/><stop stop-opacity="1" stop-color="rgb(88.763428%, 34.883118%, 46.151733%)" offset="0.882812"/><stop stop-opacity="1" stop-color="rgb(88.967896%, 35.00061%, 46.075439%)" offset="0.886719"/><stop stop-opacity="1" stop-color="rgb(89.173889%, 35.118103%, 46.000671%)" offset="0.890625"/><stop stop-opacity="1" stop-color="rgb(89.378357%, 35.235596%, 45.925903%)" offset="0.894531"/><stop stop-opacity="1" stop-color="rgb(89.582825%, 35.353088%, 45.851135%)" offset="0.898437"/><stop stop-opacity="1" stop-color="rgb(89.787292%, 35.469055%, 45.774841%)" offset="0.902344"/><stop stop-opacity="1" stop-color="rgb(89.99176%, 35.586548%, 45.700073%)" offset="0.90625"/><stop stop-opacity="1" stop-color="rgb(90.196228%, 35.704041%, 45.625305%)" offset="0.910156"/><stop stop-opacity="1" stop-color="rgb(90.400696%, 35.821533%, 45.550537%)" offset="0.914062"/><stop stop-opacity="1" stop-color="rgb(90.605164%, 35.9375%, 45.475769%)" offset="0.917969"/><stop stop-opacity="1" stop-color="rgb(90.809631%, 36.054993%, 45.401001%)" offset="0.921875"/><stop stop-opacity="1" stop-color="rgb(91.014099%, 36.172485%, 45.324707%)" offset="0.925781"/><stop stop-opacity="1" stop-color="rgb(91.218567%, 36.289978%, 45.249939%)" offset="0.929688"/><stop stop-opacity="1" stop-color="rgb(91.423035%, 36.407471%, 45.175171%)" offset="0.933594"/><stop stop-opacity="1" stop-color="rgb(91.627502%, 36.524963%, 45.100403%)" offset="0.9375"/><stop stop-opacity="1" stop-color="rgb(91.83197%, 36.64093%, 45.024109%)" offset="0.941406"/><stop stop-opacity="1" stop-color="rgb(92.036438%, 36.758423%, 44.949341%)" offset="0.945312"/><stop stop-opacity="1" stop-color="rgb(92.240906%, 36.875916%, 44.874573%)" offset="0.949219"/><stop stop-opacity="1" stop-color="rgb(92.445374%, 36.993408%, 44.799805%)" offset="0.953125"/><stop stop-opacity="1" stop-color="rgb(92.649841%, 37.109375%, 44.725037%)" offset="0.957031"/><stop stop-opacity="1" stop-color="rgb(92.854309%, 37.226868%, 44.650269%)" offset="0.960938"/><stop stop-opacity="1" stop-color="rgb(93.058777%, 37.34436%, 44.573975%)" offset="0.964844"/><stop stop-opacity="1" stop-color="rgb(93.263245%, 37.461853%, 44.499207%)" offset="0.96875"/><stop stop-opacity="1" stop-color="rgb(93.467712%, 37.579346%, 44.424438%)" offset="0.972656"/><stop stop-opacity="1" stop-color="rgb(93.67218%, 37.696838%, 44.34967%)" offset="0.976563"/><stop stop-opacity="1" stop-color="rgb(93.876648%, 37.812805%, 44.274902%)" offset="0.980469"/><stop stop-opacity="1" stop-color="rgb(94.081116%, 37.930298%, 44.200134%)" offset="0.984375"/><stop stop-opacity="1" stop-color="rgb(94.285583%, 38.047791%, 44.12384%)" offset="0.988281"/><stop stop-opacity="1" stop-color="rgb(94.490051%, 38.165283%, 44.049072%)" offset="0.992188"/><stop stop-opacity="1" stop-color="rgb(94.694519%, 38.28125%, 43.974304%)" offset="0.996094"/><stop stop-opacity="1" stop-color="rgb(94.898987%, 38.398743%, 43.899536%)" offset="1"/></linearGradient></defs><g clip-path="url(#7eabd09501)"><rect x="-90" fill="url(#88b4a77a74)" width="1080" y="-89.999999" height="1079.999988"/></g><path fill="#fefefe" d="M 608.824219 600.351562 C 582.351562 600.351562 561.175781 579.175781 561.175781 551.648438 C 561.175781 525.175781 582.351562 504 608.824219 504 C 635.292969 504 657.53125 525.175781 657.53125 551.648438 C 657.53125 579.175781 635.292969 600.351562 608.824219 600.351562 Z M 608.824219 518.824219 C 590.824219 518.824219 576 533.648438 576 552.707031 C 576 570.707031 590.824219 585.53125 608.824219 585.53125 C 626.824219 585.53125 641.648438 570.707031 641.648438 552.707031 C 641.648438 533.648438 626.824219 518.824219 608.824219 518.824219 Z M 608.824219 518.824219 " fill-opacity="1" fill-rule="evenodd"/><path fill="#fefefe" d="M 627.882812 663.882812 L 589.765625 663.882812 C 585.53125 663.882812 582.351562 659.648438 582.351562 655.410156 L 582.351562 637.410156 C 577.058594 635.292969 571.765625 633.175781 567.53125 631.058594 L 553.765625 643.765625 C 551.648438 646.941406 546.351562 646.941406 543.175781 643.765625 L 516.707031 617.292969 C 514.589844 616.234375 514.589844 614.117188 514.589844 612 C 514.589844 610.941406 514.589844 607.765625 516.707031 606.707031 L 529.410156 594 C 526.234375 589.765625 525.175781 584.46875 523.058594 579.175781 L 504 579.175781 C 499.765625 579.175781 496.589844 576 496.589844 571.765625 L 496.589844 533.648438 C 496.589844 529.410156 499.765625 525.175781 504 525.175781 L 523.058594 525.175781 C 525.175781 520.941406 527.292969 515.648438 529.410156 510.351562 L 516.707031 497.648438 C 514.589844 495.53125 514.589844 493.410156 514.589844 492.351562 C 514.589844 490.234375 514.589844 488.117188 516.707031 487.058594 L 543.175781 460.589844 C 546.351562 457.410156 551.648438 457.410156 553.765625 460.589844 L 567.53125 472.234375 C 572.824219 470.117188 577.058594 468 582.351562 466.941406 L 582.351562 448.941406 C 582.351562 443.648438 585.53125 440.46875 590.824219 440.46875 L 627.882812 440.46875 C 632.117188 440.46875 636.351562 443.648438 636.351562 448.941406 L 636.351562 466.941406 C 641.648438 469.058594 645.882812 471.175781 651.175781 473.292969 L 663.882812 460.589844 C 667.058594 457.410156 671.292969 457.410156 674.46875 460.589844 L 700.941406 487.058594 C 703.058594 488.117188 703.058594 490.234375 703.058594 492.351562 C 703.058594 493.410156 703.058594 495.53125 700.941406 497.648438 L 688.234375 510.351562 C 691.410156 514.589844 693.53125 519.882812 694.589844 525.175781 L 713.648438 525.175781 C 717.882812 525.175781 721.058594 528.351562 721.058594 532.589844 L 721.058594 570.707031 C 721.058594 574.941406 717.882812 579.175781 713.648438 579.175781 L 694.589844 579.175781 C 693.53125 584.46875 691.410156 589.765625 689.292969 594 L 702 606.707031 C 703.058594 607.765625 704.117188 609.882812 704.117188 612 C 704.117188 613.058594 703.058594 615.175781 702 617.292969 L 675.53125 643.765625 C 672.351562 646.941406 667.058594 646.941406 663.882812 643.765625 L 651.175781 631.058594 C 646.941406 633.175781 641.648438 635.292969 636.351562 636.351562 L 636.351562 655.410156 C 635.292969 659.648438 632.117188 663.882812 627.882812 663.882812 Z M 598.234375 648 L 620.46875 648 L 620.46875 632.117188 C 620.46875 628.941406 622.589844 625.765625 625.765625 624.707031 C 635.292969 622.589844 641.648438 619.410156 648 615.175781 C 651.175781 613.058594 655.410156 613.058594 657.53125 616.234375 L 669.175781 627.882812 L 685.058594 612 L 673.410156 600.351562 C 671.292969 597.175781 670.234375 594 672.351562 590.824219 C 676.589844 584.46875 679.765625 577.058594 681.882812 568.589844 C 682.941406 565.410156 686.117188 563.292969 689.292969 563.292969 L 705.175781 563.292969 L 705.175781 540 L 689.292969 540 C 686.117188 540 682.941406 537.882812 681.882812 534.707031 C 679.765625 527.292969 676.589844 519.882812 672.351562 512.46875 C 671.292969 509.292969 671.292969 506.117188 673.410156 502.941406 L 685.058594 491.292969 L 669.175781 475.410156 L 657.53125 487.058594 C 655.410156 489.175781 651.175781 490.234375 648 488.117188 C 641.648438 483.882812 634.234375 480.707031 626.824219 478.589844 C 622.589844 477.53125 620.46875 474.351562 620.46875 471.175781 L 620.46875 455.292969 L 598.234375 455.292969 L 598.234375 471.175781 C 598.234375 474.351562 596.117188 477.53125 592.941406 478.589844 C 584.46875 480.707031 577.058594 483.882812 570.707031 488.117188 C 567.53125 490.234375 563.292969 489.175781 561.175781 487.058594 L 549.53125 474.351562 L 533.648438 490.234375 L 545.292969 501.882812 C 547.410156 505.058594 548.46875 508.234375 546.351562 511.410156 C 542.117188 518.824219 538.941406 526.234375 537.882812 533.648438 C 536.824219 536.824219 533.648438 540 530.46875 540 L 513.53125 540 L 513.53125 562.234375 L 530.46875 562.234375 C 533.648438 562.234375 536.824219 564.351562 537.882812 568.589844 C 538.941406 576 542.117188 583.410156 546.351562 589.765625 C 548.46875 592.941406 547.410156 597.175781 545.292969 599.292969 L 533.648438 610.941406 L 549.53125 625.765625 L 561.175781 614.117188 C 564.351562 612 567.53125 610.941406 570.707031 613.058594 C 577.058594 617.292969 584.46875 620.46875 592.941406 622.589844 C 596.117188 623.648438 598.234375 625.765625 598.234375 630 Z M 598.234375 648 " fill-opacity="1" fill-rule="evenodd"/><path fill="#fefefe" d="M 389.648438 581.292969 C 385.410156 581.292969 382.234375 577.058594 382.234375 572.824219 C 382.234375 513.53125 396 494.46875 408.707031 477.53125 C 418.234375 464.824219 426.707031 454.234375 426.707031 427.765625 C 426.707031 380.117188 387.53125 342 339.882812 342 C 292.234375 342 254.117188 380.117188 254.117188 427.765625 C 254.117188 454.234375 261.53125 464.824219 271.058594 477.53125 C 283.765625 494.46875 298.589844 513.53125 298.589844 572.824219 C 298.589844 577.058594 294.351562 581.292969 290.117188 581.292969 C 285.882812 581.292969 282.707031 577.058594 282.707031 572.824219 C 282.707031 518.824219 270 501.882812 258.351562 486 C 248.824219 473.292969 238.234375 459.53125 238.234375 427.765625 C 238.234375 371.648438 282.707031 326.117188 339.882812 326.117188 C 396 326.117188 441.53125 371.648438 441.53125 427.765625 C 441.53125 459.53125 430.941406 473.292969 421.410156 486 C 408.707031 501.882812 397.058594 518.824219 397.058594 572.824219 C 397.058594 577.058594 393.882812 581.292969 389.648438 581.292969 Z M 389.648438 581.292969 " fill-opacity="1" fill-rule="evenodd"/><path fill="#fefefe" d="M 280.589844 450 C 276.351562 450 272.117188 445.765625 272.117188 441.53125 C 272.117188 397.058594 309.175781 361.058594 353.648438 361.058594 C 357.882812 361.058594 361.058594 365.292969 361.058594 369.53125 C 361.058594 373.765625 357.882812 376.941406 353.648438 376.941406 C 316.589844 376.941406 288 406.589844 288 442.589844 C 288 445.765625 284.824219 450 280.589844 450 Z M 280.589844 450 " fill-opacity="1" fill-rule="evenodd"/><path fill="#fefefe" d="M 415.058594 331.410156 C 414 331.410156 412.941406 330.351562 410.824219 330.351562 C 407.648438 328.234375 406.589844 322.941406 407.648438 319.765625 L 421.410156 296.46875 C 423.53125 293.292969 427.765625 292.234375 432 293.292969 C 435.175781 295.410156 436.234375 299.648438 435.175781 303.882812 L 421.410156 327.175781 C 420.351562 329.292969 418.234375 331.410156 415.058594 331.410156 Z M 415.058594 331.410156 " fill-opacity="1" fill-rule="evenodd"/><path fill="#fefefe" d="M 470.117188 386.46875 C 468 386.46875 464.824219 385.410156 463.765625 382.234375 C 461.648438 379.058594 462.707031 373.765625 466.941406 371.648438 L 490.234375 358.941406 C 493.410156 356.824219 498.707031 357.882812 500.824219 362.117188 C 502.941406 365.292969 501.882812 370.589844 497.648438 372.707031 L 474.351562 385.410156 C 473.292969 386.46875 472.234375 386.46875 470.117188 386.46875 Z M 470.117188 386.46875 " fill-opacity="1" fill-rule="evenodd"/><path fill="#fefefe" d="M 264.707031 331.410156 C 261.53125 331.410156 259.410156 329.292969 258.351562 327.175781 L 244.589844 303.882812 C 242.46875 300.707031 243.53125 295.410156 247.765625 293.292969 C 250.941406 291.175781 256.234375 292.234375 258.351562 296.46875 L 272.117188 319.765625 C 274.234375 322.941406 272.117188 328.234375 268.941406 330.351562 C 266.824219 331.410156 265.765625 331.410156 264.707031 331.410156 Z M 264.707031 331.410156 " fill-opacity="1" fill-rule="evenodd"/><path fill="#fefefe" d="M 209.648438 386.46875 C 208.589844 386.46875 207.53125 386.46875 205.410156 385.410156 L 183.175781 372.707031 C 178.941406 370.589844 177.882812 365.292969 180 362.117188 C 182.117188 357.882812 186.351562 356.824219 190.589844 358.941406 L 212.824219 371.648438 C 217.058594 373.765625 218.117188 378 216 382.234375 C 214.941406 384.351562 211.765625 386.46875 209.648438 386.46875 Z M 209.648438 386.46875 " fill-opacity="1" fill-rule="evenodd"/><path fill="#fefefe" d="M 405.53125 608.824219 C 400.234375 608.824219 397.058594 605.648438 397.058594 600.351562 C 397.058594 596.117188 400.234375 592.941406 405.53125 592.941406 C 407.648438 592.941406 410.824219 589.765625 410.824219 586.589844 C 410.824219 583.410156 407.648438 581.292969 405.53125 581.292969 L 275.292969 581.292969 C 271.058594 581.292969 268.941406 583.410156 268.941406 586.589844 C 268.941406 589.765625 272.117188 592.941406 275.292969 592.941406 C 279.53125 592.941406 282.707031 596.117188 282.707031 600.351562 C 282.707031 605.648438 279.53125 608.824219 275.292969 608.824219 C 262.589844 608.824219 254.117188 599.292969 254.117188 586.589844 C 254.117188 574.941406 263.648438 566.46875 275.292969 566.46875 L 405.53125 566.46875 C 417.175781 566.46875 426.707031 576 426.707031 586.589844 C 426.707031 599.292969 417.175781 608.824219 405.53125 608.824219 Z M 405.53125 608.824219 " fill-opacity="1" fill-rule="evenodd"/><path fill="#fefefe" d="M 405.53125 636.351562 L 275.292969 636.351562 C 262.589844 636.351562 254.117188 626.824219 254.117188 615.175781 C 254.117188 602.46875 263.648438 594 275.292969 594 L 405.53125 594 C 417.175781 594 426.707031 603.53125 426.707031 615.175781 C 426.707031 625.765625 417.175781 636.351562 405.53125 636.351562 Z M 275.292969 608.824219 C 271.058594 608.824219 268.941406 610.941406 268.941406 614.117188 C 268.941406 618.351562 272.117188 620.46875 275.292969 620.46875 L 405.53125 620.46875 C 407.648438 620.46875 410.824219 618.351562 410.824219 614.117188 C 410.824219 610.941406 407.648438 608.824219 405.53125 608.824219 Z M 275.292969 608.824219 " fill-opacity="1" fill-rule="evenodd"/><path fill="#fefefe" d="M 350.46875 663.882812 L 330.351562 663.882812 C 311.292969 663.882812 295.410156 648 295.410156 628.941406 C 295.410156 623.648438 298.589844 620.46875 302.824219 620.46875 C 307.058594 620.46875 311.292969 623.648438 311.292969 628.941406 C 311.292969 639.53125 319.765625 648 330.351562 648 L 350.46875 648 C 361.058594 648 370.589844 639.53125 370.589844 628.941406 C 370.589844 623.648438 373.765625 620.46875 378 620.46875 C 382.234375 620.46875 386.46875 623.648438 386.46875 628.941406 C 385.410156 648 369.53125 663.882812 350.46875 663.882812 Z M 350.46875 663.882812 " fill-opacity="1" fill-rule="evenodd"/><path fill="#fefefe" d="M 339.882812 581.292969 C 335.648438 581.292969 332.46875 577.058594 332.46875 572.824219 L 332.46875 494.46875 C 332.46875 492.351562 333.53125 489.175781 335.648438 488.117188 L 366.351562 470.117188 C 370.589844 468 374.824219 469.058594 376.941406 473.292969 C 379.058594 476.46875 378 481.765625 374.824219 483.882812 L 348.351562 498.707031 L 348.351562 573.882812 C 348.351562 577.058594 344.117188 581.292969 339.882812 581.292969 Z M 339.882812 581.292969 " fill-opacity="1" fill-rule="evenodd"/><path fill="#fefefe" d="M 339.882812 501.882812 C 338.824219 501.882812 337.765625 501.882812 335.648438 500.824219 L 306 483.882812 C 301.765625 481.765625 300.707031 476.46875 302.824219 473.292969 C 304.941406 469.058594 310.234375 468 313.410156 470.117188 L 344.117188 488.117188 C 347.292969 490.234375 348.351562 495.53125 346.234375 498.707031 C 345.175781 500.824219 343.058594 501.882812 339.882812 501.882812 Z M 339.882812 501.882812 " fill-opacity="1" fill-rule="evenodd"/><path fill="#fefefe" d="M 608.824219 400.234375 C 604.589844 400.234375 601.410156 397.058594 601.410156 392.824219 L 601.410156 275.292969 C 601.410156 262.589844 590.824219 252 577.058594 252 L 371.648438 252 C 357.882812 252 347.292969 262.589844 347.292969 275.292969 L 347.292969 334.589844 C 347.292969 338.824219 344.117188 342 339.882812 342 C 334.589844 342 331.410156 338.824219 331.410156 334.589844 L 331.410156 275.292969 C 331.410156 253.058594 349.410156 236.117188 370.589844 236.117188 L 577.058594 236.117188 C 598.234375 236.117188 616.234375 253.058594 616.234375 275.292969 L 616.234375 392.824219 C 616.234375 397.058594 613.058594 400.234375 608.824219 400.234375 Z M 608.824219 400.234375 " fill-opacity="1" fill-rule="evenodd"/><path fill="#fefefe" d="M 608.824219 400.234375 C 606.707031 400.234375 604.589844 399.175781 603.53125 398.117188 L 565.410156 360 C 562.234375 357.882812 562.234375 352.589844 565.410156 349.410156 C 568.589844 346.234375 573.882812 346.234375 577.058594 349.410156 L 608.824219 381.175781 L 640.589844 349.410156 C 643.765625 346.234375 649.058594 346.234375 652.234375 349.410156 C 655.410156 352.589844 655.410156 357.882812 652.234375 360 L 614.117188 398.117188 C 613.058594 399.175781 610.941406 400.234375 608.824219 400.234375 Z M 608.824219 400.234375 " fill-opacity="1" fill-rule="evenodd"/></svg>